<svg width="520" height="520" viewBox="0 0 520 520" fill="none" xmlns="http://www.w3.org/2000/svg">
<g clip-path="url(#clip0_405_150)">
<path d="M185.05 131C211.8 131.73 223.5 165.61 207.09 185.3L166.64 226.21L162.06 228L166.31 226H444.27L445.51 228C446.93 225.14 453.6 228.82 455.82 230.35C463.89 235.92 468.25 242.03 469 252V268C468.4 277.25 463.61 284.32 456.13 289.54C453.71 291.23 446.13 295.03 444.51 292C444.43 292.8 444.12 294 443.55 294C356.51 294.66 266.83 294.96 179.32 294C172.94 294.85 167.18 294.18 162.06 292L166.31 293.46L207.6 335.26C221.76 354.2 212.13 386.19 187.05 388H172.05L162.16 385.78C128.65 354.51 95.87 322.52 63.84 289.81C56.01 281.42 51 274.66 51.08 263C51.24 261.05 50.85 258.91 51.08 257C50.86 245.52 56.05 238.56 63.69 230.37C86.39 206.58 109.92 183.59 134.26 161.42L156.66 138.06C162.21 133.02 168.78 131.44 176.06 131H185.06H185.05Z" fill="white"/>
</g>
<defs>
<clipPath id="clip0_405_150">
<rect width="418" height="257" fill="white" transform="translate(51 131)"/>
</clipPath>
</defs>
</svg>
