<svg width="520" height="520" viewBox="0 0 520 520" fill="none" xmlns="http://www.w3.org/2000/svg">
<g clip-path="url(#clip0_405_142)">
<path d="M200 14C222.13 16.93 224.35 43.04 213.56 59.04L203.85 77.01C337.14 26.12 484.06 124.17 491 264.84V306.81C487.07 406.58 399.97 499.93 299 504.68C285.96 503.96 271.92 505.65 259 504.68C153.61 496.73 70.8199 400.88 66.9499 297.36C66.2099 277.62 63.1599 243.08 92.5299 244.79C121.05 246.46 114.08 278.29 114.96 297.35C120.63 420.23 255.09 499.7 362.92 433.14C443.19 383.58 467.22 274.38 418.43 193.95C373.58 120.03 282.08 91.75 204.02 131.92L254.29 147.12C282.64 158.31 274.16 201.91 239.81 194.57C211.5 188.52 175.08 176.41 147.02 167.37C136.94 164.13 128.05 163.15 122.84 152.56C118.65 144.06 119.35 137.49 122.54 128.91C135.08 95.19 160.11 60.19 173.85 26.29C176.89 19.62 182.85 17.01 189.02 13.97H200.02L200 14Z" fill="white"/>
<path d="M28.0002 173.9L81.1802 66.64C97.1102 41.83 130.2 57.69 124.76 85.21C115.75 110.94 95.7202 137.14 86.7802 162.18C86.3402 163.42 85.7302 164.51 86.0002 165.89L165.23 189.15C187.99 201.49 180.37 236.75 153.8 236.63C114.97 225.54 75.5402 215.44 37.6602 201.71C32.5302 198.68 31.2702 193.31 27.9902 188.89V173.9H28.0002Z" fill="white"/>
<path d="M320 246.85V279.83C323.51 278.8 326.14 276.27 329.78 275.11C360.32 265.38 389.12 283.17 391.99 315.32C396.04 360.66 366.96 379.7 324.52 376.75C314.58 376.06 282.77 370.12 282.26 357.1C282.16 354.43 292.29 340.66 294.73 339.95C299.36 338.6 303.89 344.11 307.99 346.29C326.62 356.21 357.07 354.01 359.04 328.32C360.28 312.15 353.97 296.41 335.52 297.82C318.65 299.11 317.6 311.8 295.6 308.7C290.28 307.95 289.41 306.4 288.96 301.35C286.76 276.92 290.68 249.17 289.03 224.38C289.5 221.88 291.92 219.81 294.45 219.81L376.29 220.08C384.14 220.79 381.67 246.85 377.5 246.85H320Z" fill="white"/>
<path d="M224 256.85C219.03 260.94 207.21 273.88 201.14 266.21C199.69 264.38 192.2 250.12 192.03 248.29C191.9 246.87 192.38 245.25 193.3 244.15C194.79 242.36 206.35 236.9 209.91 234.29C214.29 231.08 224.32 219.14 226.94 218.33C230.02 217.38 249.15 217.41 251.76 218.62C252.67 219.04 253.49 219.52 253.83 220.55L253.97 369.26C253.84 370.29 253.42 371.23 252.59 371.88C251.05 373.1 230.48 373.32 227.52 372.76C226.42 372.55 223.99 371.04 223.99 370.29V256.86L224 256.85Z" fill="white"/>
</g>
<defs>
<clipPath id="clip0_405_142">
<rect width="463" height="491" fill="white" transform="translate(28 14)"/>
</clipPath>
</defs>
</svg>
