<svg width="520" height="520" viewBox="0 0 520 520" fill="none" xmlns="http://www.w3.org/2000/svg">
<g clip-path="url(#clip0_405_176)">
<path d="M257 94C266.95 96.09 276.95 99.01 285.01 105.49C292.72 111.68 304 128.55 304 138.5V179L438.33 101.83C442.16 99.79 446.03 97.91 450.24 96.74C454.45 95.57 458.79 95.28 463 94H469C474.66 95.59 480.51 96.16 486 98.5C501.65 105.17 511.03 119.26 516 135V385C511.03 400.74 501.65 414.83 486 421.5C480.51 423.84 474.66 424.42 469 426H463C458.79 424.72 454.56 424.45 450.24 423.26C446.27 422.16 442.6 420.43 438.98 418.52L304 341V381.5C304 391.46 292.72 408.32 285.01 414.51C277.3 420.7 266.95 423.91 257 426H250C245.71 424.36 240.96 424.49 236.45 423.05C232.73 421.87 227.95 419.03 224.33 417.17C156.2 382.16 90.05 336.66 22.52 299.98C12.79 292.06 7.55 281.86 4 270V250C7.56 238.14 12.8 227.94 22.52 220.02C93.42 178.4 164.42 136.58 236.45 96.95L250 94H257ZM250.74 133.21L48.66 249.16C40.02 255.51 40.03 264.49 48.66 270.83L249.97 386.53C255.7 388.46 261.27 384.34 264.24 379.74V140.26C261.27 135.74 256.4 132.09 250.74 133.21ZM304.21 295.8L457.96 384.54C465.67 389.42 474.28 386.18 477.33 377.82V142.17C474.29 133.82 465.67 130.58 457.96 135.45L304.21 224.19V295.78V295.8Z" fill="white"/>
</g>
<defs>
<clipPath id="clip0_405_176">
<rect width="512" height="332" fill="white" transform="translate(4 94)"/>
</clipPath>
</defs>
</svg>
