<svg width="520" height="520" viewBox="0 0 520 520" fill="none" xmlns="http://www.w3.org/2000/svg">
<g clip-path="url(#clip0_405_162)">
<path d="M57 94C61.21 95.28 65.44 95.55 69.76 96.74C74.08 97.93 77.84 99.79 81.67 101.83L216 179V138.5C216 128.54 227.28 111.68 234.99 105.49C243.06 99.01 253.05 96.09 263 94H270C274.29 95.64 279.04 95.51 283.55 96.95C287.27 98.13 292.05 100.97 295.67 102.83C363.8 137.84 429.95 183.34 497.48 220.02C507.21 227.94 512.45 238.14 516 250V270C512.44 281.86 507.21 292.06 497.48 299.98C429.96 336.66 363.81 382.17 295.67 417.17C292.05 419.03 287.27 421.87 283.55 423.05C279.04 424.48 274.29 424.36 270 426H263C253.05 423.91 243.05 420.99 234.99 414.51C226.93 408.03 216 391.45 216 381.5V341L81.02 418.52C77.39 420.43 73.73 422.16 69.76 423.26C65.45 424.46 61.21 424.72 57 426H51C45.34 424.41 39.49 423.84 34 421.5C18.35 414.83 8.97 400.74 4 385V135C9.08 118.71 18.22 105.77 34 98.5L51 94H57ZM215.79 224.2L62.04 135.46C54.33 130.58 45.72 133.82 42.67 142.18V377.83C45.71 386.18 54.33 389.42 62.04 384.55L215.79 295.81V224.22V224.2ZM264.74 133.21C260.75 133.99 255.02 139.04 254.97 143.48L255.75 379.75C261.28 388.14 268.61 388.81 276.67 383.18L471.33 270.84C479.97 264.49 479.96 255.51 471.33 249.17L269.26 133.21C267.74 132.75 266.27 132.92 264.74 133.21Z" fill="white"/>
</g>
<defs>
<clipPath id="clip0_405_162">
<rect width="512" height="332" fill="white" transform="translate(4 94)"/>
</clipPath>
</defs>
</svg>
