<svg width="520" height="520" viewBox="0 0 520 520" fill="none" xmlns="http://www.w3.org/2000/svg">
<g clip-path="url(#clip0_405_140)">
<path d="M330.11 14C336.28 17.05 342.23 19.65 345.27 26.33C359 60.26 384.02 95.28 396.55 129.02C399.74 137.6 400.43 144.17 396.25 152.68C391.04 163.28 382.15 164.25 372.08 167.5C344.04 176.54 307.65 188.66 279.35 194.71C245.02 202.05 236.55 158.42 264.88 147.23L315.11 132.02C237.12 91.83 145.67 120.1 100.84 194.09C52.0899 274.54 76.0699 383.83 156.31 433.43C264.05 500.03 398.43 420.52 404.1 297.56C404.98 278.5 398 246.64 426.51 244.97C455.87 243.25 452.81 277.83 452.07 297.57C448.43 395.07 377.7 482.64 281.17 501.56C274.22 502.92 267.03 503.39 260.15 505.02H220.18C119.29 500.23 32.2299 406.84 28.3099 307C29.0399 293.28 27.3299 278.59 28.3099 265C34.3599 125 183.05 25.64 314.96 77.22C310.59 68.64 306.14 59.75 301.61 50.56C295.01 36.06 301.78 15.39 319.12 13.99H330.11V14Z" fill="white"/>
<path d="M491 174V189C486.99 196.13 483.73 202.25 475.27 204.76L365.28 236.78C338.73 236.9 331.12 201.62 353.86 189.27L433.04 165.99C433.31 164.6 432.7 163.51 432.26 162.28C423.32 137.23 403.3 111.01 394.3 85.26C388.87 57.72 421.94 41.85 437.86 66.68L491 174Z" fill="white"/>
<path d="M262.15 247V280C265.66 278.97 268.29 276.44 271.92 275.28C302.44 265.54 331.22 283.34 334.08 315.52C338.13 360.88 309.07 379.94 266.65 376.99C256.72 376.3 224.93 370.35 224.42 357.33C224.32 354.65 234.45 340.88 236.88 340.17C241.51 338.82 246.03 344.33 250.13 346.51C268.74 356.44 299.18 354.23 301.15 328.53C302.39 312.35 296.09 296.59 277.65 298.01C260.79 299.31 259.75 312 237.76 308.89C232.44 308.14 231.58 306.59 231.12 301.53C228.92 277.08 232.84 249.32 231.19 224.51C231.66 222.01 234.08 219.93 236.61 219.93L318.39 220.2C326.23 220.91 323.77 246.99 319.6 246.99H262.14L262.15 247Z" fill="white"/>
<path d="M166.22 257C161.25 261.1 149.44 274.04 143.37 266.36C141.92 264.53 134.43 250.26 134.27 248.42C134.14 247 134.62 245.38 135.54 244.27C137.03 242.48 148.58 237.02 152.14 234.4C156.51 231.18 166.54 219.24 169.16 218.43C172.24 217.48 191.36 217.51 193.96 218.72C194.87 219.14 195.69 219.62 196.03 220.65L196.17 369.46C196.04 370.49 195.62 371.43 194.8 372.08C193.26 373.3 172.7 373.52 169.75 372.96C168.65 372.75 166.23 371.23 166.23 370.49V256.99L166.22 257Z" fill="white"/>
</g>
<defs>
<clipPath id="clip0_405_140">
<rect width="463" height="491" fill="white" transform="translate(28 14)"/>
</clipPath>
</defs>
</svg>
