<svg width="520" height="520" viewBox="0 0 520 520" fill="none" xmlns="http://www.w3.org/2000/svg">
<g clip-path="url(#clip0_405_144)">
<path d="M198.636 40C221.702 46.6741 226.698 77.6483 205.521 90.0206C204.076 90.8657 199.498 93.1485 198.201 93.1485H88.0948V203.366C88.0948 203.846 85.5532 209.735 84.9961 210.72C72.9149 231.936 41.4758 226.769 35 203.802V60.0396C35.7137 49.3315 44.2611 40.5838 55.0193 40H198.636Z" fill="white"/>
<path d="M464.981 40C475.678 40.7145 484.417 49.2705 485 60.0396V203.802C478.333 226.891 447.39 231.892 435.03 210.694C434.186 209.248 431.906 204.665 431.906 203.366V93.1485H321.799C321.321 93.1485 315.437 90.6044 314.453 90.0467C293.259 77.9533 298.42 46.4824 321.364 40H464.981Z" fill="white"/>
<path d="M35 316.198C41.6673 293.109 72.6103 288.108 84.97 309.306C85.8143 310.753 88.0948 315.335 88.0948 316.634V426.852H198.201C198.68 426.852 204.564 429.396 205.547 429.953C226.742 442.047 221.58 473.518 198.636 480H55.0193C44.3221 479.286 35.5832 470.73 35 459.96V316.198Z" fill="white"/>
<path d="M485 316.198V459.96C484.286 470.669 475.739 479.416 464.98 480H321.363C298.298 473.326 293.302 442.352 314.478 429.979C315.923 429.134 320.502 426.852 321.799 426.852H431.905V316.634C431.905 316.155 434.447 310.265 435.004 309.28C447.085 288.064 478.524 293.231 485 316.198Z" fill="white"/>
</g>
<defs>
<clipPath id="clip0_405_144">
<rect width="450" height="440" fill="white" transform="translate(35 40)"/>
</clipPath>
</defs>
</svg>
