<svg width="520" height="520" viewBox="0 0 520 520" fill="none" xmlns="http://www.w3.org/2000/svg">
<g clip-path="url(#clip0_405_152)">
<path d="M31.1799 308C27.4799 278.84 33.9499 241.98 31.1799 212C33.9899 201.34 39.0999 191.03 48.8099 185.18C66.0099 174.82 87.5899 183.27 106.24 178.76C127.75 163.18 147.57 144.22 168.92 128.6C197.68 107.56 228.05 116.58 234.63 152.51C233.7 226.61 236.59 301.15 233.16 375C224.19 402.52 196.74 410.59 172.92 394.38C150.07 378.84 129.1 357.16 106.24 341.23C84.9199 336.34 60.0899 347.22 42.5999 330.04C37.9299 325.46 31.9899 314.42 31.1799 307.99V308Z" fill="white"/>
<path d="M416.18 93C426.52 95.7 435.46 107.15 441.88 115.69C471.2 154.73 490.36 198.84 489.99 248V272C489.7 328.58 463.78 386.32 422.77 425.34L416.18 427H406.21C397.26 423.48 392.52 415.22 395.53 405.78C397.77 398.77 413.17 384.23 418.6 376.91C469.54 308.2 469.6 212.53 419.02 143.67C413.57 136.26 398.32 121.83 395.78 114.98C392.27 105.49 396.85 97.64 405.22 93.01H416.19L416.18 93Z" fill="white"/>
<path d="M348.1 153.23C359.28 151.43 367.12 161.8 373.26 169.53C410.47 216.29 415 282.31 384.68 333.92C380.23 341.5 367.66 359.37 360.66 363.84C344.52 374.16 327.04 356.23 336.93 341.05C341.01 334.79 348.93 328.32 353.75 320.92C378.11 283.54 377.5 234.94 352.97 197.87C348.73 191.47 335.7 179.14 334.62 173.27C332.88 163.75 338.38 154.79 348.09 153.23H348.1Z" fill="white"/>
<path d="M290.17 213.38C307.25 213.03 318.57 241.13 319.48 255.46C320.46 270.96 314.02 293.52 300.98 303C291.01 310.25 275.55 305.71 274.5 292.56C273.16 275.63 292.66 273.22 285 251.03C282.82 244.7 276.75 241.16 275.22 235.84C271.96 224.51 278.02 213.64 290.17 213.39V213.38Z" fill="white"/>
</g>
<defs>
<clipPath id="clip0_405_152">
<rect width="460" height="334" fill="white" transform="translate(30 93)"/>
</clipPath>
</defs>
</svg>
