<svg width="520" height="520" viewBox="0 0 520 520" fill="none" xmlns="http://www.w3.org/2000/svg">
<path d="M264 46C274.17 49.1 282.12 57.3 282.04 68.46V452.54C281.62 463.26 273.82 470.99 264 474H256C250.8 472.19 246.56 469.76 242.47 466.03L143.98 367.52C119.01 363.56 84.26 374.44 63.09 358.41C53.39 351.07 48.32 340.76 46 329V191C55.41 140.03 106.34 155.66 143.98 152.48L242.47 53.97C246.55 50.24 250.79 47.81 256 46H264ZM238 398V122L164.35 193.85C163.63 194.25 159.76 196 159.5 196H90V324H159.5C159.77 324 163.64 325.74 164.35 326.15L238 398Z" fill="white"/>
<path d="M329.79 187.2C333.58 186.86 337.42 188.94 340.5 191L385.64 235.92L432.66 190.15C447.53 180.3 465.88 199.22 455.43 213.92L410.07 259.62L455.84 306.65C465.49 321.82 446.8 339.77 432.07 329.42L386.37 284.06L339.34 329.83C324.28 339.55 306.01 320.6 316.57 306.06L361.93 260.36L317.48 215.02C307.77 204.64 316.76 188.36 329.79 187.2Z" fill="white"/>
</svg>
