<svg width="520" height="520" viewBox="0 0 520 520" fill="none" xmlns="http://www.w3.org/2000/svg">
<g clip-path="url(#clip0_405_146)">
<path d="M198.636 40C208.594 43.4764 217.341 51.2832 218.647 62.2265L218.664 201.624C217.516 212.253 207.14 222.752 196.452 223.824L57.1954 223.842C46.3676 222.247 38.3337 213.952 35.0088 203.793V190.724C36.619 183.414 47.856 170.684 55.4633 170.684H165.57V60.4752C165.57 60.1354 167.615 55.0297 168.024 54.2194C171.375 47.5105 178.591 42.3176 185.589 40H198.645H198.636Z" fill="white"/>
<path d="M334.42 40C341.722 41.6119 354.439 52.8602 354.439 60.4752V170.693H464.545C464.885 170.693 469.985 172.741 470.795 173.15C477.497 176.505 482.685 183.728 485 190.733V203.802C481.527 213.77 473.728 222.526 462.796 223.833L323.54 223.85C312.921 222.7 302.432 212.314 301.362 201.615L301.344 62.2178C302.937 51.379 311.223 43.337 321.372 40.0087H334.428L334.42 40Z" fill="white"/>
<path d="M198.636 480H185.58C178.278 478.388 165.561 467.14 165.561 459.525V349.307H55.4545C55.1151 349.307 50.0145 347.259 49.205 346.85C42.5029 343.495 37.3153 336.272 35 329.267V316.198C38.4729 306.23 46.2718 297.474 57.2041 296.167L196.46 296.15C207.079 297.3 217.568 307.686 218.638 318.385L218.656 457.782C217.063 468.621 208.777 476.663 198.628 479.991L198.636 480Z" fill="white"/>
<path d="M485 316.198V329.267C483.39 336.577 472.153 349.307 464.545 349.307H354.439V459.525C354.439 459.865 352.393 464.97 351.984 465.781C348.633 472.49 341.418 477.682 334.42 480H321.364C311.406 476.524 302.658 468.717 301.353 457.773L301.335 318.376C302.484 307.747 312.86 297.248 323.548 296.176L462.805 296.158C473.632 297.753 481.666 306.048 484.991 316.207L485 316.198Z" fill="white"/>
</g>
<defs>
<clipPath id="clip0_405_146">
<rect width="450" height="440" fill="white" transform="translate(35 40)"/>
</clipPath>
</defs>
</svg>
