<svg width="520" height="520" viewBox="0 0 520 520" fill="none" xmlns="http://www.w3.org/2000/svg">
<g clip-path="url(#clip0_408_10)">
<path d="M293.917 59.9999C295.521 61.3749 298.042 60.6249 300.198 61.1249C309.281 63.2499 317.719 70.4062 321.344 78.9687C327.531 93.5624 322.802 115.479 338.583 124.114C361.021 136.406 380.479 104.812 406.437 120.969C411.01 123.812 413.719 127.417 416.656 131.812C426.698 146.854 441.771 172.479 449.479 188.677C453.906 197.969 455.052 205.594 451.229 215.417C444.875 231.729 419.354 238.979 417.177 255.448C413.812 280.833 442.937 284.146 451.021 303.364C455.198 313.292 453.99 321.208 449.49 330.667C441.781 346.854 426.948 371.948 416.958 387.052C410.74 396.448 402.896 402.854 391.021 403.229C375.646 403.708 361.167 390.052 345.948 392.458C313.469 397.594 337.948 449.833 300.188 458.229C298.042 458.708 295.51 458.01 293.906 459.354C272.323 457.885 248.125 461.323 226.854 459.354C212.573 458.031 201.375 449.052 197.604 435.177C193.885 421.469 196.552 403.104 182.177 395.229C159.781 382.969 140.188 414.479 114.323 398.375C109.75 395.531 107.042 391.927 104.104 387.531C94.0625 372.489 78.9896 346.864 71.2813 330.667C66.7813 321.208 65.5729 313.292 69.75 303.364C76.3854 287.583 101.438 280.125 103.594 263.896C106.958 238.51 77.8333 235.187 69.75 215.979C65.5729 206.052 66.7813 198.125 71.2813 188.677C78.9896 172.489 93.8229 147.396 103.813 132.292C106.854 127.698 109.552 123.937 114.323 120.969C140.281 104.802 159.74 136.396 182.177 124.114C196.552 116.239 193.885 97.8853 197.604 84.1666C201.385 70.2395 212.51 61.3228 226.854 59.9895H293.906L293.917 59.9999ZM293.917 91.1978H226.854C224.969 117.25 217.99 141.656 192.292 152.958C169.229 163.104 151.896 154.562 130.198 146.594L98.1979 203.208L98.3438 204.948C114.927 217.125 131.365 230.469 133.854 252.489C137.156 281.771 120.417 298.927 98.3438 314.417L98.1146 315.437L130.198 372.771C153.427 363.937 173.135 355.25 196.969 368.75C219.573 381.552 224.833 403.844 226.854 428.167H293.917C295.844 401.948 302.729 377.875 328.479 366.406C351.49 356.156 368.896 364.854 390.573 372.771L422.573 316.156L422.427 314.417C405.844 302.125 389.417 289 386.917 266.875C383.604 237.5 400.375 220.531 422.427 204.948L422.656 203.927L390.573 146.594C367.458 155.448 347.51 164.031 323.802 150.614C301.208 137.823 295.927 115.51 293.917 91.1978Z" fill="white"/>
<path d="M252.438 183.479C314.406 177.958 357.75 242.958 326.802 297.656C297.646 349.167 222.51 348.844 193.708 297.146C167.156 249.489 198.073 188.323 252.438 183.479ZM253.979 213.885C196.74 220.458 203.604 311.958 266.146 305.614C324.177 299.729 317.427 206.594 253.979 213.885Z" fill="white"/>
</g>
<defs>
<clipPath id="clip0_408_10">
<rect width="400" height="400" fill="white" transform="translate(60 60)"/>
</clipPath>
</defs>
</svg>
