<svg width="520" height="520" viewBox="0 0 520 520" fill="none" xmlns="http://www.w3.org/2000/svg">
<g clip-path="url(#clip0_405_177)">
<path d="M264 46C274.17 49.1 282.12 57.3 282.04 68.46V452.54C281.62 463.26 273.82 470.99 264 474H256C250.8 472.19 246.56 469.76 242.47 466.03L143.98 367.52C119.01 363.56 84.26 374.44 63.09 358.41C53.39 351.07 48.32 340.76 46 329V191C55.41 140.03 106.35 155.67 143.98 152.48L242.47 53.97C246.55 50.24 250.79 47.81 256 46H264ZM238 398V122L164.35 193.85C163.63 194.25 159.76 196 159.5 196H90V324H159.5C159.77 324 163.64 325.74 164.35 326.15L238 398Z" fill="white"/>
<path d="M474 248V272C471.35 316.49 446.85 381.84 411.52 411.02C393.72 425.72 369.81 412.57 374.44 389.94C375.95 382.57 381.33 380.09 385.51 375.01C440.47 308.33 447.85 221.79 391.97 152.52C386.38 145.59 375.29 137.22 374.09 128.41C371.62 110.29 387.97 97.6702 404.99 104.5C413.33 107.85 429.15 128.72 434.81 136.68C457.51 168.61 471.68 208.99 474 247.99V248Z" fill="white"/>
<path d="M319.36 350.64C316.95 348.22 315.07 344.54 314.28 341.22C310.19 324.06 324.71 316.82 332.42 303.92C350.02 274.49 348.85 239.41 329.22 211.28C322.56 201.74 313.2 196.97 313.59 183.86C314.01 169.96 325.87 161.24 339.41 163.09C350.64 164.62 364.8 184.63 370.41 194.08C395.12 235.64 394.18 288.11 368.41 328.92C358.57 344.51 338.84 370.26 319.35 350.65L319.36 350.64Z" fill="white"/>
</g>
<defs>
<clipPath id="clip0_405_177">
<rect width="428" height="428" fill="white" transform="translate(46 46)"/>
</clipPath>
</defs>
</svg>
