<svg width="520" height="520" viewBox="0 0 520 520" fill="none" xmlns="http://www.w3.org/2000/svg">
<g clip-path="url(#clip0_405_136)">
<path d="M278.09 89L305.09 93.49C324 97.79 342.96 104.35 360.08 113.48C363.19 115.14 371.92 119.63 374.01 121.54C374.91 122.36 375.36 122.54 375.05 123.98L335.57 149.65C279.85 121.82 212.87 126.69 161.84 162.18C90.2798 211.95 67.3898 310.11 111.6 386.07L406.04 386.5C430.76 346.12 435.49 294.46 421.05 249.47C418.32 240.97 414 233.14 411.28 224.65L437.04 185C438.26 184.82 438.33 184.64 439.09 185.62C441.99 189.34 447.03 199.46 449.4 204.12C457.55 220.16 463.62 237.26 467.7 254.81L473.01 291V312C473.06 338.37 467.57 362.73 457.37 387.25C449.27 406.73 437.79 429.28 414.03 430H104.18C81.3598 429.4 70.7498 409.03 62.5898 390.34C52.3098 366.79 46.5098 343.16 46.2098 318C46.6898 307.83 45.5598 297.1 46.2098 287C45.7898 235.89 71.6898 186.09 107.12 150.31C142 115.11 190.77 88.85 241.11 89H278.09Z" fill="white"/>
<path d="M410.02 150C410.31 151.89 408.88 153.06 408.03 154.5C372.46 214.92 326.07 272.58 289.1 332.52C247.83 369.76 191.82 315.38 227.07 272.46L410.01 150H410.02Z" fill="white"/>
</g>
<defs>
<clipPath id="clip0_405_136">
<rect width="427" height="341" fill="white" transform="translate(46 89)"/>
</clipPath>
</defs>
</svg>
