<svg width="520" height="520" viewBox="0 0 520 520" fill="none" xmlns="http://www.w3.org/2000/svg">
<g clip-path="url(#clip0_405_148)">
<path d="M395 57.0101C421.15 57.7701 441.89 80.0501 442 105.93V414.41C441.71 439.34 420.18 462.02 395 462.33C377.04 460.76 355.52 464.43 338 462.33C313.68 462.58 293.94 439.91 290.26 417.08L289.95 107.62C290.71 82.7701 311.98 56.8101 338 57.0101H395Z" fill="white"/>
<path d="M182 57.01C206.96 57.56 226.65 79.47 229.86 103.37L230.04 411.71C229.17 437.27 208.32 461.68 182 462.32C164.03 460.76 142.54 464.41 125 462.32C104.36 464.22 78.3699 439.51 78.2199 419.55C77.4599 312.94 77.2599 206.4 78.2199 99.78C78.4199 78.48 104.41 56.36 125 57.01H182Z" fill="white"/>
</g>
<defs>
<clipPath id="clip0_405_148">
<rect width="365" height="406" fill="white" transform="translate(77 57)"/>
</clipPath>
</defs>
</svg>
