<svg width="520" height="520" viewBox="0 0 520 520" fill="none" xmlns="http://www.w3.org/2000/svg">
<g clip-path="url(#clip0_405_164)">
<path d="M430.058 43C458.366 48.4816 479.628 69.6152 485 97.9036V329.719C479.419 358.617 456.718 381.407 427.041 384.657L251.898 384.805L144.927 467.021C137.785 471.135 127.023 469.392 121.355 463.501C120.535 462.647 116.113 455.3 116.113 454.795V384.64H90.3867C87.064 384.64 74.846 380.108 71.3227 378.418C52.0408 369.171 39.1512 350.452 35.0088 329.736V97.9036C39.3693 71.6806 63.0902 46.2158 89.9419 43H430.058ZM155.349 408.153L233.026 348.517C238.503 345.04 244.477 343.724 250.808 345.449C305.34 342.329 364.302 349.475 418.32 345.449C434.881 344.212 444.552 334.529 445.791 317.997V110.497C445.363 94.3392 435.273 83.5764 419.148 82.2256L101.689 82.182C89.5146 82.6003 79.2065 89.6768 75.5262 101.355C73.4158 176.015 73.4158 251.599 75.5262 326.276C85.3111 355.968 119.706 341.196 141.456 345.798C146.366 346.835 155.358 354.67 155.358 359.794V408.161L155.349 408.153Z" fill="white"/>
<path d="M251.924 207.92L411.229 207.789C432.5 212.434 431.767 243.355 410.436 246.928L252.665 246.849C232.162 242.396 231.848 213.166 251.924 207.92Z" fill="white"/>
<path d="M219.657 273.281H316.913C337.128 278.554 336.544 307.792 316.172 312.22L219.657 312.089C199.748 306.895 199.966 278.397 219.657 273.29V273.281Z" fill="white"/>
<path d="M106.285 207.92H194.82C215.035 213.192 214.451 242.431 194.078 246.858L106.285 246.727C86.375 241.533 86.593 213.036 106.285 207.929V207.92Z" fill="white"/>
<path d="M106.285 273.281C114.404 271.922 138.404 272.262 147.099 273.037C169.939 275.068 169.285 309.413 148.73 312.211C140 313.396 117.744 313.135 108.657 312.324C86.0612 310.311 86.506 276.584 106.285 273.281Z" fill="white"/>
<path d="M372.273 273.281C379.8 272.026 401.558 272.323 409.599 273.037C432.439 275.068 431.785 309.413 411.23 312.211C403.206 313.3 382.991 313.065 374.645 312.324C352.05 310.311 352.494 276.584 372.273 273.281Z" fill="white"/>
</g>
<defs>
<clipPath id="clip0_405_164">
<rect width="450" height="434" fill="white" transform="translate(35 43)"/>
</clipPath>
</defs>
</svg>
