<svg width="512" height="512" viewBox="0 0 512 512" fill="none" xmlns="http://www.w3.org/2000/svg">
<path d="M338.633 6.04231C348.217 5.51456 355.732 9.98986 362.761 15.7951C374.71 25.6745 403.271 53.7506 412.496 65.6988C421.721 77.647 422.967 92.7405 413.277 105.428L263.925 255.118L265.17 257.862L413.277 405.863C420.729 415.067 421.932 427.986 417.098 438.647C413.805 445.909 369.474 490.493 361.22 496.868C346.591 508.204 331.814 507.972 317.903 495.496L99.9224 277.325C88.0165 262.569 87.8054 247.56 100.619 233.206L318.642 15.0773C324.215 10.4754 331.223 6.4434 338.591 6.0212L338.633 6.04231Z" fill="#FDFDFD"/>
</svg>
