<svg width="512" height="512" viewBox="0 0 512 512" fill="none" xmlns="http://www.w3.org/2000/svg">
<path d="M299.5 64H308.5L312.25 64.5L317.75 65.75L321.75 67.25L327.25 69.75L331 72.25L335 75.25L337.5 77.25L341 80.5L343 82.25L346 85L348 86.75L351 89.5L353 91.25L356 94L358 95.75L361 98.5L363 100.25L366 103L368 104.75L371 107.5L373 109.25L376 112L378.5 114.25L380.5 116L383.5 118.75L385.5 120.5L388.5 123.25L390.5 125L393.5 127.75L395.5 129.5L398.5 132.25L400.5 134L403.5 136.75L405.5 138.5L408.5 141.25L410.5 143L413.5 145.75L415.5 147.5L418.5 150.25L420.5 152L423.5 154.75L425.5 156.5L428.5 159.25L430.5 161L433.5 163.75L435.5 165.5L438.5 168.25L440.5 170L443.5 172.75L445.5 174.5L448.5 177.25L450.5 179L453.75 182L455.75 183.75L458.75 186.5L460.75 188.25L463.75 191L465.75 192.75L468.75 195.5L470.75 197.25L473.75 200L475.75 201.75L478.75 204.5L480.75 206.25L483.75 209L486.25 211.25L488.25 213L491.25 215.75L493.25 217.5L496.5 220.5L500.5 224.5L503.25 228L506.25 232.75L508.5 237.5L510.75 244.25L511.5 247.5H512V264L511.5 264.25L510.5 268.5L508.5 274.5L506.25 279.25L503.75 283.25L501.25 286.5L498.5 289.5L494.5 293.5H494V294L492 295.75L489.5 298L487.5 299.75L484.5 302.5L482.5 304.25L479.5 307L477.5 308.75L474.5 311.5L472.5 313.25L469.5 316L467.5 317.75L464.5 320.5L462.5 322.25L459.5 325L457.5 326.75L454.75 329.25L452.75 331L449.5 334L447.5 335.75L444.75 338.25L442.75 340L439.5 343L437.5 344.75L434.75 347.25L432.75 349L429.5 352L427.5 353.75L424.75 356.25L422.75 358L419.75 360.75L414.75 365.25L412.75 367L409.75 369.75L407.25 372L405.25 373.75L402.25 376.5L400.25 378.25L397.25 381L395.25 382.75L392.25 385.5L390.25 387.25L387.25 390L385.25 391.75L382.25 394.5L380.25 396.25L377.25 399L375.25 400.75L372.25 403.5L370.25 405.25L367.25 408L365.25 409.75L362.25 412.5L360.25 414.25L357.25 417L355.25 418.75L352.25 421.5L350.25 423.25L347.25 426L345.25 427.75L342.25 430.5L340.25 432.25L337.25 435L333 438.25L328.75 441.25L322.75 444.25L319.5 445.5L312.75 447.25L306 448H300L294.5 447.25L289 445.75L285 444.25L281 442.25L277.5 440.25L273.5 437.25L270.5 434.5L268 432L264.25 427L262 423.5L259 417.25L257.75 413.5L256.25 407L256 404.75L255.75 398L256.5 392.25L257.5 387.25L260 380.25L262.25 376L265.5 371L268.5 367.75L270.75 365.25L271 364.75H271.5V364.25H272V363.75L274 362L277 359.25L282 354.75L284 353L286.5 350.75L289.5 348L292 345.75L294 344L296.5 341.75L299.5 339L302 336.75L304 335L306.5 332.75L309.5 330L312 327.75L314 326L316.5 323.75L319.5 321L321.5 319.25L324 317L326 315.25L329 312.5L331.5 310.25L334.25 307.75L337 305.5L338.25 304.25L47 304L39 303.25L34.25 302L29 300.25L23.75 297.5L20.25 295.25L17.5 293L14 290L11.25 287L8 282.75L6 279.25L3.5 274.5L1 266.75L0 261.75V250L0.5 248.25L1.25 244.5L3.25 238L5.25 234L8 229L10.5 225.75H11L11.5 224.75L14.5 221.25L17.25 219L21 216L27.25 212.5L30 211.25L36.25 209.25L40.25 208.5L44.75 208L49.5 207.75L338 207.5L334.25 204L331.25 201.25L329.25 199.5L326.75 197.25L323.75 194.5L321.25 192.25L319.25 190.5L316.75 188.25L313.75 185.5L311.25 183.25L309.25 181.5L306.75 179.25L303.75 176.5L301.25 174.25L299.25 172.5L296.75 170.25L293.5 167.25L291.5 165.5L289 163.25L287 161.5L283.5 158.25L281.5 156.5L279 154.25L277 152.5L273.25 149L272.5 148.5V148L271.5 147.5L268.5 144.25L265.75 141.25L263.25 137.5L260.25 132.25L257.75 125.5L256.75 121.25L256 116.25V108L256.5 104L258.5 96L261.25 90L262.75 87L266.25 82.25L269 78.75L272 75.75L276.25 72.5L282.5 68.75L287.5 66.75L292 65.25L299.5 64Z" fill="#505050"/>
</svg>
