<svg width="512" height="512" viewBox="0 0 512 512" fill="none" xmlns="http://www.w3.org/2000/svg">
<path d="M212.5 448H203.5L199.75 447.5L194.25 446.25L190.25 444.75L184.75 442.25L181 439.75L177 436.75L174.5 434.75L171 431.5L169 429.75L166 427L164 425.25L161 422.5L159 420.75L156 418L154 416.25L151 413.5L149 411.75L146 409L144 407.25L141 404.5L139 402.75L136 400L133.5 397.75L131.5 396L128.5 393.25L126.5 391.5L123.5 388.75L121.5 387L118.5 384.25L116.5 382.5L113.5 379.75L111.5 378L108.5 375.25L106.5 373.5L103.5 370.75L101.5 369L98.5 366.25L96.5 364.5L93.5 361.75L91.5 360L88.5 357.25L86.5 355.5L83.5 352.75L81.5 351L78.5 348.25L76.5 346.5L73.5 343.75L71.5 342L68.5 339.25L66.5 337.5L63.5 334.75L61.5 333L58.25 330L56.25 328.25L53.25 325.5L51.25 323.75L48.25 321L46.25 319.25L43.25 316.5L41.25 314.75L38.25 312L36.25 310.25L33.25 307.5L31.25 305.75L28.25 303L25.75 300.75L23.75 299L20.75 296.25L18.75 294.5L15.5 291.5L11.5 287.5L8.75 284L5.75 279.25L3.5 274.5L1.25 267.75L0.5 264.5H0V248L0.5 247.75L1.5 243.5L3.5 237.5L5.75 232.75L8.25 228.75L10.75 225.5L13.5 222.5L17.5 218.5H18V218L20 216.25L22.5 214L24.5 212.25L27.5 209.5L29.5 207.75L32.5 205L34.5 203.25L37.5 200.5L39.5 198.75L42.5 196L44.5 194.25L47.5 191.5L49.5 189.75L52.5 187L54.5 185.25L57.25 182.75L59.25 181L62.5 178L64.5 176.25L67.25 173.75L69.25 172L72.5 169L74.5 167.25L77.25 164.75L79.25 163L82.5 160L84.5 158.25L87.25 155.75L89.25 154L92.25 151.25L97.25 146.75L99.25 145L102.25 142.25L104.75 140L106.75 138.25L109.75 135.5L111.75 133.75L114.75 131L116.75 129.25L119.75 126.5L121.75 124.75L124.75 122L126.75 120.25L129.75 117.5L131.75 115.75L134.75 113L136.75 111.25L139.75 108.5L141.75 106.75L144.75 104L146.75 102.25L149.75 99.5L151.75 97.75L154.75 95L156.75 93.25L159.75 90.5L161.75 88.75L164.75 86L166.75 84.25L169.75 81.5L171.75 79.75L174.75 77L179 73.75L183.25 70.75L189.25 67.75L192.5 66.5L199.25 64.75L206 64H212L217.5 64.75L223 66.25L227 67.75L231 69.75L234.5 71.75L238.5 74.75L241.5 77.5L244 80L247.75 85L250 88.5L253 94.75L254.25 98.5L255.75 105L256 107.25L256.25 114L255.5 119.75L254.5 124.75L252 131.75L249.75 136L246.5 141L243.5 144.25L241.25 146.75L241 147.25H240.5V147.75H240V148.25L238 150L235 152.75L230 157.25L228 159L225.5 161.25L222.5 164L220 166.25L218 168L215.5 170.25L212.5 173L210 175.25L208 177L205.5 179.25L202.5 182L200 184.25L198 186L195.5 188.25L192.5 191L190.5 192.75L188 195L186 196.75L183 199.5L180.5 201.75L177.75 204.25L175 206.5L173.75 207.75L465 208L473 208.75L477.75 210L483 211.75L488.25 214.5L491.75 216.75L494.5 219L498 222L500.75 225L504 229.25L506 232.75L508.5 237.5L511 245.25L512 250.25V262L511.5 263.75L510.75 267.5L508.75 274L506.75 278L504 283L501.5 286.25H501L500.5 287.25L497.5 290.75L494.75 293L491 296L484.75 299.5L482 300.75L475.75 302.75L471.75 303.5L467.25 304L462.5 304.25L174 304.5L177.75 308L180.75 310.75L182.75 312.5L185.25 314.75L188.25 317.5L190.75 319.75L192.75 321.5L195.25 323.75L198.25 326.5L200.75 328.75L202.75 330.5L205.25 332.75L208.25 335.5L210.75 337.75L212.75 339.5L215.25 341.75L218.5 344.75L220.5 346.5L223 348.75L225 350.5L228.5 353.75L230.5 355.5L233 357.75L235 359.5L238.75 363L239.5 363.5V364L240.5 364.5L243.5 367.75L246.25 370.75L248.75 374.5L251.75 379.75L254.25 386.5L255.25 390.75L256 395.75V404L255.5 408L253.5 416L250.75 422L249.25 425L245.75 429.75L243 433.25L240 436.25L235.75 439.5L229.5 443.25L224.5 445.25L220 446.75L212.5 448Z" fill="white"/>
</svg>
