<svg width="512" height="512" viewBox="0 0 512 512" fill="none" xmlns="http://www.w3.org/2000/svg">
<path d="M85.75 472.25H89L92.5 471.75L95.75 470.75L99.75 468.75L102.5 466.75L105 464.5L153.25 416.25L155.75 413L157.75 409L158.75 406L159.25 403.5V396.5L158.25 392.25L156 387.5L153 383.5L150.25 381L146.75 378.75L143.25 377.25L139.5 376.25L137.75 376H132L128.5 376.75L125.25 378L122 379.75L119.5 381.75L115.75 385.25L111.75 389.25L111.5 381.25V107.25L111.25 93L110.5 89.25L109 85.5L107.5 82.75L105.5 80.25L103.5 78L99.75 75.25L96 73.5L91.5 72.25L89.75 72H84L79.75 73L76.75 74.25L74 75.75L71.5 77.75L68.25 81L66 84.5L64.75 87L63.75 90L63.25 92.75L63 95.75L62.75 389.25L55.75 382.25L52.75 380L49.25 378L44.75 376.5L42 376H36L32.5 376.75L29.25 378L26 379.75L23.5 381.75L20.25 385L18 388.5L16.75 391L15.5 395L15 398.5V401.25L15.5 405L16.75 409L18.75 413L21.25 416.25L24.5 419.5L25.75 421L27.75 422.75L64.5 459.5L65.75 461L67.5 462.5L68.75 464L72.75 467.5L75.5 469.25L78.5 470.75L81.75 471.75L85.75 472.25Z" fill="white"/>
<path d="M207.5 440.25H464.5L469.25 439.75L473.75 438.25L477.75 436L481 433.25L483.25 430.75L485 428L486.5 425L487.75 421L488 419.5V412.75L487 408.5L485.75 405.5L484.25 402.75L482.25 400.25L480.25 398L476.5 395.25L472.75 393.5L468 392.25L466 392H205.75L202.25 392.5L198.5 393.75L194.75 395.75L192.25 397.75L189 401L186.75 404.5L185.5 407L184.25 411L183.75 414.75V417L184.25 421L185.5 425L187.5 429L190 432.25L192.5 434.75L195.75 437L199.5 438.75L202.75 439.75L207.5 440.25Z" fill="white"/>
<path d="M207.5 328.25H400.5L405.25 327.75L409.75 326.25L413.75 324L417 321.25L419.25 318.75L421 316L422.5 313L423.75 309L424 307.5V300.75L423 296.5L421.75 293.5L420.25 290.75L418.25 288.25L416.25 286L412.5 283.25L408.75 281.5L404 280.25L402 280H205.75L202.25 280.5L198.5 281.75L194.75 283.75L192.25 285.75L189 289L186.75 292.5L185.5 295L184.25 299L183.75 302.5V305.25L184.25 309L185.5 313L187.5 317L190 320.25L192.5 322.75L195.75 325L199.5 326.75L202.75 327.75L207.5 328.25Z" fill="white"/>
<path d="M207.75 232.25H336.75L341.5 231.75L346 230.25L350 228L353.25 225.25L355.5 222.75L357.25 220L358.75 217L360 213L360.25 211.5V204.75L359.25 200.5L358 197.5L356.5 194.75L354.5 192.25L352.5 190L348.75 187.25L345 185.5L340.25 184.25L338.25 184H206L202.5 184.5L198.75 185.75L195 187.75L192.5 189.75L189.25 193L187 196.5L185.75 199L184.5 203L184 206.5V209.25L184.5 213L185.75 217L187.75 221L190.25 224.25L192.75 226.75L196 229L199.75 230.75L203 231.75L207.75 232.25Z" fill="white"/>
<path d="M207.75 120.25H272.75L277.5 119.75L282 118.25L286 116L289.25 113.25L291.5 110.75L293.25 108L294.75 105L296 101L296.25 99.5V92.75L295.25 88.5L294 85.5L292.5 82.75L290.5 80.25L288.5 78L284.75 75.25L281 73.5L276.25 72.25L274.25 72H206L202.5 72.5L198.75 73.75L195 75.75L192.5 77.75L189.25 81L187 84.5L185.75 87L184.5 91L184 94.5V97L184.5 101L185.75 105L187.75 109L190.25 112.25L192.75 114.75L196 117L199.75 118.75L203 119.75L207.75 120.25Z" fill="white"/>
</svg>
