<svg width="145" height="145" viewBox="0 0 145 145" fill="none" xmlns="http://www.w3.org/2000/svg">
<path d="M30.0908 56.1484L30.5864 56.2192L33.4185 56.9272L39.0825 58.4141L43.6138 59.6177L46.6582 60.3965L50.1274 61.3169L54.3755 62.4497L57.4199 63.2285L62.3052 64.5029L65.7744 65.4233L69.3145 66.3438L81.1382 69.459L83.333 70.0254L83.687 70.2378V134.525L83.1914 134.454L81.1382 133.888L75.7573 132.472L55.8623 127.232L37.5957 122.418L34.1973 121.498L31.1528 120.719L29.8076 120.365L29.7368 120.294L29.666 115.904L29.7368 115.338L59.4731 115.125L60.252 114.984L60.8184 114.701L61.5264 114.063L62.022 113.072L62.1636 112.364V111.515L61.8804 110.453L61.4556 109.745L60.96 109.249L60.252 108.895L59.4731 108.753H15.5767L13.9482 108.683L13.0986 108.399L12.4614 107.904L11.895 107.267L11.4702 106.488L11.2578 105.638V104.435L11.4702 103.585L11.9658 102.594L12.3198 102.169L13.0986 101.603L13.8066 101.319L14.9395 101.249H48.5698L49.6318 101.178L50.4814 100.824L51.0479 100.328L51.6143 99.3369L51.8267 98.2749L51.7559 97.3545L51.5435 96.6465L51.1187 95.8677L50.623 95.3721L49.915 95.0181L49.1362 94.8765L7.22217 94.8057L6.37256 94.5225L5.80615 94.0977L5.23975 93.5312L4.81494 92.8232L4.53174 91.9028L4.46094 90.9824L4.60254 90.062L4.95654 89.1416L5.38135 88.5044L5.87695 88.0088L6.58496 87.584L7.00977 87.4424L9.41699 87.3716H43.9678L45.2422 87.3008L46.021 87.0176L46.5874 86.5928L47.083 85.9556L47.437 85.0352L47.5078 84.6104V83.7607L47.2954 82.9111L46.8706 82.0615L46.5166 81.6367L45.8086 81.2119L45.4546 81.0703L44.959 80.9995L18.1255 80.9287L17.0635 80.7871L16.3555 80.4331L15.8599 80.0083L15.3643 79.3003L15.0103 78.4507L14.8687 77.6719L14.9395 76.7515L15.2227 75.8311L15.6475 75.123L15.8599 74.8398H16.0015V74.6982L16.7803 74.2026L17.4175 73.9902H34.9053L50.4106 73.9194L51.1895 73.707L51.8975 73.2822L52.3223 72.7866L52.7471 71.937L52.8887 71.3706V70.167L52.6055 69.2466L52.1807 68.5386L52.0391 68.2554L51.7559 68.1138L51.1895 67.7598L50.6938 67.6182H45.1006L33.2061 67.7598H30.2324L30.1616 67.689L30.0908 64.0073V56.1484Z" fill="#FFD301"/>
<path d="M140.256 55.8594H140.468L140.539 60.6738V120.146L140.327 120.359L134.733 121.846L117.954 126.306L112.573 127.722L107.829 128.997L103.298 130.2L92.3237 133.103L86.9429 134.519H86.5181L86.4473 117.952V78.5864L86.5181 70.1611L88.0049 69.7363L95.7222 67.6831L105.068 65.2051L105.634 65.1343L105.705 94.729L105.988 95.437L106.342 95.7202L106.696 95.8618H107.404L108.042 95.5078L109.033 94.1626L112.714 89.0649L113.635 87.7197L113.989 87.7905L115.122 88.7109L115.9 89.3481L116.608 89.9146L117.529 90.6934L118.237 91.2598L119.157 91.9678L119.582 92.1802H120.361L120.927 91.8262L121.14 91.6138L121.281 91.1182L121.352 60.957L121.848 60.7446L124.326 60.1074L130.415 58.479L135.512 57.1338L139.548 56.0718L140.256 55.8594ZM109.67 113.42L107.758 113.916L101.245 115.757L96.2178 117.173L92.1821 118.306L91.5449 118.589L91.1909 118.943L90.9785 119.368L90.9077 121.846V126.589L90.9785 127.227L91.3325 127.793L91.6865 128.076L92.0405 128.218H92.6069L94.4478 127.722L103.51 125.173L106.555 124.324L110.024 123.333L110.732 122.979L111.015 122.625L111.157 122.271V114.482L110.944 114.058L110.59 113.704L110.236 113.491L109.67 113.42Z" fill="#FFD301"/>
<path d="M40.853 10.3359L42.5522 10.4067L44.3931 10.6899L45.8799 11.1147L47.3667 11.6812L48.9951 12.5308L49.7739 13.0264L50.6235 13.6636L51.5439 14.4424L52.1104 14.938L52.606 15.5044L53.2432 16.2124L54.1636 17.4868L55.0132 18.9736L55.6504 20.3896L56.146 21.9473L56.5 23.6465L56.6416 24.9209V27.1157L56.5 28.3901L56.146 30.0894L55.5088 32.001L54.8008 33.4878L54.022 34.7622L53.1724 35.895L52.5352 36.603L52.0396 37.1694L51.1191 38.019L49.7739 39.0103L48.7119 39.6475L47.6499 40.2139L46.2339 40.7803L44.8179 41.2051L42.9771 41.5591L42.1982 41.6299H39.6494L38.0918 41.4175L36.3926 40.9927L35.0474 40.4971L33.6313 39.8599L32.1445 38.9395L31.2241 38.2314L30.5161 37.5942L29.6665 36.8154L29.0293 36.1074L28.2505 35.1162L27.5425 34.0542L26.6221 32.2842L25.9849 30.5142L25.5601 28.7441L25.3477 26.9741V25.1333L25.5601 23.2925L25.9849 21.5225L26.4805 20.1064L27.3301 18.3364L28.1797 16.9912L28.9585 16L29.7373 15.1504L30.7285 14.1592L31.6489 13.4512L32.7817 12.6724L33.9146 12.0352L35.2598 11.3979L36.8174 10.9023L38.375 10.5483L39.437 10.4067L40.853 10.3359ZM48.7119 17.9824L48.0039 18.2656L47.2251 18.9028L46.7295 19.3984V19.54L46.4463 19.6816V19.8232L46.1631 19.9648L45.6675 20.5312L41.1362 25.0625V25.2041L40.853 25.3457V25.4873L40.5698 25.6289V25.7705L40.3574 25.8413L39.8618 26.4077L38.8706 27.3989H38.6582L38.5166 27.1157L37.7378 26.3369L37.2422 25.7705L36.0386 24.5669L35.543 24.0005L34.3394 22.7969L33.3481 22.3013L32.7109 22.2305L31.7197 22.3721L31.0117 22.7969L30.6577 23.0801L30.1621 23.8589L29.9497 24.6377V25.3457L30.1621 26.0537L30.5869 26.7617L31.2241 27.3989L31.7197 27.9653L32.6401 28.8857L32.7109 29.0273H32.8525L32.9941 29.3105L33.9146 30.231L34.4102 30.7974L35.3306 31.7178L35.8262 32.2842L37.1006 33.5586L37.9502 33.9834L38.2334 34.0542H39.2954L39.9326 33.8418L40.6406 33.3462L43.8975 30.0894V29.9478L44.1807 29.8062V29.6646L44.4639 29.5229V29.3813H44.6055V29.2397H44.7471V29.0981H44.8887L45.3843 28.5317L49.9863 23.9297V23.7881L50.2695 23.6465V23.5049L50.5527 23.3633L51.0483 22.7969L51.5439 22.3013L51.9688 21.4517L52.0396 21.1685V20.1772L51.7563 19.3276L51.2607 18.6904L50.6943 18.2656L49.9863 17.9824H48.7119Z" fill="#FFD301"/>
<path d="M66.1982 45.4531H66.6938L69.5259 46.3027L75.1191 48.002L89.8457 52.4624L91.8989 53.0996L96.0762 54.374L99.1914 55.2944L101.174 55.9316L104.785 56.9937L106.838 57.6309L108.962 58.2681L111.015 58.9053L114.06 59.8257L117.316 60.8169L118.449 61.1709L118.591 61.3833V87.792L118.308 87.7212L115.971 85.8096L115.051 85.0308L114.13 84.3936L113.776 84.252H113.21L112.644 84.5352L112.148 85.1016L111.157 86.5176L110.236 87.792L109.245 89.1372L108.679 89.9868L108.466 90.0576L108.396 63.5781L108.183 62.9409L107.688 62.5161L105.634 61.8789L102.236 60.8877L84.8188 55.79L81.4912 54.7988L78.3052 53.8784L64.0742 49.7012L59.2598 48.2852L57.8438 47.8604V47.6479L59.6138 47.2231L64.6406 45.8779L66.1982 45.4531Z" fill="#FFD301"/>
<path d="M52.2505 49.2031L52.8877 49.2739L58.9766 51.0439L60.605 51.5396L64.499 52.6724L83.1196 58.124L84.748 58.6196L92.2529 60.8145L93.8813 61.3101L96.0762 61.9473L99.1914 62.8677L100.607 63.2217L100.82 63.4341L100.253 63.6465L96.855 64.5669L93.8105 65.3457L85.3145 67.6113H84.8188L82.7656 67.0449L76.8892 65.4873L64.5698 62.2305L61.1006 61.3101L57.9854 60.4604L55.0117 59.6816L49.9141 58.3364L44.1084 56.7788L38.1611 55.2212L34.9751 54.3716L34.3379 54.23L34.4087 54.0176L36.4619 53.4512L45.3828 51.0439L50.1265 49.7695L52.2505 49.2031Z" fill="#FFD301"/>
<path d="M84.9619 40.4297L85.5991 40.5005L92.8208 42.4121L96.7856 43.4741L99.2637 44.1113L103.512 45.2441L109.601 46.8726L112.079 47.5098L127.018 51.4746L135.584 53.7402L136.222 53.9526L136.151 54.0942L133.602 54.8022L129.92 55.7935L119.725 58.4839L119.229 58.5547L116.043 57.5635L109.742 55.6519L103.441 53.7402L100.184 52.749L87.5815 48.9258L71.9346 44.1821L71.793 44.1113V43.9697L72.501 43.7573L77.5986 42.4121L81.9883 41.2085L84.9619 40.4297Z" fill="#FFD301"/>
<path d="M108.042 116.75L108.396 116.821V120.786L108.042 120.998L104.714 121.918L98.6963 123.618L94.165 124.892H93.7402V120.856L94.519 120.573L103.298 118.095L107.405 116.962L108.042 116.75Z" fill="#FFD301"/>
</svg>
