<svg width="229" height="229" viewBox="0 0 229 229" fill="none" xmlns="http://www.w3.org/2000/svg">
<path d="M62.0576 19.0078H163.028L164.929 19.2314L167.053 19.7905L168.73 20.5732L170.296 21.4678L171.861 22.6978L173.091 23.9277L174.433 25.7168L175.328 27.394L175.999 29.1831L176.446 31.1958L176.558 32.0903V52.3291L176.446 52.4409L171.302 52.8882L168.283 53.3354L165.376 54.0063L162.469 54.9009L159.338 56.1309L156.319 57.5845L153.859 59.0381L151.846 60.3799L150.504 61.3862L149.386 62.2808L147.821 63.6226L147.038 64.4053L146.144 65.188L143.684 67.8716L142.454 69.437L141.335 71.0024L140.217 72.6797L139.099 74.5806L137.869 76.9287L136.751 79.5005L135.745 82.2959L134.85 85.5386L134.179 89.0049L133.844 92.0239L133.732 94.1484V96.9438L133.956 99.9629L134.403 103.094L134.962 105.777L135.856 108.908L137.086 112.151L138.093 114.387L139.435 116.847L140.665 118.86L142.23 121.096L143.684 122.885L145.025 124.451L147.709 127.134L148.939 128.141L150.393 129.371L152.293 130.712L154.194 131.942L156.766 133.396L159.338 134.626L162.804 135.968L164.929 136.639L167.724 137.31L171.302 137.869L176.446 138.316L176.558 138.428V172.42L176.11 172.644L171.75 172.979H164.37L161.239 172.755L157.437 172.308L153.3 171.637L148.827 170.631L145.249 169.625L141.335 168.283L138.652 167.165L135.856 165.823L133.508 164.481L131.607 163.251L130.377 162.58L129.595 162.356H128.141L126.688 162.804L125.569 163.586L124.675 164.816L123.445 167.5L121.991 170.072L120.426 172.532L119.308 174.097L118.413 175.327L116.848 177.34L115.394 179.017L114.052 180.583L113.27 181.365L112.487 182.26L111.592 183.154L111.033 183.825L110.139 184.608L108.014 186.732H107.791V186.956L106.896 187.739L105.778 188.745L104.883 189.528L102.982 191.093L101.529 192.323L98.1743 194.895L96.1616 196.349L94.3726 197.579L92.0244 199.144L89.5645 200.709L87.1045 202.163L84.7563 203.505L81.6255 205.182L77.7119 207.083L74.1338 208.648L71.2266 209.767L70.2202 209.99H33.5444L31.6436 209.878L29.4072 209.431L27.5063 208.76L25.8291 207.866L24.5991 206.971L23.2573 205.741L22.251 204.735L21.1328 203.169L20.1265 201.269L19.4556 199.256L19.1201 197.69L19.0083 196.684L18.8965 192.547V69.7725L19.0083 62.0571L19.1201 61.9453L48.5278 61.8335L50.3169 61.6099L52.4414 61.0508L53.7832 60.4917L55.4604 59.5972L56.9141 58.479L58.0322 57.4727L59.1504 56.1309L60.0449 54.6772L60.8276 53.1118L61.3867 51.4346L61.7222 49.7573L61.834 48.4155V26.2759L61.9458 19.1196L62.0576 19.0078ZM80.5073 47.7446L79.501 47.9683L78.6064 48.4155L77.8237 48.9746V49.1982H77.6001L76.8174 50.4282L76.4819 51.4346L76.3701 52.8882L76.7056 54.23L77.3765 55.3481L77.9355 56.019L78.9419 56.6899L79.9482 57.0254L80.5073 57.1372H134.179L135.409 56.8018L136.416 56.2427L137.086 55.6836L137.869 54.4536L138.205 53.5591L138.316 52.2173L138.093 50.9873L137.422 49.6455L136.416 48.6392L134.85 47.8564L134.179 47.7446H80.5073ZM51.8823 90.6821L50.876 90.9058L49.9814 91.353L48.9751 92.1357L48.1924 93.3657L47.8569 94.2603L47.7451 95.043V95.9375L47.9688 96.832L48.6396 98.1738L49.3105 98.9565L50.3169 99.6274L51.3232 99.9629L51.8823 100.075H115.059L116.4 99.7393L117.63 98.9565L118.413 98.062L118.972 96.9438L119.196 95.9375V94.8193L118.749 93.3657L118.078 92.2476L117.183 91.4648L115.729 90.7939L115.17 90.6821H51.8823ZM51.8823 133.62L50.876 133.843L49.9814 134.291L48.9751 135.073L48.1924 136.303L47.8569 137.198L47.7451 137.98V138.875L47.9688 139.77L48.6396 141.111L49.3105 141.894L50.3169 142.565L51.3232 142.9L51.8823 143.012H129.371L130.713 142.677L131.943 141.894L132.726 141L133.285 139.881L133.508 138.875V137.869L133.173 136.527L132.614 135.521L131.943 134.738L130.825 134.067L129.93 133.731L129.371 133.62H51.8823ZM42.2661 162.245L41.2598 162.468L40.2534 163.027L39.2471 163.922L38.4644 165.264L38.2407 166.158V186.732L38.5762 187.962L39.3589 189.192L40.2534 189.975L41.3716 190.534L42.6016 190.758H86.3218L87.6636 190.422L88.7817 189.751L89.3408 189.192L90.0117 188.41L90.459 187.18L90.5708 186.509V166.494L90.2354 165.152L89.7881 164.257L88.8936 163.251L87.1045 162.356L86.5454 162.245H42.2661Z" fill="#FFD301"/>
<path d="M174.434 61.9453H178.459L181.702 62.2808L184.498 62.8398L186.846 63.5107L189.529 64.5171L192.325 65.8589L193.89 66.7534L195.903 68.0952L197.356 69.2134L198.922 70.5552L200.375 71.897L201.941 73.5742L203.171 75.1396L204.625 77.1523L206.302 80.0596L207.308 82.1841L208.314 84.8677L209.097 87.5513L209.656 90.4585L209.992 93.9248V97.0557L209.656 100.41L208.985 103.653L208.314 106.001L207.42 108.349L205.854 111.592L204.401 113.94L203.283 115.505L202.053 117.071L200.823 118.413L198.81 120.425L197.58 121.432L195.679 122.885L194.449 123.668L192.325 124.898L190.536 125.792L188.188 126.799L184.945 127.805L182.261 128.364L179.913 128.7L178.571 128.812H174.21L171.191 128.476L168.508 127.917L166.16 127.246L163.7 126.352L160.457 124.786L158.556 123.668L156.655 122.326L155.09 121.096L153.86 119.978L152.965 119.195L152.071 118.301L151.064 117.071L150.058 115.953L148.604 113.94L147.263 111.704L146.033 109.355L144.915 106.56L144.02 103.653L143.349 100.187L143.014 96.9438V94.0366L143.237 91.353L143.685 88.6694L144.467 85.5386L145.474 82.7432L146.48 80.5068L147.71 78.2705L149.499 75.5869L150.729 74.0215L150.953 73.686H151.176L151.4 73.2388L152.183 72.3442L153.524 71.0024L154.419 70.2197L155.873 68.9897L157.885 67.5361L160.233 66.0825L163.141 64.6289L165.824 63.6226L168.508 62.8398L171.303 62.2808L174.434 61.9453ZM165.824 80.6187L164.482 80.9541L163.476 81.625L162.693 82.4077L162.022 83.6377L161.799 84.4204V86.3213L162.246 87.4395L162.917 88.4458L164.93 90.4585L165.489 91.1294L166.383 91.9121L167.054 92.6948H167.278L167.501 93.1421H167.725L167.949 93.5894L169.738 95.3784L169.067 96.1611L162.917 102.311L162.134 103.541L161.799 104.547V106.448L162.246 107.678L163.029 108.796L163.923 109.467L164.706 109.915L165.712 110.138H167.278L168.508 109.691L169.514 109.02L170.185 108.461L170.744 107.79L171.639 107.007L174.658 103.988V103.765L175.105 103.541L175.664 102.87L176 102.646V102.423H176.223L176.335 102.199L176.782 102.423L178.683 104.324H178.907V104.547H179.13V104.771H179.354V104.995H179.578V105.218L180.36 105.889L180.472 106.113H180.696V106.336H180.919V106.56H181.143L181.367 107.007H181.59L181.814 107.455H182.038L182.261 107.902L182.708 108.349H182.932V108.573L184.05 109.467L184.945 109.915L185.839 110.138H187.405L188.747 109.691L189.977 108.796L190.647 107.902L191.095 107.007L191.318 105.666L191.207 104.436L190.759 103.206L189.865 101.976H189.641L189.417 101.528L183.715 95.8257L183.379 95.6021L183.491 95.1548L186.734 91.9121V91.6885L187.181 91.4648V91.2412L187.628 91.0176V90.7939L188.076 90.5703L189.865 88.7812L190.759 87.5513L191.207 86.4331L191.318 84.8677L190.983 83.5259L190.424 82.5195L189.641 81.625L188.747 81.0659L187.74 80.7305L187.181 80.6187H186.063L184.721 80.9541L183.491 81.7368L176.67 88.5576H176.335L175.552 87.6631L170.185 82.2959L169.067 81.4014L168.061 80.8423L166.942 80.6187H165.824Z" fill="#FFD301"/>
<path d="M130.601 173.766L131.16 173.877L134.738 175.555L137.757 176.785L141 177.903L144.243 178.909L148.715 180.027L153.3 180.922L157.884 181.593L162.469 182.04L167.053 182.264H170.855L173.762 182.152L175.439 182.04L175.551 182.375L174.209 185.171L173.427 186.401L171.973 188.302L170.408 189.979L168.842 191.433L166.941 192.886L164.258 194.675L161.686 196.129L158.555 197.694L154.753 199.26L150.281 200.825L145.808 202.167L138.652 203.956L132.726 205.186L125.01 206.528L117.63 207.534L109.691 208.429L102.088 209.1L93.9253 209.659H93.1426L93.3662 209.211L95.6025 207.87L98.6216 205.857L101.193 204.068L103.318 202.502L104.66 201.496L106.113 200.378L107.902 198.924L109.132 197.918L110.81 196.464L111.704 195.682L113.046 194.452L113.94 193.669L115.729 191.992L119.308 188.414L119.419 188.19H119.643L119.867 187.743L120.873 186.736L121.656 185.842L122.662 184.612H122.886L123.109 184.165L124.675 182.264L125.905 180.698L127.358 178.686L128.477 177.12L129.818 174.996L130.489 173.877L130.601 173.766Z" fill="#FFD301"/>
<path d="M52.2188 19.5703H52.4424L52.5542 19.7939V47.8599L52.3306 49.2017L51.5479 50.6553L50.5415 51.6616L49.0879 52.3325L47.4106 52.5562H19.9038L19.5684 52.4443L19.9038 51.438L20.6865 49.6489L21.6929 48.0835L22.4756 47.0771L23.7056 45.7354L46.6279 22.813L48.1934 21.583L49.8706 20.5767L52.2188 19.5703Z" fill="#FFD301"/>
<path d="M47.7446 171.641H80.9541L81.1777 171.864V181.145L80.8423 181.369H47.7446L47.6328 181.257V171.752L47.7446 171.641Z" fill="#FFD301"/>
</svg>
