<svg width="384" height="384" viewBox="0 0 384 384" fill="none" xmlns="http://www.w3.org/2000/svg">
<g clip-path="url(#clip0_2105_280)">
<path d="M384 237V291.75C381.2 297.62 379.1 304.02 374.3 308.65C371.67 311.18 361.52 317.25 358.18 317.25H345.08V210.75H357.43C358.41 210.75 365.47 213.41 366.82 214.1C375.86 218.68 381 227.67 384.01 237H384Z" fill="white"/>
<path d="M190.129 189.002H83.4594C83.3294 189.002 82.1394 190.162 81.9694 190.512L81.5494 335.662C81.5494 338.182 83.2794 339.242 85.6594 339.042H299.079C301.889 339.272 303.429 337.772 303.199 334.922L302.769 190.512C302.599 190.162 301.409 189.002 301.279 189.002H194.609L215.199 159.002L216.689 158.242L304.189 158.322C319.809 160.792 332.299 173.462 333.859 189.342L333.749 340.792C330.879 356.192 318.549 368.292 302.799 369.782L80.4594 369.742C64.9494 367.232 52.8894 355.082 50.8594 339.402V188.602C52.9394 172.632 65.3294 160.382 81.2194 158.262L168.039 158.242L169.529 159.002L190.119 189.002H190.129Z" fill="white"/>
<path d="M193.11 172.488C192.97 172.608 191.49 172.778 191.57 172.018L170.62 142.178C130.59 136.878 75.28 101.258 102.17 54.7381C133.04 1.31807 246.39 1.12806 280.56 51.5081C312.14 98.0581 255.61 137.228 214.13 142.168L193.1 172.488H193.11ZM131.96 57.5181C133.12 58.4581 134.44 58.4081 135.83 58.5281C154.27 60.0981 174.86 57.2681 193.54 58.5281C199.27 57.7581 199.47 48.8481 192.02 47.9781C174.28 49.5381 153.17 45.9581 135.85 47.9781C130.77 48.5681 128.11 54.3881 131.97 57.5181H131.96ZM133.77 73.6581C128.34 76.7981 129.53 83.2881 135.84 84.0181H248.9C256.41 83.1481 255.77 74.2581 249.67 73.4681L133.76 73.6581H133.77ZM134.52 98.4081C128.11 100.588 129.15 108.868 135.84 109.518H248.9C256.28 108.738 256.51 99.1181 248.9 98.2381L134.52 98.4181V98.4081Z" fill="white"/>
<path d="M39.6696 210.75V317.25H26.5696C25.6996 317.25 19.1796 314.56 17.9296 313.91C8.28962 308.9 1.63962 298.5 0.719616 287.66C-0.320384 275.36 -0.150384 254.27 0.719616 241.85C1.54962 229.92 7.95962 218.75 18.9596 213.62C20.0896 213.09 26.6396 210.76 27.3296 210.76H39.6796L39.6696 210.75Z" fill="white"/>
<path d="M35.9307 199.503L25.4507 200.253V121.133C25.4507 120.723 19.8207 117.753 18.6907 116.663C5.39075 103.823 18.6207 81.4427 36.6707 87.3927C49.4807 91.6127 52.1607 109.593 41.5407 117.763C40.4907 118.573 35.9307 120.523 35.9307 121.143V199.523V199.503Z" fill="white"/>
<path d="M359.301 200.251L348.821 199.501V121.121C348.821 120.511 344.261 118.551 343.211 117.741C332.591 109.571 335.271 91.5914 348.081 87.3714C366.111 81.4314 379.271 103.891 366.061 116.641C364.931 117.731 359.301 120.701 359.301 121.111V200.231V200.251Z" fill="white"/>
<path d="M145.75 281.41C151.92 279.6 152.34 284.07 155.31 287.26C173.69 306.96 201.48 311.73 223.07 293.64C225.53 291.58 233.12 281.96 234.24 281.59C238.7 280.09 242.16 282.08 241.82 286.88C241.48 291.68 231.53 301.13 227.49 304.07C206.15 319.65 178.65 319.68 157.26 304.07C153.62 301.41 135.17 284.52 145.75 281.42V281.41Z" fill="white"/>
<path d="M252.101 217.661C266.871 216.471 274.491 236.321 261.491 245.131C249.681 253.141 234.761 241.581 239.171 228.011C240.921 222.631 246.421 218.121 252.101 217.661Z" fill="white"/>
<path d="M130.819 217.701C149.639 216.971 151.509 245.051 134.299 247.431C112.459 250.451 110.809 218.481 130.819 217.701Z" fill="white"/>
</g>
<defs>
<clipPath id="clip0_2105_280">
<rect width="384" height="384" fill="white"/>
</clipPath>
</defs>
</svg>
