<svg width="512" height="512" viewBox="0 0 512 512" fill="none" xmlns="http://www.w3.org/2000/svg">
<g clip-path="url(#clip0_2689_353)">
<path d="M473 0C498.66 7.45 494.62 42.3 467.54 43.04L41.5095 42.99C16.7195 39.86 13.4295 8.69 36.9995 0H473Z" fill="black"/>
<path d="M39.7596 85.2578L469.49 85.0078C496.46 87.7278 497.15 123.348 471.5 127.998H40.5096C14.9396 124.658 14.4496 89.6878 39.7596 85.2578Z" fill="black"/>
<path d="M156.503 298.32L351.263 298C370.193 299.5 382.263 311.57 383.763 330.5C380.823 378.9 387.553 431.69 383.763 479.57C382.263 498.5 370.193 510.57 351.263 512.07H159.193C142.983 510.8 130.463 500.83 127.723 484.54V325.53C130.093 310.6 141.633 300.2 156.513 298.32H156.503ZM340.723 341.04H169.723V452.04C171.403 452.4 171.743 451.51 172.703 450.52C180.353 442.66 200.093 417.89 209.463 416.28C229.153 412.89 232.593 428.69 246.743 436.58L280.233 401.05C288.283 393.68 297.943 392.11 307.673 397.59L340.723 427.04V341.04Z" fill="black"/>
<path d="M442.463 320.282C448.373 319.292 467.113 319.302 473.133 320.132C495.493 323.212 495.543 359.522 472.223 362.042C465.793 362.732 449.603 362.812 443.303 361.952C420.843 358.892 420.613 323.932 442.453 320.272L442.463 320.282Z" fill="black"/>
<path d="M442.463 448.282C448.373 447.292 467.113 447.302 473.133 448.132C495.493 451.212 495.543 487.522 472.223 490.042C465.793 490.732 449.603 490.812 443.303 489.952C420.843 486.892 420.613 451.932 442.453 448.272L442.463 448.282Z" fill="black"/>
<path d="M36.4527 320.272C41.4527 319.252 61.8127 319.362 67.2527 320.022C89.9527 322.792 90.0627 358.562 68.1628 361.982C62.6128 362.852 43.9427 362.772 38.2027 362.072C16.0327 359.362 15.1227 324.602 36.4527 320.272Z" fill="black"/>
<path d="M36.4527 448.272C41.4527 447.252 61.8127 447.362 67.2527 448.022C89.9527 450.792 90.0627 486.562 68.1628 489.982C62.6128 490.852 43.9427 490.772 38.2027 490.072C16.0327 487.362 15.1227 452.602 36.4527 448.272Z" fill="black"/>
<path d="M473.001 282.009H37.0009C13.6309 273.399 16.5709 241.989 41.5109 239.019L467.541 238.969C494.621 239.719 498.661 274.559 473.001 282.009Z" fill="black"/>
<path d="M38.7607 154.27L471.501 154C497.701 159.3 496.361 194.63 468.531 197.04L41.5107 196.99C15.8707 194.41 13.5007 159.52 38.7607 154.26V154.27Z" fill="black"/>
</g>
<defs>
<clipPath id="clip0_2689_353">
<rect width="512" height="512" fill="white"/>
</clipPath>
</defs>
</svg>
