<svg width="512" height="512" viewBox="0 0 512 512" fill="none" xmlns="http://www.w3.org/2000/svg">
<path d="M107.796 34H117.185L123.523 34.704L128.922 35.8774L133.617 37.2854L138.546 39.1628L143.945 41.7442L147.936 44.0909L151.926 46.907L154.508 49.019L157.794 51.8351L160.611 54.6512L162.254 56.5285L164.836 59.5793L165.306 60.2833L166.245 59.814L169.531 56.9979L174.226 53.7125L177.277 51.8351L181.033 49.723L185.962 47.3763L191.596 45.2643L197.464 43.6216L203.568 42.4482L207.558 41.9789L211.079 41.7442H449.334L452.855 42.4482L455.906 43.6216L458.489 45.2643L461.305 47.8457L463.183 50.1924L465.061 53.9471L465.765 56.5285L466 58.4059V383.192L465.531 386.478L464.592 389.059L463.183 391.875L460.836 394.926H460.366V395.395L457.55 397.507L454.263 399.15L450.742 400.089L449.099 400.323L413.42 400.558L413.185 460.869L412.481 464.858L410.838 468.613L409.194 470.96L407.317 473.072L404.5 475.184L400.979 476.827L397.223 477.765L395.345 478H110.848L104.745 477.531L100.05 476.827L94.1815 475.419L88.0784 473.307L83.3838 471.195L77.9849 468.144L74.2291 465.562L70.9429 462.981L68.5955 460.869L66.7176 459.226L64.8398 457.349L63.1966 455.471L60.1451 451.717L57.0936 447.258L54.5115 442.799L52.1641 437.871L50.0515 432.004L48.6431 426.841L47.7042 421.444L47.2347 416.516L47 104.167L47.2347 94.3108L47.9389 88.6786L49.3473 82.3425L51.9294 74.5983L54.981 68.2622L57.3283 64.2727L60.1451 60.2833L62.7272 56.9979L65.544 53.9471L69.2997 50.1924L71.8818 48.0803L75.4028 45.4989L78.9238 43.1522L84.088 40.3362L89.4868 37.9894L95.3552 36.1121L101.693 34.704L107.796 34ZM109.204 71.3129L104.51 72.2516L100.754 73.6596L96.9983 75.7717L94.4162 77.8837L92.3036 79.7611L90.6605 81.6385L88.5479 84.6892L86.67 88.2093L85.2616 92.4334L84.5574 95.9535L84.3227 105.34V322.178L88.0784 320.77L94.4162 318.658L100.754 317.249L105.683 316.545L109.204 316.311H115.542L120.941 316.78L125.636 317.484L131.504 318.892L137.138 320.77L140.424 322.178H140.894V98.0655L140.424 94.0761L139.485 90.556L138.077 87.0359L135.964 83.2812L133.852 80.6998L131.974 78.5877L127.983 75.537L123.993 73.4249L119.768 72.0169L115.777 71.3129H109.204ZM231.736 115.901L227.98 116.605L225.163 117.778L222.816 119.186L220.468 121.298L218.356 123.645L216.243 127.634L215.304 130.92L215.069 132.797V135.848L215.774 139.368L216.713 141.949L218.121 144.531L220.234 147.112L222.346 148.989L224.928 150.632L227.98 151.805L231.031 152.51L234.552 152.744H366.708L375.862 152.51L379.148 151.805L381.965 150.632L384.782 148.755L387.129 146.643L389.242 143.827L390.65 141.011L391.589 137.725L391.824 136.082V132.562L391.12 129.042L389.946 125.992L387.834 122.706L386.19 120.829L383.374 118.717L379.618 116.839L377.036 116.135L375.393 115.901H231.736ZM232.675 202.729L228.919 203.199L225.632 204.372L223.52 205.545L221.407 207.188L219.06 209.535L217.182 212.351L215.774 215.871L215.069 219.626V222.677L215.774 226.431L216.947 229.247L218.59 232.063L220.703 234.41L223.285 236.522L226.806 238.4L230.562 239.338L233.379 239.573H373.75L377.74 239.104L381.496 237.696L384.313 236.053L387.129 233.471L389.007 231.125L390.65 227.839L391.589 224.554L391.824 222.911V219.391L391.12 215.871L389.711 212.351L388.068 209.77L385.956 207.423L383.374 205.545L380.087 203.903L377.975 203.199L374.219 202.729H232.675ZM233.848 289.558L229.154 290.027L225.632 291.201L222.581 293.078L220.234 295.19L218.59 297.068L216.713 300.353L215.774 302.934L215.069 306.689V309.74L215.774 313.26L217.182 316.78L219.529 320.066L221.877 322.412L224.928 324.29L226.806 325.228L230.327 326.167L232.205 326.402H304.503L307.789 325.932L311.31 324.759L314.831 322.647L317.179 320.535L319.526 317.249L320.934 314.199L321.873 310.444V305.751L321.169 302.465L319.526 298.71L317.883 296.364L316.24 294.486L313.423 292.374L310.137 290.732L306.381 289.793L303.564 289.558H233.848ZM111.552 353.154L106.857 353.624L102.162 355.032L98.4067 356.909L95.8247 358.552L93.0078 361.133L91.8342 362.307L89.9563 364.419L87.3742 368.643L85.9658 371.928L84.7922 376.152L84.5574 378.03V415.343L85.0269 418.628L86.2006 422.617L88.0784 426.607L89.9563 429.423L92.7731 432.708L95.8247 435.29L98.4067 436.932L102.162 438.81L105.918 439.983L110.378 440.687L375.627 440.922L375.862 440.687V400.323H171.409L156.386 400.089L153.1 399.15L150.518 397.742L147.936 395.63L145.823 392.814L143.945 389.529L142.302 385.07L141.128 380.376L139.955 374.04L138.546 370.051L136.434 366.061L134.556 363.48L131.974 360.664L129.157 358.317L125.166 355.97L121.645 354.562L118.124 353.624L114.134 353.154H111.552Z" fill="white"/>
</svg>
