<svg width="512" height="512" viewBox="0 0 512 512" fill="none" xmlns="http://www.w3.org/2000/svg">
<g clip-path="url(#clip0_2689_321)">
<path d="M473 0C498.66 7.45 494.62 42.3 467.54 43.04L41.5095 42.99C16.7195 39.86 13.4295 8.69 36.9995 0H473Z" fill="white"/>
<path d="M473 512.001H37C13.63 503.391 16.57 471.981 41.51 469.011L467.54 468.961C494.62 469.711 498.66 504.551 473 512.001Z" fill="white"/>
<path d="M156.78 149.281L351.54 148.961C370.47 150.461 382.54 162.531 384.04 181.461C381.1 229.861 387.83 282.651 384.04 330.531C382.54 349.461 370.47 361.531 351.54 363.031H159.47C143.26 361.761 130.74 351.791 128 335.501V176.491C130.37 161.561 141.91 151.161 156.79 149.281H156.78ZM341 192.001H170V303.001C171.68 303.361 172.02 302.471 172.98 301.481C180.63 293.621 200.37 268.851 209.74 267.241C229.43 263.851 232.87 279.651 247.02 287.541L280.51 252.011C288.56 244.641 298.22 243.071 307.95 248.551L341 278.001V192.001Z" fill="white"/>
<path d="M39.7596 85.2578L469.49 85.0078C496.46 87.7278 497.15 123.348 471.5 127.998H40.5096C14.9396 124.658 14.4496 89.6878 39.7596 85.2578Z" fill="white"/>
<path d="M38.7597 384.262L471.5 383.992C497.7 389.292 496.36 424.622 468.53 427.032L41.5097 426.982C15.8697 424.402 13.4997 389.512 38.7597 384.252V384.262Z" fill="white"/>
<path d="M442.74 171.243C448.65 170.253 467.39 170.263 473.41 171.093C495.77 174.173 495.82 210.483 472.5 213.003C466.07 213.693 449.88 213.773 443.58 212.913C421.12 209.853 420.89 174.893 442.73 171.233L442.74 171.243Z" fill="white"/>
<path d="M442.74 299.243C448.65 298.253 467.39 298.263 473.41 299.093C495.77 302.173 495.82 338.483 472.5 341.003C466.07 341.693 449.88 341.773 443.58 340.913C421.12 337.853 420.89 302.893 442.73 299.233L442.74 299.243Z" fill="white"/>
<path d="M36.7301 171.233C41.7301 170.213 62.0901 170.323 67.5301 170.983C90.2301 173.753 90.3401 209.523 68.4401 212.943C62.8901 213.813 44.2201 213.733 38.4801 213.033C16.3101 210.323 15.4001 175.563 36.7301 171.233Z" fill="white"/>
<path d="M36.7301 299.233C41.7301 298.213 62.0901 298.323 67.5301 298.983C90.2301 301.753 90.3401 337.523 68.4401 340.943C62.8901 341.813 44.2201 341.733 38.4801 341.033C16.3101 338.323 15.4001 303.563 36.7301 299.233Z" fill="white"/>
</g>
<defs>
<clipPath id="clip0_2689_321">
<rect width="512" height="512" fill="white"/>
</clipPath>
</defs>
</svg>
