<svg width="352" height="88" viewBox="0 0 352 88" fill="none" xmlns="http://www.w3.org/2000/svg">
<path d="M44.9 31.2C44.9 29.2 44.2 28.2 42.8 28.2C42.2667 28.2 41.6333 28.3333 40.9 28.6C40.1667 28.8667 39.4667 29.1 38.8 29.3C36.3333 30.6333 34.4 32.1 33 33.7C31.6667 35.2333 30.3 36.9667 28.9 38.9C27.5 40.8333 26.3 42.9 25.3 45.1C24.3 47.3 23.5333 49.3667 23 51.3C21.0667 58.4333 21.8 63.2333 25.2 65.7C26.6 66.7 28.0667 67.2 29.6 67.2C31.2 67.1333 32.4667 66.8 33.4 66.2C34.4 65.6 35.3667 65.0333 36.3 64.5C37.2333 63.9667 38.3 63.6 39.5 63.4C40.7667 63.1333 42.3 63.3 44.1 63.9C45.9667 64.4333 46.9667 65.1667 47.1 66.1C47.2333 67.0333 47.2333 68 47.1 69C46.9667 70 46.9333 70.9 47 71.7C47.1333 72.5 47.8667 73 49.2 73.2C50.4667 74.8 49.6667 76.7333 46.8 79C46.0667 79.6 45.3667 80.1667 44.7 80.7C38.9667 84.3667 32.8667 86.4 26.4 86.8C22.3333 87.0667 18 86.3333 13.4 84.6C6.53333 82 2.66667 76.1667 1.8 67.1C0.666667 58.7 1.73333 50 5 41C7.73333 33.4 11.8667 26.3667 17.4 19.9C22.4 13.9667 27.3333 10.1 32.2 8.29999C38 5.3 44.2667 4.13333 51 4.8C58.1333 5.73333 62.8 8.76666 65 13.9C67.2 19.0333 66.8333 25.2 63.9 32.4C62.9 34.9333 61 36.9333 58.2 38.4C55.8 39.7333 53.2 40.4 50.4 40.4C47.6 40.4 45.8 39.5333 45 37.8C44.2 36 44.1667 33.8 44.9 31.2ZM111.524 70.3C111.524 73.8333 111.958 76.9 112.824 79.5C112.824 81.6333 112.324 83.1333 111.324 84C110.324 84.9333 109.058 85.4 107.524 85.4C106.058 85.4667 104.491 85.1667 102.824 84.5C101.158 83.9 99.7242 83.1333 98.5242 82.2C97.3909 81.2667 96.6576 80.5333 96.3242 80C95.9909 79.4 95.4576 78.5333 94.7242 77.4C93.5909 72.1333 93.0576 68.7 93.1242 67.1C93.1909 65.5 93.3242 64.1333 93.5242 63C90.1909 64.7333 87.8909 66.2333 86.6242 67.5C84.2909 69.8333 82.3242 72.8333 80.7242 76.5C80.1909 79.4333 79.7576 80.9667 79.4242 81.1C79.0909 81.3 78.6576 81.4333 78.1242 81.5C77.5909 81.5667 77.0242 81.8 76.4242 82.2C75.8242 82.6 75.2576 82.9333 74.7242 83.2C74.1909 83.4667 73.6576 83.7333 73.1242 84C71.8576 84.7333 71.0242 85.1 70.6242 85.1C66.8242 86.3 63.1909 85.7667 59.7242 83.5C58.2576 82.5 57.1242 81.2333 56.3242 79.7C55.5242 78.1 55.3242 76.4 55.7242 74.6C58.5909 62.2667 62.5242 49.7 67.5242 36.9C70.5909 29.1 73.5242 22.9333 76.3242 18.4C76.9909 17.3333 77.6576 16.2 78.3242 15C79.7242 12.6 80.6909 10.9667 81.2242 10.1C80.5576 8.36666 80.5576 6.86667 81.2242 5.6C81.9576 4.26666 83.0242 3.23333 84.4242 2.5C85.8909 1.7 87.5576 1.16666 89.4242 0.899994C91.2909 0.633327 93.0576 0.599994 94.7242 0.799995C98.7242 1.4 100.858 2.96666 101.124 5.49999C100.724 6.69999 100.158 8.13333 99.4242 9.8C98.7576 11.4667 98.0576 13.1667 97.3242 14.9C96.6576 16.5667 95.9909 18.1333 95.3242 19.6C94.7242 21.0667 94.2576 22.1667 93.9242 22.9C93.6576 23.5667 93.2242 24.7667 92.6242 26.5C92.0909 28.1667 91.4909 30 90.8242 32C90.2242 33.9333 89.6576 35.7333 89.1242 37.4L87.9242 40.9C87.6576 41.8333 87.2242 43.2667 86.6242 45.2C86.0242 47.0667 85.3909 49.4 84.7242 52.2C85.5909 51.5333 86.2909 50.7667 86.8242 49.9C87.4242 48.9667 88.2576 47.9333 89.3242 46.8C90.4576 45.6667 91.8909 44.5667 93.6242 43.5C95.4242 42.3667 97.3242 41.6333 99.3242 41.3C103.658 40.5667 107.591 41.9667 111.124 45.5C113.791 48.1667 114.624 52.1667 113.624 57.5C113.224 59.7 112.724 61.9333 112.124 64.2C111.591 66.4 111.391 68.4333 111.524 70.3ZM130.406 38.3C131.806 37.3 133.54 37.0667 135.606 37.6C136.006 37.6667 136.406 37.7 136.806 37.7C138.273 34.7 140.806 33.1333 144.406 33C145.34 32.9333 146.64 32.7667 148.306 32.5C149.973 32.2333 151.973 32.3 154.306 32.7C156.706 33.1 158.806 33.8 160.606 34.8C164.54 36.9333 166.906 40 167.706 44C169.306 49.8667 169.073 56.2667 167.006 63.2C164.806 70.8667 161.073 77 155.806 81.6C153.406 83.7333 150.873 85.0667 148.206 85.6C145.54 86.2 143.14 86.5333 141.006 86.6C138.873 86.6667 136.906 86.6667 135.106 86.6C133.373 86.6 131.673 86.4333 130.006 86.1C126.406 85.3667 123.44 83.6667 121.106 81C118.373 78 117.206 73.3333 117.606 67C117.873 61.4 119.273 55.7667 121.806 50.1C124.406 44.3667 127.273 40.4333 130.406 38.3ZM148.006 58.4C146.34 58.9333 144.773 59.1667 143.306 59.1C142.573 59.8333 141.906 60.6333 141.306 61.5C140.773 62.3 140.04 63.0667 139.106 63.8C138.173 64.4667 137.706 64.7333 137.706 64.6C136.573 66.2 135.64 67.8667 134.906 69.6C134.173 71.2667 134.173 72.9667 134.906 74.7C137.573 74.9667 139.54 74.9 140.806 74.5C142.073 74.1 143.24 73.3333 144.306 72.2C145.44 71.0667 146.306 69.7333 146.906 68.2C148.106 65.3333 148.473 62.0667 148.006 58.4ZM209.848 31.9C212.448 32.2333 214.181 33.1667 215.048 34.7C215.981 36.1667 216.348 37.7667 216.148 39.5C215.948 41.1667 215.314 42.7 214.248 44.1C213.248 45.4333 212.114 46.1333 210.848 46.2C210.381 47.6 209.648 48.5667 208.648 49.1C207.648 49.6333 206.548 50 205.348 50.2C204.148 50.4 202.881 50.6333 201.548 50.9C200.281 51.1 199.081 51.6667 197.948 52.6C196.814 53.5333 195.848 54.4667 195.048 55.4C194.314 56.2667 193.714 57.1333 193.248 58C192.448 59.4667 191.748 61.2667 191.148 63.4C191.014 64.8667 191.714 66.2333 193.248 67.5C195.048 68.9 197.014 69.5333 199.148 69.4C201.281 69.2 202.981 69.3 204.248 69.7C205.581 70.0333 206.581 70.5333 207.248 71.2C208.714 72.7333 208.581 74.5 206.848 76.5C203.514 81.8333 197.914 85 190.048 86C187.714 86.3333 185.381 86.4 183.048 86.2C180.714 86.0667 178.448 85.2 176.248 83.6C174.048 82 172.314 79.8333 171.048 77.1C168.248 70.8333 168.481 63.5333 171.748 55.2C174.881 47.4 179.581 41.4 185.848 37.2C192.714 32.5333 200.714 30.7667 209.848 31.9ZM227.379 38.3C228.779 37.3 230.512 37.0667 232.579 37.6C232.979 37.6667 233.379 37.7 233.779 37.7C235.246 34.7 237.779 33.1333 241.379 33C242.312 32.9333 243.612 32.7667 245.279 32.5C246.946 32.2333 248.946 32.3 251.279 32.7C253.679 33.1 255.779 33.8 257.579 34.8C261.512 36.9333 263.879 40 264.679 44C266.279 49.8667 266.046 56.2667 263.979 63.2C261.779 70.8667 258.046 77 252.779 81.6C250.379 83.7333 247.846 85.0667 245.179 85.6C242.512 86.2 240.112 86.5333 237.979 86.6C235.846 86.6667 233.879 86.6667 232.079 86.6C230.346 86.6 228.646 86.4333 226.979 86.1C223.379 85.3667 220.412 83.6667 218.079 81C215.346 78 214.179 73.3333 214.579 67C214.846 61.4 216.246 55.7667 218.779 50.1C221.379 44.3667 224.246 40.4333 227.379 38.3ZM244.979 58.4C243.312 58.9333 241.746 59.1667 240.279 59.1C239.546 59.8333 238.879 60.6333 238.279 61.5C237.746 62.3 237.012 63.0667 236.079 63.8C235.146 64.4667 234.679 64.7333 234.679 64.6C233.546 66.2 232.612 67.8667 231.879 69.6C231.146 71.2667 231.146 72.9667 231.879 74.7C234.546 74.9667 236.512 74.9 237.779 74.5C239.046 74.1 240.212 73.3333 241.279 72.2C242.412 71.0667 243.279 69.7333 243.879 68.2C245.079 65.3333 245.446 62.0667 244.979 58.4ZM312.573 35.8C315.039 29.2667 316.773 23.9667 317.773 19.9C317.439 18.9 317.373 17.8 317.573 16.6C319.039 14.5333 321.006 12.9 323.473 11.7C325.939 10.4333 328.573 9.86666 331.373 10C334.039 9.66666 336.006 9.8 337.273 10.4C339.673 11.5333 340.506 13.1 339.773 15.1C339.906 15.3667 340.273 15.8 340.873 16.4C341.473 17 341.773 17.4667 341.773 17.8C340.906 20.2667 339.706 22.6333 338.173 24.9C336.706 27.1 335.506 28.8667 334.573 30.2C333.639 31.5333 332.973 32.6 332.573 33.4C332.039 34.3333 331.706 35.0667 331.573 35.6C335.839 35.2667 339.306 34.8667 341.973 34.4C343.506 34.2667 345.073 34.4 346.673 34.8C348.339 35.2 349.606 35.7667 350.473 36.5C351.406 37.2333 351.739 38.1 351.473 39.1C351.206 40.1 349.939 41.1333 347.673 42.2C346.806 42.2667 345.639 42.5 344.173 42.9C342.706 43.2333 341.139 43.6 339.473 44C337.873 44.4 336.306 44.8 334.773 45.2C333.306 45.6 332.239 45.8667 331.573 46C329.973 46.4 328.673 47.1 327.673 48.1C325.739 56.1667 323.906 61.0333 322.173 62.7C321.306 63.5 320.273 64.0333 319.073 64.3C317.939 64.5667 316.706 65.0333 315.373 65.7C314.039 66.3667 312.473 66.6667 310.673 66.6C308.873 66.4667 307.339 65.9333 306.073 65C304.873 64.0667 304.039 62.7667 303.573 61.1C303.106 59.4333 303.273 57.4667 304.073 55.2C304.339 54.2 304.639 53.2 304.973 52.2C305.373 51.2 305.739 50.2333 306.073 49.3C304.806 48.7 304.106 48.2 303.973 47.8C303.306 47.3333 302.806 46.7 302.473 45.9C301.006 45.1667 299.573 44.5 298.173 43.9C296.839 43.2333 295.706 42.5333 294.773 41.8C292.239 39.2667 292.273 37.2333 294.873 35.7C295.673 35.2333 296.639 34.8 297.773 34.4C301.239 34.6 303.106 34.6667 303.373 34.6C303.706 34.4667 303.773 34.4 303.573 34.4H303.273C303.473 34.4667 304.573 34.6667 306.573 35C308.973 35.4 310.973 35.6667 312.573 35.8ZM331.373 35.6C331.506 35.2667 331.573 35.0667 331.573 35C331.506 35 331.473 35.0333 331.473 35.1C331.473 35.1667 331.406 35.3333 331.273 35.6H331.373Z" fill="url(#paint0_linear_910_344)"/>
<defs>
<linearGradient id="paint0_linear_910_344" x1="3.19101e-06" y1="49" x2="359" y2="50" gradientUnits="userSpaceOnUse">
<stop stop-color="white"/>
<stop offset="0.673944" stop-color="#FFD301"/>
</linearGradient>
</defs>
</svg>
