<svg width="11" height="11" viewBox="0 0 11 11" fill="none" xmlns="http://www.w3.org/2000/svg">
<g clip-path="url(#clip0_1724_288)">
<path d="M0.463157 1.38731C0.207621 1.13496 0.20389 0.72212 0.454824 0.465198C0.705757 0.208276 1.11633 0.204566 1.37187 0.456911L10.5377 9.50827C10.7933 9.76061 10.797 10.1735 10.5461 10.4304C10.2951 10.6873 9.88455 10.691 9.62901 10.4387L0.463157 1.38731Z" fill="white"/>
<path d="M9.52191 0.463777C9.7746 0.208608 10.1852 0.207728 10.4389 0.461813C10.6927 0.715898 10.6936 1.12873 10.4409 1.3839L1.37613 10.5378C1.12345 10.793 0.71288 10.7939 0.459106 10.5398C0.205332 10.2857 0.204448 9.87289 0.457133 9.61772L9.52191 0.463777Z" fill="white"/>
</g>
<defs>
<clipPath id="clip0_1724_288">
<rect width="11" height="11" fill="white"/>
</clipPath>
</defs>
</svg>
