<svg width="512" height="512" viewBox="0 0 512 512" fill="none" xmlns="http://www.w3.org/2000/svg">
<g clip-path="url(#clip0_3168_308)">
<path d="M119.5 218L122.75 218.25L126.25 219.5L129 221.25L132.25 224.25L289.5 381.5L291.5 384L293.25 387.75L293.75 389.5V395L292.5 398.75L290.25 402.25L288.75 404L287 405.5L285.75 407L284 408.5L282.75 410L280.75 411.75L252.5 440L250.5 441.75L246.5 445L241.75 448.5L236.5 451.75L232.5 454L225.75 457.25L219.25 459.75L212.75 461.75L205.75 463.25L199.5 464.25L194.75 464.75L190.25 465H184.75L177.5 464.5L169.25 463.25L163 461.75L157.75 460.25L151 457.75L144 454.5L138.25 451.25L135.5 449.5L131.5 446.75L128 444L124.5 441L122 438.75L72 388.75L70.25 386.75L67.5 383.5L64.5 379.5L61.5 375L58.5 370L56.5 366L54 360.75L51.5 354L49.5 347L47.75 338L47 331L46.75 326.75V321.75L47.25 314.25L48.25 307.25L49.75 300.25L52 292.75L54.5 286.5L56.5 282L59.5 276.5L62.25 272L65.5 267.25L69 263L72 259.5L74.25 257.25L74.5 256.75H75L75.5 255.75H76L76.5 254.75H77L77.5 253.75H78L78.5 252.75H79L79.5 251.75H80L80.5 250.75H81L81.5 249.75H82L82.5 248.75H83L83.5 247.75H84L84.5 246.75H85L85.5 245.75H86L86.5 244.75H87L87.5 243.75H88L88.5 242.75H89L89.5 241.75H90L90.5 240.75H91L91.5 239.75H92L92.5 238.75H93L93.5 237.75H94L94.5 236.75H95L95.5 235.75H96L96.5 234.75H97L97.5 233.75H98L98.5 232.75H99L99.5 231.75H100L100.5 230.75H101L101.5 229.75H102L102.5 228.75H103L103.5 227.75L109 222.25L112 220L114.75 218.75L116.75 218.25L119.5 218Z" fill="white"/>
<path d="M318.25 47H330.25L339.25 48L345.75 49.25L352.25 51L358.75 53.25L364.75 55.75L369.5 58.25L374 60.75L379.25 64.25L382.25 66.5L384.75 68.5L388 71.25L392 75L437.25 120.25L439 122.25L441 124.25L443.25 127L445.75 130L449.25 135L452 139.5L454 143L457 149L459.75 156L461.75 162.5L463.25 168.75L464.25 174.75L465 182V193.5L464.5 199L463.5 205.5L462 212.25L460 219L457.25 226L454 232.75L450.75 238.25L447.75 242.75L444.75 246.75L442.5 249.5L440.25 252L438.5 254L402.25 290.25L399.5 292L396.5 293.25L394.5 293.75H389.75L386 292.5L383.5 291L381 288.75L221.25 129L219.75 126.5L218.5 123.5L218 121.25V118.5L218.75 115L219.75 112.75L221.25 110.25L222.5 108.75H223L223.5 107.75L257.5 73.75H258V73.25L260 71.5L262.75 69L267 65.75L269.75 63.75L273.5 61.25L278.75 58.25L283.5 55.75L289.5 53.25L294.5 51.5L300.5 49.75L307.5 48.25L314.75 47.25L318.25 47Z" fill="white"/>
<path d="M43.5 401.5L44.5 402L47.25 405.25L49.5 407.75L51.25 409.75L53.5 412V412.5H54L55.5 414.25L56 414.5V415H56.5V415.5H57V416L58 416.5L67 425.5L68.75 427.5L91.5 450.25L93 451.5L102.5 461L104.5 462.75L106.25 464.5L109 466.75L110.25 467.75L110.5 468.5L109.25 469.5L108 471L71.5 507.5H71V508L67.75 510.25L64.25 511.75L64 512H57.25L53.25 510.25L50.5 508.5L4 462L1.75 459L0 455V447.75H0.5L0.75 446.25L2.25 443.25L4 441L43.5 401.5Z" fill="white"/>
<path d="M447.75 0H455.25L459.25 2L461.5 3.5L464.5 6.5L466 7.75L467.75 9.75L508.5 50.5L510.75 54L511.5 56.25L512 56.5V64.5L511.5 65L510.5 67.25L508.75 70L506 73L469 110L468.75 110.5L467.5 110L465.5 107.5L462.75 104.5L460.5 102L458.25 99.75L456.5 97.75L445.5 86.75L443.75 84.75L432.25 73.25L430.25 71.5L410 51.25L408 49.5L405.25 47L402.5 44.75L401.5 43.75L402 42.75L404 41L441.75 3.25L444.5 1.5L447.75 0Z" fill="white"/>
<path d="M206.75 179H213L217.5 179.75L222 181.25L226 183.25L229 185.25L231.75 187.5L234.5 190.25L237 193.75L239 197.25L240.5 201L241.75 205.75L242 207.5V215L241 220L239.25 224.75L237.25 228.5L234.75 232H234.25L233.75 233L232 235H231.5L231 236L226.75 240.25H226.25L225.75 241.25H225.25L224.75 242.25H224.25L223.75 243.25H223.25L222.75 244.25H222.25L221.75 245.25H221.25L220.75 246.25H220.25L219.75 247.25H219.25L218.75 248.25H218.25L217.75 249.25H217.25L216.75 250.25H216.25L215.75 251.25L214.25 252.5L213 254L211.25 255.5L210 256.75L208.75 258.25L207.75 258L207.25 257L206.25 256.5L201.25 251.5V251L200.25 250.5L163 213.25L163.25 212L187.5 187.75L190.25 185.5L192.75 183.75L196.25 181.75L200.25 180.25L204.5 179.25L206.75 179Z" fill="white"/>
<path d="M300 269.75L304.75 270L309 270.75L313.75 272.5L318 274.75L322 277.75L325.25 281L327.5 284L329.75 287.75L331.25 291.5L332.25 294.75L332.75 297.25L333 299.75V304.5L332.5 308.25L331.5 312L330.25 315.25L328 319.5L325 323.5L323.25 325.25L322.75 326H322.25L321.75 327H321.25L320.75 328H320.25L319.75 329H319.25L318.75 330H318.25V330.5H317.75V331L316 332.5L314.75 334L313 335.5L311.75 337L310 338.5L308.75 340L307 341.5L305.75 343L304 344.5L302.75 346L301 347.5L300.75 348H300.25L299.75 349L298.5 348.75L298.25 348L297.25 347.5V347L296.25 346.5L253.75 304L254 303L256 301.25L257.75 299.25L278.25 278.75L280.25 277L283.75 274.5L288 272.25L292.5 270.75L296.5 270L300 269.75Z" fill="white"/>
<path d="M333.5 433.75H339L342.25 434.75L345 436.25L348 439L349.75 441.75L351 444.75L351.5 447.5V465.5L350.75 469.5L349.5 472.5L347.5 475.25L345.5 477L341.5 479L338.75 479.75H333.75L331 479L327.5 477.25L325 475L323.25 472.75L322 470L321.25 467.25L321 464.75V448.5L321.5 445L322.75 442L324.25 439.5L325.5 438L328.5 435.75L331.5 434.25L333.5 433.75Z" fill="white"/>
<path d="M450.5 321H458.75L467.25 321.25L470.25 322L473.25 323.5L476.25 326.25L478 328.5L479.5 332.25L480 335.75L479.75 339.25L478.5 343L477 345.5L474.75 348L472 349.75L468.5 351L465 351.5H448L444 350.75L441.5 349.75L438.75 347.75L437 346L435 342.75L434 339.75L433.75 338.25V334.25L434.75 330.5L436 328L437.75 325.75L440 323.75L444 321.75L446.25 321.25L450.5 321Z" fill="white"/>
<path d="M45.5 160.5H64.75L68.25 161.25L71.75 163L74.25 165.25L75.75 167L77.5 170.5L78.25 174V176.75L77.75 179.75L76.5 183L74.75 185.5L73.5 187L71 188.75L68 190L64.5 190.75H45.5L41.5 189.75L38.5 188.25L35.5 185.5L33.75 182.75L32.5 179.75L32 177.5V174L33 170L34.5 167L36.75 164.5L38.75 162.75L42 161.25L45.5 160.5Z" fill="white"/>
<path d="M174.75 32L178.75 32.25L182 33.25L184.5 34.75L187 37L188.75 39.25L190 42L190.75 45V65.25L189.75 68.75L188.5 71.25L186.5 73.75L184.5 75.5L181.75 77L178.75 78L177.25 78.25H173.5L170 77.25L167.5 76L164.5 73.5L163 71.5L161.25 68L160.5 65V45.5L161.25 42L163 38.5L165.25 36L167 34.5L170.5 32.75L172.5 32.25L174.75 32Z" fill="white"/>
<path d="M83.5 69.5H86.5L89.75 70.25L92.75 71.75L95.5 74L107.5 86L109.25 88.5L110.5 91L111.25 93.75V98L110.5 101L108.75 104.5L106 107.5L104 109L101.5 110.25L97.5 111.25H94L91 110.5L87.75 108.75L85 106.5L74 95.5L71.75 92.5L70.5 90L69.75 87.75L69.5 86.25V83.75L70.25 80.25L71.25 78L72.5 76L74.75 73.5L76.5 72L80 70.25L83.5 69.5Z" fill="white"/>
<path d="M415.5 400.5L418.75 400.75L422.25 402L425 403.75L428 406.5L438.5 417L440.25 419.5L441.5 422L442.25 424.5V429.25L441.5 432.25L440 435.25L437.5 438.25L434.75 440.25L432 441.5L429 442.25H424.5L421.25 441.25L418.75 439.75L416 437.5L405 426.5V426H404.5L402.25 422.5L401 419.75L400.5 415.25L401.25 411.5L402.25 409L404 406.5L406 404.25L408.5 402.5L411.25 401.25L413.25 400.75L415.5 400.5Z" fill="white"/>
</g>
<defs>
<clipPath id="clip0_3168_308">
<rect width="512" height="512" fill="white"/>
</clipPath>
</defs>
</svg>
