<svg width="61" height="61" viewBox="0 0 61 61" fill="none" xmlns="http://www.w3.org/2000/svg">
<g clip-path="url(#clip0_2634_336)">
<path d="M50.3699 42.6887C47.4699 40.0287 44.8499 36.8787 41.9599 34.2487C40.6599 33.0587 39.5899 32.4487 37.7399 32.6187C36.8799 32.6987 36.2399 33.2387 35.3999 32.6187C34.3999 31.8787 34.6699 30.4787 35.7899 30.0087C37.9599 29.0887 41.1299 29.6887 42.9699 31.1387C46.0399 34.2687 49.6399 37.3187 52.5299 40.5887C59.0599 47.9687 50.1999 57.7387 42.3499 52.2887C39.2699 49.1087 35.5399 46.0187 32.6499 42.6987C30.8299 40.6087 29.8099 37.0987 31.1099 34.4887C31.6799 33.3387 33.4299 33.3887 33.8499 34.6487C34.1399 35.5187 33.6899 35.8887 33.5999 36.6987C33.4599 37.9987 33.7799 39.2587 34.5799 40.2887C37.8099 43.1687 40.7499 46.9987 44.0199 49.7687C48.4899 53.5487 54.8199 47.6987 50.3899 42.6787L50.3699 42.6887Z" fill="white"/>
<path d="M11.4301 10.3513C9.67013 12.1013 9.54013 14.9313 11.1201 16.8313L20.7201 26.4313C21.6201 27.1213 22.8501 27.4613 23.9801 27.3813C24.8901 27.3113 25.6201 26.7313 26.4501 27.5313C27.3601 28.4013 26.8701 29.7113 25.7501 30.0913C22.9401 31.0413 20.0801 29.9213 17.9901 28.0413C15.3001 25.6213 11.8301 22.1613 9.43013 19.4613C2.48013 11.6513 12.6301 1.51126 20.3801 8.39126C23.5901 11.2413 26.5501 14.7713 29.6401 17.7713C31.1201 19.5913 31.8401 22.6313 31.0201 24.8713C30.3501 26.7013 27.8701 25.9913 28.0601 24.2513C28.1001 23.9113 28.3001 23.5113 28.3301 23.1113C28.4401 21.9213 28.1401 20.8213 27.4701 19.8513C24.3801 16.8813 21.3701 13.1413 18.1301 10.3613C16.1501 8.66126 13.3601 8.43126 11.4201 10.3513H11.4301Z" fill="white"/>
<path d="M26.5197 47.6902C25.4997 48.8002 23.6397 47.8502 23.9297 46.3602L26.0097 38.7002C26.8997 37.2802 28.7997 37.8702 28.8697 39.5002C28.0797 41.9002 27.7097 44.6902 26.8597 47.0502C26.7797 47.2602 26.6697 47.5302 26.5197 47.6902Z" fill="white"/>
<path d="M43.7498 15.4002C45.1098 15.1702 46.0398 16.5602 45.3098 17.7102L39.6498 23.3802C38.2098 24.3902 36.5698 22.7502 37.5598 21.2802L43.1198 15.6902C43.2898 15.5402 43.5298 15.4202 43.7498 15.3902V15.4002Z" fill="white"/>
<path d="M13.2104 34.5332C13.3704 34.3632 13.7204 34.1732 13.9504 34.1032C16.2004 33.7832 19.1004 32.3332 21.2804 32.1632C23.1104 32.0132 23.6204 34.3332 22.0704 35.0232C19.9804 35.9532 16.9104 36.1732 14.7204 37.0332C13.2704 37.3832 12.2204 35.6332 13.2204 34.5432L13.2104 34.5332Z" fill="white"/>
<path d="M36.36 11.829C37.47 11.719 38.08 12.669 37.95 13.709C37.65 16.019 36.39 18.749 35.96 21.089C35.27 22.659 32.87 22.149 33.13 20.129C33.42 17.839 34.69 15.139 35.09 12.809C35.29 12.279 35.8 11.879 36.36 11.829Z" fill="white"/>
<path d="M47.2101 22.9916C49.0301 22.7716 49.6601 25.0316 48.1001 25.8516L40.7201 27.8316C38.9801 28.0516 38.3201 25.9016 39.7701 25.0116L47.2001 22.9916H47.2101Z" fill="white"/>
<path d="M16.8604 44.1205C16.2704 43.5305 16.3304 42.6605 16.8304 42.0405C18.3204 40.1705 20.6804 38.4605 22.2604 36.6105C23.6204 35.7205 25.3804 37.3605 24.1304 38.9505C22.6804 40.7805 20.3304 42.4705 18.7904 44.2905C18.2204 44.6705 17.3504 44.6105 16.8604 44.1205Z" fill="white"/>
</g>
<defs>
<clipPath id="clip0_2634_336">
<rect width="48" height="48" fill="white" transform="translate(7 6)"/>
</clipPath>
</defs>
</svg>
