<svg width="512" height="512" viewBox="0 0 512 512" fill="none" xmlns="http://www.w3.org/2000/svg">
<path d="M444.134 131V459.507C444.134 479.613 427.934 500.293 408.4 504.707C309.321 507.653 209.667 505.293 110.387 505.893C88.9872 503.693 68.8672 482.227 68.8672 460.493V131H444.134ZM244.867 438.653C255.267 449.96 272.507 441 272.494 426.533L272.44 209.507C270.32 188.387 243.507 187.947 240.507 208.493C241.307 283.36 238.907 358.667 241.72 433.28C242.614 435.027 243.547 437.227 244.854 438.653H244.867ZM158.414 194.227C153.387 195.267 148.147 201.28 147.681 206.48V430.52C151.561 448.52 176.614 447.32 178.641 428.493L178.681 209.453C177.601 198.133 169.801 191.867 158.414 194.227ZM338.694 438.653C346.814 447.507 363.8 443.053 365.32 430.52V206.48C361.48 188.52 336.387 189.653 334.36 208.507C335.16 283.373 332.761 358.68 335.574 433.293C336.467 435.04 337.401 437.24 338.707 438.667L338.694 438.653Z" fill="white"/>
<path d="M196.359 6.24042L315.799 6.09375C332.573 8.88042 334.786 25.0671 342.999 36.8404L462.159 37.4404C468.879 39.0538 473.679 43.8138 474.839 50.7338C475.879 56.9738 475.879 80.9871 474.639 87.0538C473.399 93.1204 469.426 97.4404 463.653 99.0404C326.279 100.96 188.399 99.9471 50.8526 99.5471C43.7593 97.8804 39.0126 92.6804 38.0259 85.4004C37.1059 78.6004 37.1059 58.3738 38.0259 51.5738C39.2126 42.8404 45.6926 37.4938 54.3726 36.9471L170.026 36.8271C178.146 25.3071 180.213 9.48042 196.373 6.22708L196.359 6.24042Z" fill="white"/>
</svg>
