<svg width="512" height="512" viewBox="0 0 512 512" fill="none" xmlns="http://www.w3.org/2000/svg">
<path d="M85.75 472.25H89L92.5 471.75L95.75 470.75L99.75 468.75L102.5 466.75L105 464.5L153.25 416.25L155.75 413L157.75 409L158.75 406L159.25 403.5V396.5L158.25 392.25L156 387.5L153 383.5L150.25 381L146.75 378.75L143.25 377.25L139.5 376.25L137.75 376H132L128.5 376.75L125.25 378L122 379.75L119.5 381.75L115.75 385.25L111.75 389.25L111.5 381.25V107.25L111.25 93L110.5 89.25L109 85.5L107.5 82.75L105.5 80.25L103.5 78L99.75 75.25L96 73.5L91.5 72.25L89.75 72H84L79.75 73L76.75 74.25L74 75.75L71.5 77.75L68.25 81L66 84.5L64.75 87L63.75 90L63.25 92.75L63 95.75L62.75 389.25L55.75 382.25L52.75 380L49.25 378L44.75 376.5L42 376H36L32.5 376.75L29.25 378L26 379.75L23.5 381.75L20.25 385L18 388.5L16.75 391L15.5 395L15 398.5V401.25L15.5 405L16.75 409L18.75 413L21.25 416.25L24.5 419.5L25.75 421L27.75 422.75L64.5 459.5L65.75 461L67.5 462.5L68.75 464L72.75 467.5L75.5 469.25L78.5 470.75L81.75 471.75L85.75 472.25Z" fill="white"/>
<path d="M207.5 71.75H464.5L469.25 72.25L473.75 73.75L477.75 76L481 78.75L483.25 81.25L485 84L486.5 87L487.75 91L488 92.5V99.25L487 103.5L485.75 106.5L484.25 109.25L482.25 111.75L480.25 114L476.5 116.75L472.75 118.5L468 119.75L466 120H205.75L202.25 119.5L198.5 118.25L194.75 116.25L192.25 114.25L189 111L186.75 107.5L185.5 105L184.25 101L183.75 97.25V95L184.25 91L185.5 87L187.5 83L190 79.75L192.5 77.25L195.75 75L199.5 73.25L202.75 72.25L207.5 71.75Z" fill="white"/>
<path d="M207.5 183.75H400.5L405.25 184.25L409.75 185.75L413.75 188L417 190.75L419.25 193.25L421 196L422.5 199L423.75 203L424 204.5V211.25L423 215.5L421.75 218.5L420.25 221.25L418.25 223.75L416.25 226L412.5 228.75L408.75 230.5L404 231.75L402 232H205.75L202.25 231.5L198.5 230.25L194.75 228.25L192.25 226.25L189 223L186.75 219.5L185.5 217L184.25 213L183.75 209.5V206.75L184.25 203L185.5 199L187.5 195L190 191.75L192.5 189.25L195.75 187L199.5 185.25L202.75 184.25L207.5 183.75Z" fill="white"/>
<path d="M207.75 280H336.75L341.5 280.5L346 282L350 284.25L353.25 287L355.5 289.5L357.25 292.25L358.75 295.25L360 299.25L360.25 300.75V307.5L359.25 311.75L358 314.75L356.5 317.5L354.5 320L352.5 322.25L348.75 325L345 326.75L340.25 328L338.25 328.25H206L202.5 327.75L198.75 326.5L195 324.5L192.5 322.5L189.25 319.25L187 315.75L185.75 313.25L184.5 309.25L184 305.75V303L184.5 299.25L185.75 295.25L187.75 291.25L190.25 288L192.75 285.5L196 283.25L199.75 281.5L203 280.5L207.75 280Z" fill="white"/>
<path d="M207.75 392H272.75L277.5 392.5L282 394L286 396.25L289.25 399L291.5 401.5L293.25 404.25L294.75 407.25L296 411.25L296.25 412.75V419.5L295.25 423.75L294 426.75L292.5 429.5L290.5 432L288.5 434.25L284.75 437L281 438.75L276.25 440L274.25 440.25H206L202.5 439.75L198.75 438.5L195 436.5L192.5 434.5L189.25 431.25L187 427.75L185.75 425.25L184.5 421.25L184 417.75V415.25L184.5 411.25L185.75 407.25L187.75 403.25L190.25 400L192.75 397.5L196 395.25L199.75 393.5L203 392.5L207.75 392Z" fill="white"/>
</svg>
