<svg width="61" height="61" viewBox="0 0 61 61" fill="none" xmlns="http://www.w3.org/2000/svg">
<path d="M14.5869 6.74219H46.3374L46.8604 6.79199L47.3833 6.8916L48.0059 7.06592L48.5288 7.29004L48.9272 7.48926L49.2759 7.68848L49.6992 7.9873L50.0977 8.31104L50.6455 8.85889L50.9194 9.20752L51.1685 9.55615L51.4424 10.0293L51.6416 10.4277L51.8657 10.9756L52.04 11.623L52.1396 12.2207L52.1646 12.4697L52.1895 43.0249L52.1646 43.6973L52.0898 44.1704L51.9404 44.6685L51.7163 45.1665L51.4673 45.5649L51.2681 45.814L51.0439 46.063L43.8472 53.2598L43.5981 53.459L43.2744 53.6831L42.8013 53.9321L42.2036 54.1313L41.855 54.2061L41.4067 54.2559H14.7612L14.2134 54.2061L13.6406 54.1064L12.9683 53.9072L12.4951 53.708L12.0967 53.5088L11.748 53.3096L11.4492 53.1104L11.1255 52.8613L10.8765 52.6372L10.6772 52.4629L10.478 52.2637V52.2139H10.4282L10.2041 51.9399L9.88037 51.5166L9.58154 51.0186L9.38232 50.6201L9.20801 50.2217L9.03369 49.6987L8.90918 49.1509L8.83447 48.6279L8.80957 48.2295V12.6689L8.88428 11.9717L9.00879 11.374L9.23291 10.7017L9.45703 10.2036L9.65625 9.83008L9.83057 9.55615L10.0796 9.20752L10.3286 8.88379L10.5029 8.70947L10.5278 8.65967H10.5776L10.6274 8.56006L10.9761 8.23633L11.3994 7.9126L11.6484 7.73828L12.1465 7.43945L12.7192 7.16553L13.3916 6.94141L13.9395 6.81689L14.5869 6.74219ZM14.811 9.63086L14.3877 9.68066L13.8647 9.83008L13.3916 10.0542L13.0928 10.2534L12.8188 10.4775L12.4951 10.8013L12.2461 11.1499L12.0718 11.4487L11.8726 11.9219L11.748 12.4448L11.7231 12.6689V48.3291L11.7979 48.8271L11.9722 49.3501L12.2212 49.8232L12.4453 50.1221L12.7192 50.4209L12.9683 50.645L13.2173 50.8193L13.6157 51.0435L13.9644 51.1929L14.4873 51.3174L14.9854 51.3672H36.6504L36.6753 43.0747L36.75 42.4771L36.8745 41.979L37.0737 41.4561L37.3477 40.9331L37.5469 40.6343L37.8208 40.2856L38.2441 39.8623L38.5679 39.6133L38.9912 39.3394L39.3896 39.1401L39.8877 38.9409L40.3857 38.8164L40.7095 38.7666L41.0083 38.7417L49.2759 38.7168V12.7686L49.2261 12.3452L49.1265 11.9468L48.9771 11.5483L48.7778 11.1748L48.5786 10.9009L48.3545 10.6519L48.0806 10.3779L47.6821 10.104L47.3086 9.90479L46.9102 9.75537L46.4619 9.65576L46.188 9.63086H14.811ZM41.2075 41.6055L40.834 41.6553L40.5103 41.7798L40.2612 41.9292L39.9624 42.2031L39.7881 42.4521L39.6387 42.7759L39.564 43.0249L39.5391 43.2988V51.3423L39.564 51.3672H41.2822L41.5562 51.3174L41.8301 51.168L42.1538 50.8691L42.4775 50.5454V50.4956L42.5771 50.4458V50.396L42.6768 50.3462V50.2964L42.7764 50.2466V50.1968L42.876 50.147V50.0972L42.9756 50.0474V49.9976L43.0752 49.9478V49.8979L43.1748 49.8481V49.7983L43.2744 49.7485V49.6987L43.374 49.6489V49.5991L43.4736 49.5493V49.4995L43.5732 49.4497V49.3999L43.6729 49.3501V49.3003L43.7725 49.2505V49.2007L43.8721 49.1509V49.1011L43.9717 49.0513V49.0015L44.0713 48.9517V48.9019L44.1709 48.8521V48.8022L44.2705 48.7524V48.7026L44.3701 48.6528V48.603L44.4697 48.5532V48.5034L44.5693 48.4536V48.4038L44.6689 48.354V48.3042L44.7686 48.2544V48.2046L44.8682 48.1548V48.105L44.9678 48.0552V48.0054L45.0674 47.9556V47.9058L45.167 47.856V47.8062L45.2666 47.7563V47.7065L45.3662 47.6567V47.6069L45.4658 47.5571V47.5073L45.5654 47.4575V47.4077L45.665 47.3579V47.3081L45.7646 47.2583V47.2085L45.8643 47.1587V47.1089L45.9639 47.0591V47.0093L46.0635 46.9595V46.9097L46.1631 46.8599V46.8101L46.2627 46.7603V46.7104L46.3623 46.6606V46.6108L46.4619 46.561V46.5112L46.5615 46.4614V46.4116L46.6611 46.3618V46.312L46.7607 46.2622V46.2124L46.8604 46.1626V46.1128L46.96 46.063V46.0132L47.0596 45.9634V45.9136L47.1592 45.8638V45.814L47.2588 45.7642V45.7144L47.3584 45.6646V45.6147L47.458 45.5649V45.5151L47.5576 45.4653V45.4155L47.6572 45.3657V45.3159L47.7568 45.2661V45.2163L47.8564 45.1665V45.1167L47.9561 45.0669V45.0171L48.0557 44.9673V44.9175L48.1553 44.8677V44.8179L48.2549 44.7681V44.7183L48.3545 44.6685V44.6187L48.4541 44.5688L49.0269 43.9961L49.1763 43.772L49.251 43.5977L49.2759 43.4731V41.6055H41.2075Z" fill="white"/>
<path d="M23.3281 13.2422H37.647L38.2197 13.3169L38.6431 13.4414L39.0415 13.6157L39.4399 13.8398L39.7637 14.0889L40.0625 14.3628L40.2866 14.6367L40.5107 14.9604L40.6602 15.2095L40.8594 15.6826L40.9839 16.1558L41.0337 16.5044V25.3945L40.959 25.8428L40.8096 26.3408L40.5605 26.8638L40.3364 27.1875L40.1372 27.4365L39.9878 27.6108L39.7886 27.7852L39.4648 28.0342L38.9917 28.3081L38.5186 28.4824L37.9956 28.6069L37.4976 28.6567H23.5273L23.1289 28.6318L22.606 28.5322L22.1328 28.3579L21.7344 28.1587L21.311 27.8599L20.9126 27.4863L20.6636 27.1875L20.3896 26.7642L20.1904 26.3408L20.0659 25.9424L19.9912 25.5938L19.9663 25.3945L19.9414 24.7471V16.853L19.9912 16.2803L20.1157 15.7573L20.2651 15.3838L20.4644 14.9854L20.6636 14.7114L20.8379 14.4873L20.9624 14.3379H21.0122L21.062 14.2383L21.2612 14.064L21.6348 13.79L21.9834 13.5908L22.4814 13.3916L22.8799 13.292L23.3281 13.2422ZM23.5522 16.1309L23.2783 16.1807L23.0791 16.3301L22.9297 16.5044L22.855 16.7783V25.1455L22.9297 25.3696L23.0293 25.519L23.2036 25.6685L23.4277 25.7432L23.7266 25.7681H35.3062L37.5972 25.7432L37.7964 25.6685L37.9956 25.4941L38.1201 25.2451L38.145 25.1206V16.7534L38.0454 16.4795L37.8711 16.2803L37.647 16.1558L37.4727 16.1309H23.5522Z" fill="white"/>
<path d="M17.8999 31.8906L43.4248 31.9155L43.6987 31.9902L43.9478 32.1147L44.1968 32.314L44.3711 32.5132L44.5703 32.9116L44.6201 33.1108V33.584L44.5205 33.9077L44.3711 34.1816L44.147 34.4307L43.9478 34.5801L43.6738 34.7046L43.3999 34.7793L42.9766 34.8042H18.0742L17.7007 34.7793L17.3521 34.6797L17.103 34.5303L16.854 34.3062L16.6797 34.0571L16.5801 33.8579L16.5054 33.6089L16.4805 33.2852L16.5303 32.9863L16.6548 32.6626L16.8291 32.4136L17.0532 32.1895L17.3521 32.0151L17.6509 31.9155L17.8999 31.8906Z" fill="white"/>
<path d="M17.7002 38.1953H33.3887L33.7622 38.2451L34.061 38.3696L34.3101 38.5439L34.4844 38.7183L34.6338 38.9424L34.7334 39.1416L34.8081 39.4155V39.8638L34.7085 40.2124L34.5342 40.5112L34.3101 40.7603L33.9863 40.9595L33.6875 41.0591L33.5381 41.084L33.0649 41.1089H31.5957L17.6006 41.084L17.252 40.9844L16.978 40.835L16.729 40.6108L16.5796 40.4116L16.4053 40.0381L16.3555 39.7891V39.54L16.4302 39.1914L16.5298 38.9673L16.6792 38.7432L16.8535 38.5439L17.2021 38.3198L17.501 38.2202L17.7002 38.1953Z" fill="white"/>
<path d="M17.6504 44.4922H32.6665L33.0151 44.5669L33.314 44.7163L33.563 44.9404L33.7373 45.1396L33.8867 45.4385L33.9614 45.6875V46.1855L33.8618 46.4844L33.6875 46.8081L33.5879 46.9326L33.314 47.1567L32.9902 47.3062L32.6665 47.3809H17.6255L17.3267 47.3062L16.978 47.1318L16.729 46.9077L16.5547 46.6587L16.4053 46.335L16.3555 46.0859V45.812L16.4551 45.4136L16.5796 45.1646L16.8535 44.8408L17.1025 44.6665L17.3018 44.5669L17.6504 44.4922Z" fill="white"/>
</svg>
