<svg width="512" height="512" viewBox="0 0 512 512" fill="none" xmlns="http://www.w3.org/2000/svg">
<path d="M174.75 15.75H400L405 16.25L409 17.5L413.25 19.75L416 22L421.25 27.25L423 29.25L426.75 33.25L429 35.75L433 40L435.75 43L436.5 43.75V44.25H437L438.75 46.25L442.5 50.25L445.25 53.25L457.25 66.25L460.75 70L463.5 73L467 76.75L467.5 77.75H468L469.75 79.75L472.75 83L476.5 87L479.25 90L497.25 109.5L500 113.25L502 117.5L503 121.5L503.25 124V473L502.75 477.25L501.5 481.25L499.75 484.75L497.25 488L494.5 490.75L491 493L487.25 494.75L483 495.75L480.75 496H173L169.5 495.5L165.5 494.25L161.5 492L158 489L155.75 486.5L153.5 483L152 479.25L151.25 476.25L151 474.25V37.25L151.75 33.5L153.25 29.5L155 26.5L157 24L157.5 23.25H158V22.75L160.75 20.5L163.25 18.75L167.25 17L170 16.25L174.75 15.75ZM239.25 176L236.75 176.25L234.75 177.25L233 178.75L231.5 181.75L231.25 182.75V185L232 187.5L233.5 189.5L235 190.75L237.75 191.75H408.5L411.25 190.75L413.5 188.75L414.75 186.25L415 185.25V182.75L414 180L412.5 178L410.5 176.75L409 176.25L406.5 176H239.25ZM239.25 240L236.75 240.25L234.75 241.25L233 242.75L231.5 245.75L231.25 247V249L232 251.5L233.5 253.5L235 254.75L237.75 255.75H408.5L411.25 254.75L413.5 252.75L414.75 250.25L415 249.25V246.75L414 244L412.5 242L410.5 240.75L409 240.25L406.5 240H239.25ZM239.25 304L236.75 304.25L234.75 305.25L233 306.75L231.5 309.75L231.25 311V313L232 315.5L233.5 317.5L235 318.75L237.75 319.75H408.75L411.25 318.75L413.5 316.75L414.75 314.25L415 313.25V310.75L414 308L412.5 306L410.5 304.75L409 304.25L406.5 304H239.25Z" fill="white"/>
<path d="M134.75 154.25H135.25V406.25L134.5 406L132.75 404L130.25 401.5V401L129.5 400.75L127.75 398.75L119.5 390.5V390H119L117.25 388L109 379.75L107.25 377.75L98 368.5V368H97.5L95.75 366L89.5 359.75L87.75 357.75L79.5 349.5V349H79L77.25 347L68 337.75L66.25 335.75L57 326.5V326H56.5L54.75 324L48.5 317.75L46.75 315.75L38.5 307.5V307H38L36.25 305L28.25 297L26 294.25L23.5 290L22.25 286.25L21.75 284L21.5 281.75V279L22.25 274.25L23.25 271.25L25.25 267.25L28.5 263.25L32.25 259.5L34 257.5L42.25 249.25L42.5 248.75H43L43.5 247.75H44L44.5 246.75L53 238.25L54.75 236.25L60.75 230.25L62 228.75H62.5L63 227.75L70.25 220.5L72 218.5L81.25 209.25L81.5 208.75H82L82.5 207.75L91 199.25L92.25 197.75L100.75 189.25L101 188.75H101.5V188.25H102V187.75H102.5L103 186.75L110.25 179.5L112 177.5L120.25 169.25L121.5 167.75H122L122.5 166.75L131.75 157.5L133.5 155.5L134.75 154.25Z" fill="white"/>
<path d="M134.75 68.75L135.25 69V131.25L133.5 133.25L131.25 135.5L129.5 137.5L120.5 146.5L118.75 148.5L112.75 154.5L112.5 155H112V155.5H111.5V156H111L110.5 157H110L109.5 158L102.25 165.25L100.5 167.25L94.25 173.5L93 175H92.5L92 176L83.5 184.5L81.75 186.5L74.25 194L74 194.5H73.5V195H73L72.5 196L65 203.5L63.75 205H63.25L62.75 206L52.5 216.25L51.75 217.25H51.25L47.75 211.5L44.75 206.75L40.75 200.25L37.75 195.5L34.75 190.5L31.75 185.75L27.75 179.25L24.75 174.5L21.75 169.5L19.25 165.5L17.5 162L16.25 158L15.75 154.75V151.5L16.25 148L17.5 144L19.5 140L22 136.75L24.25 134.5L28.25 131.75L33.75 128.5L41 124.25L44.75 122L50.25 118.75L57.5 114.5L61.25 112.25L72.25 105.75L79.5 101.5L85.75 97.75L110.75 83L123.5 75.5L130.75 71.25L134.75 68.75Z" fill="white"/>
</svg>
