<svg width="384" height="384" viewBox="0 0 384 384" fill="none" xmlns="http://www.w3.org/2000/svg">
<path d="M185.385 36.0546C245.332 30.7213 287.785 94.7213 258.985 147.841C230.185 200.961 153.385 200.535 125.225 147.415C99.8386 99.6279 131.625 40.9613 185.385 36.0546Z" fill="white"/>
<path d="M164.692 347.303H90.8784C84.2651 347.303 71.8918 340.477 66.9851 335.997C38.8251 311.037 56.5318 261.117 79.3584 238.503C116.478 201.383 162.558 213.757 209.918 211.837C212.478 211.837 214.612 213.117 216.318 215.25L170.238 261.33C154.878 277.33 154.665 302.717 156.372 323.837C157.012 331.943 160.212 340.69 164.692 347.517V347.303Z" fill="white"/>
<path d="M232.534 233.602L294.187 295.255L248.961 340.695C238.934 349.442 219.734 348.375 206.934 347.522C192.427 346.455 181.334 335.575 180.267 320.855C179.414 309.335 178.774 289.282 185.814 280.108L232.321 233.815L232.534 233.602Z" fill="white"/>
<path d="M279.041 194.77C284.374 194.13 290.561 195.197 295.467 197.33C301.014 199.89 325.974 224.637 329.174 230.184C340.907 249.81 326.401 265.384 312.321 277.544L250.027 216.53C250.027 216.53 250.027 215.037 250.667 214.397C252.587 211.624 263.467 201.384 266.454 199.464C269.867 197.117 274.774 195.197 279.041 194.77Z" fill="white"/>
</svg>
