<svg width="512" height="512" viewBox="0 0 512 512" fill="none" xmlns="http://www.w3.org/2000/svg">
<path d="M322.067 85.1094L426.227 187.456L427.2 189.496L426.694 190.976L167.574 450.403C131.147 464.483 93.6936 479.923 55.8803 490.496C43.3336 494.003 22.1736 502.589 17.6403 483.816C16.0403 477.176 20.6403 465.136 22.6803 458.229C33.9069 420.149 48.4536 382.003 62.4536 345.083L322.067 85.1094Z" fill="white"/>
<path d="M399.972 16.2703C408.786 15.1237 417.639 17.5503 424.639 23.0303C446.599 40.2037 466.706 68.7103 488.546 86.9903C513.466 120.577 470.466 143.87 451.412 165.897L346.426 62.297L347.252 59.457C362.546 47.497 379.972 18.8703 399.959 16.2703H399.972Z" fill="white"/>
</svg>
