<svg width="292" height="173" viewBox="0 0 292 173" fill="none" xmlns="http://www.w3.org/2000/svg">
<rect width="292" height="173" fill="#141414"/>
<path d="M128.225 54.3125H176.281L176.949 54.3496L177.877 54.498L178.656 54.7207L179.547 55.0918L180.289 55.5L180.809 55.8711L181.18 56.168L181.551 56.502L182.07 57.0215L182.479 57.541L182.85 58.0977L183.184 58.6914L183.518 59.4336L183.74 60.1387L183.926 60.918L184 60.8809V98.3242L183.926 98.3613L183.703 99.2891L183.406 100.18L182.961 101.07L182.59 101.627L182.293 102.035L181.959 102.406L181.922 102.48H181.848L181.773 102.629L181.551 102.852H181.477V102.926L181.068 103.26L180.586 103.631L179.77 104.113L179.139 104.41L178.508 104.633L177.84 104.818L176.949 104.967L176.504 105.004H128.15L127.371 104.93L126.629 104.781L125.998 104.596L125.219 104.262L124.625 103.965L124.031 103.594L123.438 103.111L123.141 102.852L122.621 102.332L122.213 101.812L121.842 101.293L121.471 100.625L121.174 99.957L120.877 99.0664L120.691 98.0645L120.654 97.6934L120.617 62.4766L120.654 61.5488L120.803 60.584L121.062 59.6562L121.285 59.0996L121.582 58.4688L122.027 57.7637L122.473 57.1699L123.029 56.5762L123.326 56.2793L123.846 55.8711L124.328 55.5371L124.959 55.166L125.701 54.832L126.48 54.5723L127.408 54.3867L128.225 54.3125ZM144.182 60.6582L128.299 60.6953L127.928 60.8066L127.594 61.0293L127.408 61.2148L127.26 61.4004L127.111 61.6973L127.037 61.9941L127 63.3301V92.0156L127.074 92.0527L135.832 83.2949L136.129 83.0352L136.686 82.627L137.465 82.2188L138.355 81.9219L139.061 81.8105H140.285L140.953 81.9219L141.547 82.1074L142.326 82.4414L142.846 82.7754L143.365 83.1836L143.551 83.3691H143.625V83.4434L143.922 83.7031L147.373 87.1543H147.484L148.152 86.3379L148.598 85.8184L148.895 85.4473L149.34 84.9277L149.674 84.5195L150.082 84.0371L150.416 83.6289L150.824 83.1465L151.158 82.7383L151.566 82.2559L151.863 81.8848L152.309 81.3652L152.605 80.9941L153.051 80.4746L153.348 80.1035L153.793 79.584L154.09 79.2129L154.535 78.6934L154.832 78.3223L155.277 77.8027L155.574 77.4316L156.02 76.9121L156.316 76.541L156.762 76.0215L157.059 75.6504L157.504 75.1309L157.801 74.7598L158.246 74.2402L158.543 73.8691L158.988 73.3496L159.285 72.9785L159.805 72.459L160.287 72.0879L160.844 71.7539L161.475 71.457L162.217 71.2344L162.662 71.1602L163.07 71.123H163.738L164.369 71.1973L165.148 71.3828L165.854 71.6797L166.299 71.9023L166.781 72.2363L167.189 72.5703L167.709 73.0898L168.043 73.498L168.377 73.8691L168.711 74.2773L169.045 74.6484L169.379 75.0566L169.713 75.4277L170.047 75.8359L170.381 76.207L170.715 76.6152L171.049 76.9863L171.383 77.3945L171.717 77.7656L172.051 78.1738L172.385 78.5449L172.719 78.9531L173.684 80.0664L174.092 80.5488L174.574 81.1055L175.465 82.1445L175.873 82.627L176.355 83.1836L176.801 83.7031L177.135 84.0742L177.469 84.4824L177.654 84.6309V62.3281L177.58 61.7715L177.357 61.3262L177.098 61.0293L176.652 60.7695L176.355 60.6953L173.758 60.6582H144.182Z" fill="black"/>
<path d="M115.904 76.3516H115.979V98.3574L116.053 99.248L116.238 100.287L116.498 101.289L116.832 102.254L117.166 102.996L117.537 103.738L117.982 104.443L118.354 104.963L118.762 105.482L119.133 105.891L119.393 106.188L119.727 106.521L120.023 106.781L120.469 107.152L121.062 107.598L121.768 108.043L122.584 108.488L123.512 108.896L124.625 109.268L125.627 109.49L126.369 109.602L127.26 109.676L173.721 109.713L173.758 109.898L173.387 111.049L172.199 114.834L171.568 116.838L170.938 118.879L170.641 119.695L170.307 120.4L169.936 120.994L169.527 121.514L169.082 121.996L168.674 122.367L168.117 122.775L167.561 123.109L166.967 123.406L166.188 123.703L165 124H163.107L161.475 123.592L157.318 122.479L150.119 120.549L142.92 118.619L141.139 118.137L139.58 117.729L137.947 117.283L135.016 116.504L132.826 115.91L131.268 115.502L128.967 114.871L127.408 114.463L125.59 113.98L123.512 113.424L114.494 111.012L113.158 110.641L112.416 110.381L111.785 110.084L111.229 109.75L110.635 109.305L110.189 108.896L109.707 108.414L109.336 107.932L108.928 107.301L108.594 106.67L108.297 105.891L108.074 105L108 104.777V102.699L108.148 102.143L108.445 101.066L108.816 99.8418L111.154 92.0488L111.785 89.9336L112.564 87.3359L113.752 83.3652L115.088 78.9121L115.57 77.2793L115.756 76.6855L115.904 76.3516Z" fill="black"/>
<path d="M136.055 63.8125H136.945L137.576 63.8867L138.244 64.0352L138.986 64.2949L139.84 64.7402L140.359 65.1113L140.879 65.5566L141.287 65.9648L141.77 66.5957L142.141 67.2266L142.4 67.7832L142.66 68.5625L142.809 69.3047L142.846 69.6016V70.752L142.697 71.6055L142.438 72.459L141.992 73.3867L141.51 74.0918L141.139 74.5L141.102 74.5742H141.027L140.953 74.7227L140.582 75.0566L140.025 75.4648L139.395 75.8359L138.689 76.1328L137.947 76.3555L137.354 76.4668L136.982 76.5039H135.906L135.164 76.3926L134.496 76.207L133.605 75.8359L132.975 75.4648L132.492 75.0938L132.121 74.7598L131.639 74.2773L131.119 73.5723L130.748 72.9043L130.451 72.1621L130.266 71.457L130.154 70.7891L130.117 70.1211L130.191 69.2676L130.34 68.5625L130.525 67.9688L130.822 67.3008L131.082 66.8184L131.527 66.1875L131.973 65.7051L132.344 65.334L132.826 64.9629L133.42 64.5918L134.014 64.2949L134.756 64.0352L135.424 63.8867L136.055 63.8125Z" fill="black"/>
</svg>
