<svg width="41" height="41" viewBox="0 0 41 41" fill="none" xmlns="http://www.w3.org/2000/svg">
<rect x="2.5" y="2.5" width="36" height="36" rx="4.5" fill="#232323" stroke="white"/>
<path d="M16.5249 10.9062H24.4312L24.7231 10.9287L24.9365 10.9624L25.1948 11.0298L25.498 11.1421L25.7227 11.2544L25.9248 11.3779L26.0933 11.5015L26.2393 11.625L26.3853 11.7598L26.5425 11.9282L26.7109 12.1528L26.8345 12.355L26.9692 12.6133L27.0591 12.8379L27.1265 13.0513L27.1826 13.332L27.2163 13.6128V13.77L27.5308 13.7925L27.8115 13.8374L28.0698 13.9048L28.373 14.0171L28.5977 14.1294L28.8335 14.2754L28.9683 14.3765L29.1143 14.5L29.2603 14.6348L29.4175 14.8032L29.5522 14.9829L29.6646 15.1514L29.7769 15.3535L29.8892 15.5894L29.9902 15.8926L30.0464 16.1396L30.0801 16.4092L30.0913 16.6001V24.4053L30.0688 24.7085L30.0127 25.0117L29.9229 25.3037L29.833 25.5283L29.6982 25.7866L29.5972 25.9438L29.4849 26.1011L29.3613 26.2471L29.2041 26.4155L29.0918 26.5166L28.9009 26.6626L28.6987 26.7974L28.4966 26.9097L28.272 27.0107L28.0024 27.1006L27.7104 27.168L27.3398 27.2129H27.2163V27.3701L27.1826 27.6621L27.1265 27.9316L27.0591 28.1562L26.9468 28.4258L26.8232 28.6616L26.7222 28.8188L26.6099 28.9761L26.4863 29.1221L26.3291 29.2905L26.2168 29.3916L26.0259 29.5376L25.8237 29.6724L25.6216 29.7847L25.397 29.8857L25.1274 29.9756L24.8242 30.043L24.5659 30.0767L24.3638 30.0879H16.6597L16.4126 30.0767L16.1543 30.043L15.9072 29.9868L15.6938 29.9194L15.5029 29.8408L15.2896 29.7397L15.0537 29.5938L14.874 29.459L14.7617 29.3579L14.6719 29.2793L14.5146 29.1221L14.436 29.0322L14.29 28.8413L14.1553 28.6279L14.0654 28.4595L13.9419 28.1675L13.8633 27.8979L13.8184 27.6733L13.7847 27.3926V27.2129H13.6724L13.3467 27.1792L13.0659 27.123L12.8188 27.0444L12.6279 26.9658L12.4146 26.8647L12.1787 26.7188L11.999 26.584L11.8867 26.4829L11.7969 26.4043L11.6396 26.2471L11.561 26.1572L11.415 25.9663L11.2803 25.7529L11.1792 25.562L11.0557 25.2588L10.9771 24.978L10.9321 24.7197L10.9097 24.4951L10.8984 24.1133V17.0269L10.9097 16.4766L10.9434 16.1846L11.0107 15.8813L11.1006 15.6118L11.2017 15.3872L11.3027 15.1963L11.46 14.9604L11.5835 14.8032L11.6284 14.7471H11.6509L11.6733 14.7021L11.853 14.5225L11.9429 14.4438L12.1338 14.2979L12.3247 14.1743L12.5269 14.062L12.7964 13.9497L12.9985 13.8823L13.3018 13.8149L13.6274 13.7812H13.7734L13.7959 13.478L13.8408 13.186L13.9082 12.939L13.9756 12.7368L14.0767 12.5122L14.1777 12.3213L14.335 12.0854L14.4585 11.9282L14.627 11.7485L14.728 11.6475L14.8179 11.5688L15.0088 11.4229L15.1997 11.2993L15.4019 11.187L15.6714 11.0747L15.9634 10.9849L16.2554 10.9287L16.5249 10.9062ZM17.6255 12.8267L16.5474 12.8379L16.3789 12.8716L16.1992 12.9502L16.0532 13.0513L15.9297 13.1748L15.8286 13.332L15.7725 13.4443L15.7275 13.6016L15.7163 13.6914V27.3027L15.75 27.4824L15.8062 27.6284L15.9072 27.7856L16.0308 27.9204L16.1206 27.9878L16.2778 28.0776L16.4463 28.1338L16.6035 28.1562L18.7598 28.1675H21.6123L24.3975 28.1562L24.5547 28.1338L24.7231 28.0776L24.8804 27.9878L24.9702 27.9204V27.8979L25.0151 27.8755L25.1274 27.7407L25.2173 27.5723L25.2622 27.4263L25.2847 27.269V13.7476L25.2622 13.5679L25.2061 13.3994L25.1274 13.2534L25.0376 13.1411L24.9365 13.04L24.7793 12.939L24.6445 12.8828L24.5322 12.8491L24.4536 12.8379L23.6226 12.8267H17.6255ZM13.7397 15.7017L13.5039 15.7466L13.3242 15.8252L13.1782 15.9263L13.0435 16.061L12.9536 16.1958L12.8975 16.3193L12.8525 16.4766L12.8413 16.5552V24.4277L12.875 24.6074L12.9312 24.7534L13.0322 24.9106L13.1558 25.0454L13.313 25.1577L13.4927 25.2363L13.6948 25.2812H13.7734L13.7847 25.2251V15.7017H13.7397ZM27.2163 15.7129V25.2812L27.3735 25.27L27.542 25.2251L27.7217 25.1353L27.8677 25.0229L27.9688 24.9106L28.0474 24.7871L28.126 24.6074L28.1597 24.4053V16.6226L28.1372 16.4429L28.0923 16.2969L28.0024 16.1284L27.9126 16.0161L27.8115 15.915L27.6543 15.814L27.4858 15.7466L27.3286 15.7129H27.2163Z" fill="white"/>
</svg>
