<svg width="393" height="393" viewBox="0 0 393 393" fill="none" xmlns="http://www.w3.org/2000/svg">
<path d="M122.419 161.422L128.099 179.692H263.289C272.179 132.392 328.509 110.442 366.529 141.442C397.929 167.052 397.819 214.452 366.939 240.432C329.919 271.572 271.449 250.122 263.689 202.622H127.699C127.349 206.712 125.999 210.632 124.629 214.452C123.729 216.952 120.219 221.902 121.149 223.962L191.669 281.242L193.389 280.952C231.099 245.092 293.369 266.292 301.109 317.742C308.339 365.802 260.139 404.372 214.629 386.642C185.019 375.102 169.089 344.232 175.289 313.262C175.839 310.512 179.569 302.082 178.539 300.442L105.739 241.672C103.699 241.132 98.3493 245.862 96.0893 247.052C47.4393 272.872 -7.75073 231.932 2.53927 177.962C10.7193 135.092 61.4993 113.542 98.5693 136.512C101.129 138.102 106.329 143.422 108.749 142.812L178.159 93.6718C179.199 92.8718 179.749 92.0218 179.669 90.6518C179.569 88.8818 175.939 81.4218 175.279 78.1418C164.099 22.5118 223.959 -20.1182 272.089 10.3818C317.939 39.4318 308.439 109.832 256.699 125.582C233.869 132.532 211.549 126.232 193.799 111.092L122.429 161.412L122.419 161.422ZM208.969 35.4318C171.509 72.8918 227.559 130.242 265.669 94.0418C305.499 56.2118 246.949 -2.55817 208.969 35.4318ZM36.1993 219.902C73.1493 257.372 131.209 201.522 94.8093 163.202C57.2093 123.612 -1.76073 181.422 36.1993 219.902ZM355.209 219.902C393.139 181.442 334.239 123.562 296.599 163.202C260.199 201.532 318.259 257.372 355.209 219.902ZM208.969 355.972C247.479 393.952 305.269 334.972 265.669 297.362C227.339 260.962 171.499 319.022 208.969 355.972Z" fill="white"/>
</svg>
