<svg width="384" height="384" viewBox="0 0 384 384" fill="none" xmlns="http://www.w3.org/2000/svg">
<path d="M300.159 156.374C266.879 136.321 229.546 135.041 193.919 149.334C190.506 150.827 187.306 153.601 183.466 153.387C183.466 152.321 184.746 152.534 185.599 151.467C191.146 144.214 188.372 135.681 180.266 132.267C156.799 131.201 132.906 131.627 109.226 132.054C100.906 134.827 97.2789 145.281 103.679 151.894C104.532 152.961 109.226 155.734 110.292 155.734H178.346C178.346 155.734 182.399 153.814 181.332 155.734C164.266 165.761 150.399 180.054 140.159 196.907C138.239 196.907 139.306 196.694 139.519 195.627C139.732 194.134 140.372 192.854 140.372 191.361C140.372 186.027 135.466 180.481 130.346 179.627C126.932 178.987 112.212 179.201 109.012 179.841C97.0656 182.827 97.9189 200.747 109.652 203.307C112.852 203.947 126.932 203.947 130.346 203.307C133.332 202.881 135.679 200.321 138.239 198.827C138.879 199.467 132.479 212.481 131.412 214.827C118.612 249.174 123.092 288.001 143.146 318.507L152.532 331.307H93.0122C75.7322 331.307 55.8922 313.174 53.3322 296.107C50.7722 223.787 52.9056 151.041 52.2656 78.5074C53.7589 55.6807 69.5456 38.4007 92.3722 35.4141H260.052C277.759 35.4141 300.159 56.1074 300.159 74.0274V155.947V156.374ZM110.506 84.0541C96.4256 87.4674 97.4922 105.814 111.786 107.734H241.279C255.786 105.387 255.786 86.1874 241.279 83.8407H110.506V84.0541Z" fill="white"/>
<path d="M230.4 164.051C321.28 155.944 368.427 267.731 299.307 325.758C243.627 372.691 158.08 338.344 149.12 266.664C142.934 216.958 180.267 168.531 230.4 164.051ZM252.16 243.198V220.371C252.16 218.664 248.747 214.398 247.254 213.331C239.147 207.571 228.907 212.904 228.054 222.718C227.414 229.331 227.2 253.438 228.694 258.984C229.76 263.038 234.027 266.878 238.294 267.304C245.974 268.158 264.96 268.158 272.854 267.304C281.6 266.451 286.507 256.424 281.387 248.958C279.894 246.824 275.414 243.411 272.854 243.411H252.374L252.16 243.198Z" fill="white"/>
</svg>
