<svg width="512" height="512" viewBox="0 0 512 512" fill="none" xmlns="http://www.w3.org/2000/svg">
<path d="M432.161 262.003V474.51C432.161 479.43 422.081 488.336 416.694 488.016C385.081 485.95 350.041 490.763 318.854 488.056C304.841 486.843 299.388 477.723 298.388 464.563C295.681 428.803 300.534 389.696 298.374 353.576C297.334 347.696 292.948 347.363 288.001 346.976C271.988 345.736 238.641 345.256 223.081 347.016C215.854 347.83 214.161 351.59 213.561 358.47C210.388 394.443 216.001 435.07 213.628 471.536C211.748 481.39 203.908 487.163 194.188 488.056C163.134 490.883 127.841 485.856 96.3345 488.016C90.8145 488.616 80.8678 479.296 80.8678 474.51V262.003H46.4412C45.3345 262.003 41.1478 259.456 39.9212 258.536C31.4812 252.123 30.8812 241.963 36.9612 233.51L244.508 28.4831C252.401 22.4431 260.601 22.4431 268.508 28.4831L476.081 233.51C481.694 241.323 481.748 250.216 474.628 257.043C473.334 258.283 467.975 262.003 466.601 262.003H432.174H432.161Z" fill="white"/>
</svg>
