<svg width="540" height="540" viewBox="0 0 540 540" fill="none" xmlns="http://www.w3.org/2000/svg">
<path d="M292.001 524.972C257.551 528.002 222.121 523.752 188.691 512.582C149.071 499.342 116.561 478.762 86.4908 447.872C65.8908 426.722 53.6008 409.192 39.9608 381.502C28.1008 357.442 20.7308 333.552 16.3508 305.002C13.8608 288.762 13.8708 251.022 16.3608 235.002C22.6708 194.472 36.1108 159.332 57.5008 127.472C97.6008 67.7316 159.871 28.3516 232.501 16.7816C251.111 13.8216 287.111 13.6316 305.501 16.4016C320.751 18.7016 344.601 24.6816 357.501 29.4316C382.321 38.5716 410.321 54.4716 431.121 71.2316C441.611 79.6916 461.661 99.8316 470.191 110.502C493.401 139.502 511.071 176.222 519.471 212.952C524.121 233.232 525.421 245.872 525.411 270.502C525.411 294.302 524.291 305.432 519.911 325.502C511.641 363.332 491.931 403.572 467.241 433.002C422.591 486.242 360.231 518.972 292.001 524.972ZM258.001 426.402C263.181 427.002 277.171 426.152 283.221 424.872C288.081 423.842 318.401 413.002 321.921 411.022C323.431 410.182 328.401 393.002 327.141 393.002C326.791 393.002 324.251 393.852 321.501 394.892C310.141 399.192 294.731 399.502 287.151 395.582C279.981 391.872 278.411 381.162 282.301 362.502C283.681 355.902 288.881 336.102 293.851 318.502C303.361 284.842 304.481 279.732 305.421 266.002C306.781 246.012 299.081 231.622 283.051 224.192C271.961 219.062 255.541 217.592 240.751 220.422C233.951 221.722 214.851 227.882 202.501 232.752L197.501 234.732L195.361 243.112C194.191 247.732 193.621 251.652 194.111 251.832C194.601 252.022 198.031 251.122 201.751 249.832C211.011 246.632 226.761 246.482 231.961 249.542C237.771 252.942 239.501 257.102 239.471 267.502C239.451 277.902 238.421 282.432 226.481 325.002C217.111 358.372 215.201 366.892 214.341 378.992C213.251 394.562 217.031 405.172 226.891 414.182C234.781 421.402 243.141 424.682 258.001 426.402ZM286.171 184.992C300.421 187.092 314.951 181.892 323.261 171.722C328.041 165.862 329.661 162.402 330.971 155.192C333.851 139.302 325.551 124.042 310.001 116.612C303.951 113.712 302.741 113.502 292.501 113.502C282.621 113.502 280.911 113.782 275.701 116.222C267.571 120.032 258.931 128.912 256.161 136.292C253.261 144.052 253.261 153.942 256.161 161.692C260.361 172.932 273.481 183.112 286.171 184.992Z" fill="black"/>
</svg>
