<svg width="384" height="384" viewBox="0 0 384 384" fill="none" xmlns="http://www.w3.org/2000/svg">
<path d="M328.609 192.748C313.819 189.858 298.559 194.948 287.449 204.748C294.029 157.098 262.479 110.458 216.049 98.8977C149.959 82.4477 88.7793 137.478 97.2993 204.748C86.1893 194.948 70.9293 189.858 56.1393 192.748V177.368C56.1393 173.468 50.2593 165.588 47.1793 163.098C42.4193 159.258 32.0593 156.888 30.8593 150.938C30.0493 146.968 34.6593 131.688 38.2093 129.388C42.6893 126.498 49.3393 129.458 54.2793 129.718C60.9393 130.068 66.9893 128.708 72.2193 124.458C76.1993 121.228 90.3393 101.538 91.6993 96.7277C93.2193 91.3477 93.1693 87.8677 91.6793 82.4977C90.0393 76.5677 84.0793 70.4177 85.4993 64.2577C86.1993 61.1977 95.6393 54.2377 98.5693 52.6077C109.659 46.4677 113.649 59.1677 121.769 63.5877C124.309 64.9777 128.589 66.3877 131.459 66.6277C138.099 67.1777 162.789 59.0777 168.019 54.6977C178.489 45.9477 174.929 31.0377 179.999 26.1977C183.259 23.0877 198.389 23.1777 202.399 24.7877C208.539 27.2577 207.709 37.7477 209.349 43.3277C211.599 50.9377 217.149 56.1677 224.349 59.0477C235.499 63.4977 251.289 69.6877 262.489 63.8477C270.759 59.5377 275.289 46.5677 286.169 52.5977C288.499 53.8877 296.519 59.8377 297.909 61.8377C302.229 68.1077 296.539 73.4377 294.349 79.2677C290.859 88.5277 290.999 94.7677 296.249 103.258C302.599 113.538 312.339 128.558 325.239 129.708C331.469 130.258 341.889 126.368 346.539 129.368C349.879 131.528 354.249 145.618 354.119 149.588C353.889 156.728 341.759 159.578 336.449 164.188C333.739 166.548 328.609 173.838 328.609 177.328V192.708V192.748Z" fill="white"/>
<path d="M139.779 248.43L243.649 248.25C254.489 250 263.119 258.5 264.219 269.64C266.769 295.42 262.299 325.21 264.259 351.41C264.299 356.46 260.709 360.07 255.649 360.03H129.089C124.049 360.07 120.449 356.48 120.479 351.41C122.669 325.3 117.609 294.52 120.589 268.96C121.789 258.67 129.869 250.67 139.779 248.43Z" fill="white"/>
<path d="M300.729 288.191C308.879 287.081 331.169 287.081 339.379 288.081C350.359 289.421 359.129 299.191 360.069 310.101C360.939 320.131 361.159 342.331 360.039 352.131C359.479 357.061 356.519 359.921 351.459 360.031C331.269 358.501 308.369 361.961 288.519 360.031C282.579 359.451 280.429 356.451 279.919 350.651C279.119 341.631 278.879 313.121 281.039 305.211C283.369 296.721 292.089 289.361 300.729 288.191Z" fill="white"/>
<path d="M44.7302 288.198C52.7602 287.038 75.1702 287.138 83.3802 288.088C96.0602 289.558 103.87 300.118 104.82 312.358C105.57 322.048 105.85 341.958 104.8 351.388C104.26 356.238 101.99 359.358 96.9602 360.028C76.4902 358.548 53.4402 361.938 33.2902 360.038C27.5902 359.498 25.2202 357.168 24.6802 351.418C23.8602 342.678 23.6102 313.338 25.5002 305.688C27.6402 297.058 35.9202 289.478 44.7302 288.208V288.198Z" fill="white"/>
<path d="M186.22 152.46C242.08 145.74 247.18 226.46 197.9 231.66C142.86 237.47 137.75 158.3 186.22 152.46Z" fill="white"/>
<path d="M187.73 111.969C237.66 108.749 278.24 153.309 271.62 202.779C270.49 211.229 265.78 236.299 253.19 231.179C244.71 227.739 250.64 219.349 252.27 214.139C261.52 184.539 252.84 154.229 225.99 137.689C178.39 108.349 119.97 149.119 129.71 204.159C130.68 209.619 136.67 222.259 135.93 225.789C135.39 228.399 132.5 231.289 129.81 231.719C121.93 232.969 119.73 226.159 117.49 220.149C98.5303 169.469 134.34 115.419 187.72 111.979L187.73 111.969Z" fill="white"/>
<path d="M42.1795 262.993C13.3995 234.973 53.7895 188.923 85.3395 215.623C118.48 243.673 73.4695 293.453 42.1795 262.993Z" fill="white"/>
<path d="M317.981 207.957C356.671 205.297 364.751 262.367 327.891 271.157C282.921 281.877 272.731 211.077 317.981 207.957Z" fill="white"/>
</svg>
