<svg width="384" height="384" viewBox="0 0 384 384" fill="none" xmlns="http://www.w3.org/2000/svg">
<g clip-path="url(#clip0_2086_315)">
<mask id="mask0_2086_315" style="mask-type:luminance" maskUnits="userSpaceOnUse" x="51" y="51" width="282" height="282">
<path d="M333 51H51V333H333V51Z" fill="white"/>
</mask>
<g mask="url(#mask0_2086_315)">
<path d="M202.723 333H187.881C184.43 331.164 181.566 330.496 178.533 327.771C166.217 316.726 171.321 297.192 186.905 292.639C192.06 291.133 197.656 291.728 202.995 291.133C281.793 282.351 319.099 187.006 266.217 127.566C258.359 133.764 247.52 153.431 237.636 139.118C234.338 115.787 231.922 92.3235 229.638 68.8603C229.954 64.2631 234.221 60.716 238.737 60.8555L304.655 68.1112C311.432 69.4698 314.649 75.0363 311.491 81.4768C309.854 83.9443 295.592 96.6417 295.71 97.9856C302.738 106.548 309.56 115.251 314.965 124.974C363.919 213.084 303.487 325.634 203.604 332.479L202.73 332.986L202.723 333Z" fill="white"/>
<path d="M195.577 51C213.327 54.5544 219.312 77.0409 204.338 88.1447C197.208 93.4322 189.783 91.9488 181.566 92.8667C107.18 101.158 67.7739 188.203 112.358 249.222C113.195 250.368 117.697 256.596 118.82 256.405C120.612 256.089 131.892 241.798 135.344 240.432C139.574 238.757 145.111 240.564 146.925 244.882C148.504 248.635 149.282 261.751 149.877 266.708C151.816 282.813 153.307 298.991 154.915 315.14C154.592 319.943 149.943 323.549 145.258 323.137L79.8984 315.889C73.5094 314.993 69.5217 308.281 73.0687 302.538C74.868 299.63 88.968 287.52 88.8358 286.022C81.8078 277.459 74.9855 268.757 69.5805 259.034C20.7152 171.033 80.787 58.8945 180.398 51.4994L181.279 51H195.57H195.577Z" fill="white"/>
</g>
</g>
<defs>
<clipPath id="clip0_2086_315">
<rect width="282" height="282" fill="white" transform="translate(51 51)"/>
</clipPath>
</defs>
</svg>
