<svg width="512" height="512" viewBox="0 0 512 512" fill="none" xmlns="http://www.w3.org/2000/svg">
<g clip-path="url(#clip0_1827_447)">
<path d="M482.559 207.998C489.159 209.092 495.239 215.798 496.052 222.478L496.012 452.492C493.132 476.212 474.692 494.358 450.665 496.052H77.3052C53.9319 493.878 35.6385 475.772 32.9452 452.492L32.9185 227.518C23.3185 190.985 -0.174798 148.198 41.6119 122.212C158.572 83.9317 278.132 52.6384 396.212 17.4917C414.359 12.2117 435.985 20.9051 445.945 36.6784C451.625 45.6784 466.225 91.6384 467.839 102.732C469.039 110.972 467.092 115.998 460.452 120.852C364.012 150.625 266.212 176.065 169.679 205.505C168.052 205.998 164.239 206.465 163.679 207.998H482.559ZM342.332 66.0117C341.292 67.1717 347.585 72.8784 348.785 74.0251C361.025 85.7584 373.852 96.9984 386.212 108.598C388.932 109.358 409.692 102.852 414.172 101.492C416.959 100.652 431.679 96.7051 432.079 95.3717C427.759 85.5184 424.239 58.2251 417.065 51.5851C413.665 48.4384 408.465 47.2651 403.932 48.2251L342.319 65.9851L342.332 66.0117ZM350.305 119.985C350.812 118.038 349.519 118.052 348.639 117.172C334.865 103.345 319.825 90.6117 305.692 77.1451L235.532 97.0117C235.065 98.9317 236.239 98.9317 237.212 99.8251C251.665 113.012 265.452 126.905 280.145 139.852L350.305 119.998V119.985ZM243.519 150.985C244.452 149.692 238.332 144.185 237.065 142.972C224.665 131.105 211.772 119.385 198.865 108.185C178.425 113.918 157.519 118.932 137.732 126.518L171.652 159.518L182.199 168.025L185.892 167.785L243.519 150.998V150.985ZM58.8919 203.998L145.705 178.492L102.559 137.745C100.945 136.785 99.3585 136.932 97.5852 137.185C91.3585 138.078 63.9052 146.292 58.5585 149.145C37.9852 160.132 57.5319 187.585 58.8919 203.985V203.998ZM147.705 239.998H64.8652V287.998H119.265C129.212 272.358 139.585 256.625 147.705 239.998ZM259.492 239.998H186.132L157.692 287.998H231.052C241.172 272.465 251.265 256.545 259.492 239.998ZM371.279 239.998H297.919L269.479 287.998H342.839C352.959 272.465 363.052 256.545 371.279 239.998ZM464.092 239.998H409.692L381.252 287.998H464.092V239.998Z" fill="white"/>
</g>
<defs>
<clipPath id="clip0_1827_447">
<rect width="512" height="512" fill="white"/>
</clipPath>
</defs>
</svg>
