<svg width="512" height="512" viewBox="0 0 512 512" fill="none" xmlns="http://www.w3.org/2000/svg">
<g clip-path="url(#clip0_1826_350)">
<path d="M247.541 512C238.941 508.194 230.624 505.375 223.576 498.467C219.629 494.52 210.607 479.718 210.607 474.502V303.366H44.404C20.7211 303.366 0.703521 278.555 0.84449 256C0.985459 233.445 22.1308 209.621 46.3775 209.621H210.607V38.4846C210.607 30.5904 222.73 14.8018 229.074 10.0089C258.254 -11.7004 303.364 9.58595 303.364 46.3789V209.621H467.593C471.541 209.621 480.422 212.159 484.228 213.85C499.17 220.335 508.052 234.15 511.999 249.515V265.445C509.32 270.097 508.615 274.749 505.796 279.683C499.452 291.101 482.959 303.366 469.567 303.366H303.364V466.608C303.364 470.132 301.109 478.449 299.84 482.115C294.06 498.185 279.682 508.335 263.47 512H247.541Z" fill="white"/>
</g>
<defs>
<clipPath id="clip0_1826_350">
<rect width="512" height="512" fill="white"/>
</clipPath>
</defs>
</svg>
