<svg width="384" height="384" viewBox="0 0 384 384" fill="none" xmlns="http://www.w3.org/2000/svg">
<path d="M312.214 384H71.4238C29.1438 381.11 2.99378 352.4 1.09378 310.16C-2.38622 232.59 3.79378 152.43 1.09378 74.5901C1.60378 35.5201 30.4638 4.47015 69.5138 2.21015C120.324 -0.73985 173.974 4.48014 225.074 2.26014C240.714 3.84014 241.924 24.9601 226.584 27.7501C175.974 30.0001 122.814 24.7601 72.5038 27.7101C48.4538 29.1201 30.2638 44.1801 27.2638 68.5901V317.65C29.4138 338.72 46.2738 355.62 67.2738 357.77H315.594C339.934 354.74 354.954 336.56 356.354 312.4C359.294 261.94 354.074 208.62 356.314 157.86C359.394 141.91 380.874 144.16 381.764 160.08C379.274 211.21 384.984 265.36 381.764 316.14C379.334 354.49 349.584 381.63 312.184 383.98L312.214 384Z" fill="white"/>
<path d="M383.993 66C383.973 66.25 384.013 66.5 383.993 66.75C383.373 73.36 381.134 80.32 376.894 85.51L161.104 301.83C135.314 309.6 107.894 313.01 81.4435 318.73C73.6135 320.54 65.9635 314.45 65.8535 306.38C71.7035 281.68 73.9435 253.62 80.6135 229.35C81.2235 227.12 81.9435 224.98 83.3835 223.13L298.734 7.12C303.914 2.87 310.844 0.62 317.434 0H318.184C321.774 1.09 325.174 1.08 328.854 2.42C331.414 3.35 334.334 5.08999 336.484 6.76999C346.074 14.29 368.633 37.23 376.523 46.86C378.603 49.4 380.444 52.19 381.574 55.3C382.914 58.99 382.894 62.4 383.984 66.01L383.993 66ZM315.724 26.41L287.583 55.03L329.674 96.7L357.113 69.42C358.273 67.64 358.233 65.04 357.113 63.34L320.854 26.97C319.504 25.99 317.304 25.93 315.734 26.41H315.724ZM95.3535 289.5L148.094 279.02L311.454 115.12L269.214 72.76L105.804 236.6L95.3535 289.49V289.5Z" fill="white"/>
</svg>
