<svg width="512" height="512" viewBox="0 0 512 512" fill="none" xmlns="http://www.w3.org/2000/svg">
<g clip-path="url(#clip0_3742_577)">
<path d="M333.5 0H355L369 1.75L377.75 3.25L387.5 5.5L396 8L403.75 10.75L410.5 13.5L417.5 16.75L423.5 19.75L429.25 23L434.5 26.25L440 30L444.25 33L448 36L451.5 38.75L454 41L456 42.75L458.5 45L460 46.25V46.75L461 47.25L465.5 51.75L467.25 53.75L470.5 57.25L472.75 60L475.5 63.25L479.25 68.25L482.5 72.75L484.5 75.75L488 81.25L491.25 87L494.25 92.75L496.25 96.75L499.5 104L502.75 112.75L505.5 121.25L507.5 129L509 136L510.5 145L511.5 153.5L512 158.25V176.75L510.75 188.5L509.25 198.25L507.5 206.75L505.25 215.25L502.25 224.25L499.75 231L496.75 237.75L493.75 244L491 249.25L488.5 253.5L485.75 258L483.25 261.75L479.75 266.75L477.25 270L474.5 273.5L471.75 276.75L469.5 279.25L467.75 281.25L465 284.25L459.25 290L457.25 291.75L454 294.75L448.5 299.25L445.25 301.75L440.5 305.25L436.75 307.75L431.25 311.25L424.75 315L418 318.5L410 322.25L401 325.75L392 328.75L383.5 331L375.25 332.75L365.5 334.25L355.5 335.25L351.25 335.5H336L326.5 334.75L317 333.5L308 331.75L298 329.25L288.5 326.25L280.75 323.25L273.25 320L265.25 316L260.75 313.5L254.5 309.75L250.75 307.25L246.75 304.5L242.75 301.5L239 298.5L236.25 296.25L232.75 293.25L231.5 292L230.5 292.25L229.75 293H229.25L228.75 294L201 321.75L200.25 322.25L200.75 323.25L202.75 325.5L205 329.25L206.5 333.25L207.25 337.25V341.75L206.25 346.75L205 349.75L203 353.25L200.25 356.5L53.25 503.5L49.75 506.25L46.5 508.25L42 510.25L37.75 511.5L35.25 512H27.5L21 510.25L17 508.5L14 506.75L10.75 504.25L7 500.5L4.75 497.25L2.25 492.5L0.75 488L0 484.75V475.75L1.75 469.75L3.5 465.75L5.25 462.75L8 459.25L157.25 310L160.5 307.75L164.25 306L167.75 305L169.5 304.75H175L179 305.5L182.25 306.75L185 308.25L188 310.5L189.5 311.75L220 281.25L219.5 280.25L216.5 276.75L213.75 273.5L208.75 267L205.75 262.75L202.75 258.25L200.75 255L198.5 251.25L196 246.75L192.75 240.5L189.5 233.25L187 227L184 218.5L182 211.75L179.75 202.25L178.5 195.5L177.25 186.5L176.5 177.75L176.25 171.5V163.75L176.75 154.25L177.75 145L179.25 136L181.25 127L183.75 118L187 108.5L190.5 100L194.75 91.25L197.5 86L201.5 79.25L206 72.5L208.5 69L211.5 65L214.75 61L217 58.25L219.5 55.5L221.25 53.5L223.25 51.5L223.75 50.75H224.25L224.75 49.75L226.75 47.75L228.75 46L231.5 43.25L234.25 41L236.75 38.75L240.25 36L244.75 32.5L249.75 29L255.5 25.25L258.75 23.25L264 20.25L269.75 17.25L275.5 14.5L283.25 11.25L290.25 8.75L297.25 6.5L305 4.5L312 3L320.5 1.5L331 0.25L333.5 0Z" fill="#141414"/>
<path d="M333.314 0H354.814L368.814 1.75L377.564 3.25L387.314 5.5L395.814 8L403.564 10.75L410.314 13.5L417.314 16.75L423.314 19.75L429.064 23L434.314 26.25L439.814 30L444.064 33L447.814 36L451.314 38.75L453.814 41L455.814 42.75L458.314 45L459.814 46.25L460.814 47.25L465.314 51.75L467.064 53.75L470.314 57.25L472.564 60L475.314 63.25L479.064 68.25L482.314 72.75L484.314 75.75L487.814 81.25L491.064 87L494.064 92.75L496.064 96.75L499.314 104L502.564 112.75L505.314 121.25L507.314 129L508.814 136L510.314 145L511.314 153.5L511.814 158.25V176.75L510.564 188.5L509.064 198.25L507.314 206.75L505.064 215.25L502.064 224.25L499.564 231L496.564 237.75L493.564 244L490.814 249.25L488.314 253.5L485.564 258L483.064 261.75L479.564 266.75L477.064 270L474.314 273.5L471.564 276.75L469.314 279.25L467.564 281.25L464.814 284.25L459.064 290L457.064 291.75L453.814 294.75L448.314 299.25L445.064 301.75L440.314 305.25L436.564 307.75L431.064 311.25L424.564 315L417.814 318.5L409.814 322.25L400.814 325.75L391.814 328.75L383.314 331L375.064 332.75L365.314 334.25L355.314 335.25L351.064 335.5H335.814L326.314 334.75L316.814 333.5L307.814 331.75L297.814 329.25L288.314 326.25L280.564 323.25L273.064 320L265.064 316L260.564 313.5L254.314 309.75L250.564 307.25L246.564 304.5L242.564 301.5L238.814 298.5L236.064 296.25L232.564 293.25L231.314 292L230.314 292.25L229.564 293L228.564 294L200.814 321.75L200.064 322.25L200.564 323.25L202.564 325.5L204.814 329.25L206.314 333.25L207.064 337.25V341.75L206.064 346.75L204.814 349.75L202.814 353.25L200.064 356.5L53.0645 503.5L49.5645 506.25L46.3145 508.25L41.8145 510.25L37.5645 511.5L35.0645 512H27.3145L20.8145 510.25L16.8145 508.5L13.8145 506.75L10.5645 504.25L6.81445 500.5L4.56445 497.25L2.06445 492.5L0.564453 488L-0.185547 484.75V475.75L1.56445 469.75L3.31445 465.75L5.06445 462.75L7.81445 459.25L157.064 310L160.314 307.75L164.064 306L167.564 305L169.314 304.75H174.814L178.814 305.5L182.064 306.75L184.814 308.25L187.814 310.5L189.314 311.75L219.814 281.25L219.314 280.25L216.314 276.75L213.564 273.5L208.564 267L205.564 262.75L202.564 258.25L200.564 255L198.314 251.25L195.814 246.75L192.564 240.5L189.314 233.25L186.814 227L183.814 218.5L181.814 211.75L179.564 202.25L178.314 195.5L177.064 186.5L176.314 177.75L176.064 171.5V163.75L176.564 154.25L177.564 145L179.064 136L181.064 127L183.564 118L186.814 108.5L190.314 100L194.564 91.25L197.314 86L201.314 79.25L205.814 72.5L208.314 69L211.314 65L214.564 61L216.814 58.25L219.314 55.5L221.064 53.5L223.064 51.5L223.564 50.75L224.564 49.75L226.564 47.75L228.564 46L231.314 43.25L234.064 41L236.564 38.75L240.064 36L244.564 32.5L249.564 29L255.314 25.25L258.564 23.25L263.814 20.25L269.564 17.25L275.314 14.5L283.064 11.25L290.064 8.75L297.064 6.5L304.814 4.5L311.814 3L320.314 1.5L330.814 0.25L333.314 0ZM340.314 15L330.814 15.5L322.064 16.5L313.314 18L307.314 19.25L300.814 21L295.314 22.75L293.314 23.5L290.314 24.5L287.314 25.75L283.564 27.25L280.064 29L275.564 31L270.814 33.5L264.814 37L262.064 38.75L258.564 41L256.564 42.25L255.314 43.25L254.814 43.5L253.564 44.5L250.814 46.5L249.814 47.5L246.314 50.25L243.564 52.75L240.814 55L238.564 57L236.814 59L234.314 61.5L232.564 63L230.564 65.5L229.314 66.75L226.314 70.25L224.314 72.75L223.564 73.5L222.564 75L221.064 77L219.814 78.75L219.064 79.5L218.314 80.75L217.314 82L216.314 83.75L215.314 85L214.564 86.5L213.314 88.25L211.814 91L209.814 94.5L208.314 97L205.814 102.25L203.814 106.75L202.814 108.75L201.564 112.25L200.564 114.75L197.564 123.75L195.564 131.25L194.064 137.75L192.814 145.25L192.064 150.5L191.314 159.75V175.5L192.064 184.5L192.814 191.75L193.314 193.5L195.064 202.5L197.314 211L199.814 218.75L200.314 220.5L201.564 223.25L203.314 228L205.064 231.5L207.814 237.25L210.564 242.5L214.314 248.75L218.314 254.75L220.814 258.25L223.314 261.5L226.064 265L228.314 267.5L230.564 270.25L233.564 273.25L234.814 274.75L237.064 277L239.064 278.75L242.064 281.75L244.814 284L248.314 287L252.564 290.25L257.064 293.5L259.564 295.25L263.064 297.5L265.814 299.25L268.564 300.75L271.564 302.5L279.564 306.5L283.564 308.25L289.564 310.75L292.814 312L297.064 313.25L300.564 314.5L302.814 315L306.564 316L314.314 317.75L323.314 319.25L333.314 320.25L338.314 320.5H348.814L357.314 320L364.314 319.25L373.564 317.75L382.564 315.75L388.564 314L391.814 313L394.314 312.25L397.314 311L401.314 309.5L407.064 307L413.314 304L418.564 301.25L424.064 298L428.314 295.25L432.314 292.5L437.064 289L441.064 285.75L444.564 282.75L447.314 280.25L449.314 278.5L455.314 272.5L457.064 270.5L459.814 267.5L464.314 262L467.314 258L470.064 254L470.814 253.25L473.564 248.75L474.064 248.25L475.314 246L478.564 240.25L481.064 235.5L483.564 230L485.314 226.5L486.564 222.75L488.564 217.5L491.564 207.75L493.814 198L494.064 197.75L494.314 195.5L494.564 195L495.064 191L495.564 189L495.814 185L496.064 184.5L496.314 182.25L496.564 176.5L496.814 174.5V161.5L495.814 150.75L495.314 145.5L492.814 133L491.564 127.75L489.814 121.75L487.814 116L485.314 109.5L483.314 104.75L482.314 102.75L479.564 97L477.314 93L475.814 90.25L474.564 88.5L473.564 86.75L472.064 84.5L471.314 83.25L468.314 79L464.814 74.25L463.564 72.5H463.064L462.564 71.5L459.814 68.25L458.064 66H457.564L457.064 65L454.314 62.25L452.564 60.25L449.814 57.5L447.814 55.75L445.814 53.75L443.064 51.5L439.564 48.5L436.314 46L431.814 42.75L427.564 39.75L423.064 37L417.064 33.5L409.814 29.75L402.564 26.5L393.814 23.25L387.564 21.25L383.064 20L375.814 18.25L367.564 16.75L359.564 15.75L353.314 15.25L347.564 15H340.314Z" fill="#FFD301"/>
<path d="M340.5 15H347.75L356.75 15.5L365.75 16.5L373.5 17.75L381.25 19.5L386 20.75L393.25 23L399.5 25.25L405.5 27.75L411.5 30.5L418.25 34L423.75 37.25L430 41.25L434 44.25L436.75 46.25L440.25 49L443.75 52L447 54.75L449.5 57.25L451.5 59L454.25 61.75L456 63.75L457.75 65.5L458.5 66.25L460.25 68.5L463.25 72L464 72.75L465 74.25L468 78.25L471.5 83.25L472.75 85L474 87.25L475.25 89L476.25 90.75L479.25 96.25L482.25 102L483.25 104.5L484.25 106.5L487 113.25L488.75 118.25L490.25 122.5L492 129L493.75 136.5L495 143.25L495.75 147.5L496.75 159.5L497 161.5V174.5L496.75 176.5L496.5 182.25L496.25 184.5L496 185L495.75 189L495 192.25L494.75 195L494.5 195.5L494.25 197.75L493.75 199.25L491.75 207.75L489.5 215.25L487 222.25L486.25 224L485.5 226.5L484.25 229L481.75 234.5L479.25 239.25L476 245.25L475 247L474.25 248.25H473.75L473.25 249.5L471 253.25L469.25 255.5L466.75 259L464.25 262.25L460.75 266.5L458.5 269L456.75 271L453.25 274.75L448 280L446 281.75L442.5 284.75L439.5 287.25L435.25 290.5L430.75 293.75L425.75 297L422.5 299L417.25 302L411.5 305L405.75 307.75L400.5 310L392.75 312.75L390 313.75L383.5 315.5L375 317.5L366 319L360.5 319.75L354.5 320.25L349 320.5H338.5L330.5 320L323.5 319.25L314.5 317.75L303.5 315.25L302.25 314.75L300 314.25L294.25 312.25L291 311.25L288 310L284.75 308.75L277 305.25L272.5 302.75L270 301.5L266.75 299.5L264.5 298.25L259 294.75L254.5 291.5L250.5 288.5L246.5 285.25L243.25 282.5L240.25 279.75L237.75 277.25L235.75 275.5L234.5 274.25V273.75H234L232.25 271.75L230.5 270L228.25 267.25L225.75 264.5L223.25 261.25L219.5 256.25L215 249.5L212 244.5L209 239.25L204.25 229.75L203.5 228L201.25 222L200.25 220L199 215.75L197 209.25L195 201.25L193.5 193.5L193 191.75L191.75 179.25L191.5 175.5V159.75L192.25 150.5L193.5 142L195 134.25L197 126.25L199.5 118.25L201.25 113.5L202.5 110L203.5 108L204.5 105.5L206.25 101.75L208.5 97L210.5 93.75L212 91L214.5 86.75L215.25 85.75L216.25 84L217.25 82.75L218.25 81L219 80.25L219.5 79.25H220L220.5 78L223 74.75L224 73.25H224.5L225 72L227.5 69.25L230.25 65.75L231.5 64.5L233 62.75L234.75 61.25L236 59.75L238 58L239 56.75L241 55L244.75 51.75L248.25 48.75L250.5 47H251V46.5L254.5 44H255V43.5L256.25 42.75H256.75V42.25L260.25 40L263 38.25L266.25 36.25L269.75 34.25L274.25 31.75L276.75 30.5L279.5 29.25L283.5 27.5L285.5 26.5L289 25.25L291.5 24.25L293.5 23.5L298.5 21.75L304.5 20L310.75 18.5L322.25 16.5L331 15.5L340.5 15ZM338 47.25L330 47.75L319.75 49.5L312.5 51.25L305.25 53.5L299 55.75L296.25 57L293 58.25L291.75 59L290.5 59.5L287.5 61L284.5 62.75L281.75 64.25L280.75 65L279.5 65.75L274.75 69L273.75 69.5V70L272.75 70.25V70.75L271.75 71V71.5L270.75 71.75V72.25L269.25 72.75L267.25 73.75H264.75L262.5 73.25L261.25 72.5H260.75L260.5 71.75L259 71.5L256.5 73.75L256.25 74.5H255.75V75L255 75.25L253.75 76.75L251.75 78.5L251 79V79.5H250.5L249.5 80.75L247.5 82.25L247.75 83.25L249.75 86.25L250.25 88V90L249.5 92.25L248.75 93.75V94.25L248 94.5L247.5 95.25V96H247L246.75 97L246 97.25V98L245.25 98.25L245 99.5L244.25 99.75L243 101.75L241.5 104L240.5 105.75L238.5 109L237.25 111.25L236.25 113.75L234 118L232.75 121.25L231.5 124L229 131.5L227 138.5L225.25 146.75L224.25 153.5L223.75 159L223.5 163.75L223.25 164V171L223.5 175.75L223.75 176L224.75 185.5L226 192.75L228.25 201.75L230 207.25L230.5 209L231.75 212L234.5 218.5L236.5 222.5L239.5 228.25L242.75 233.5L245.5 237.5L249 242.25L251.75 245.5L254 248.25L258 252.5L261.5 256L263.5 257.75L266 260L268.75 262.25L269.5 262.5V263L271.75 264.5L274 266.25L277.75 268.75L282.5 271.75L285.25 273.25L287.75 274.75L291.75 276.75L294.75 278L297.5 279.25L303.5 281.5L306 282.5L312.25 284.25L316.25 285.25L322 286.5L330.75 287.75L336.25 288.25H351.75L359.5 287.5L368.5 286L375 284.5L381 282.75L387 280.75L390 279.5L395.25 277.25L399.25 275.25L404 272.75L409.75 269.25L414.75 265.75L418.5 263L420.5 262L421.75 261.75H424L426.75 262.75L428.25 264L429.25 265L430.75 263V262.5H431.25L433 260.5L434 259.75V259.25H434.5L435.5 258L439.25 254.25L441.75 253.25V252.75L440.5 252L438.75 249.5L438 247L438.25 244.5L439.75 241.5L442.75 237.5L446.25 232.25L449.5 226.75L453 220L455 215.75L456.5 212L457 211.25L458 208L460.25 201L462.25 193L463.5 186.25L464.5 177.5L464.75 173V162.5L464 153.5L462.75 145.25L461 137.5L459 130.5L457.75 126.75L456 122L454.75 119L451.25 112L450.5 110.25L448.5 107L447.5 105L445.75 102.25L443.75 99.5L441.25 96L440.75 95H440.25L439.75 94L438.75 92.5H438.25L437.75 91.5L435.5 88.75L432.25 85.25L430.5 83.25L427.5 80.25H427V79.75L425 78L421.5 75L417.5 71.75L413 68.5L409.25 66L404.25 63L397.75 59.5L391.75 56.75L385.25 54.25L382.75 53.25L377.5 51.75L369.5 49.75L362.75 48.5L354.25 47.5L350.25 47.25H338Z" fill="#141414"/>
<path d="M338 47.25H350.25L356.75 47.75L364.25 48.75L372.75 50.5L379.25 52.25L384 53.75L389.25 55.75L396.75 59L403.5 62.5L408.5 65.5L413 68.5L416.75 71.25L420.25 74L423.75 77L426.5 79.5L427 79.75V80.25L428 80.75L432 84.75L433.75 86.75L436 89.25L438.25 92V92.5L439 92.75L440 94.25L440.25 95L441 95.25L442 97L444.5 100.5L446.75 103.75L448.25 106.25L449.75 109L451 111L451.75 112.75L453.75 116.75L454.75 119L456 122L457.75 126.75L460 133.75L462.25 142.75L463.75 151.5L464.5 158.75L464.75 162.5V173L464.25 179.75L463.25 187.5L462 194L459.75 202.75L457.25 210L456.75 211.75L455.25 215L453.25 219.5L450.25 225.5L446.25 232.25L443.75 236L441.25 239.5L439.25 242.25L438.25 244.5L438 247L438.75 249.5L440.5 252L441.75 252.75V253.25L439.25 254.25L435 258.5L434.5 259.25H434L433.5 260.25L431.5 262L431.25 262.5H430.75L430.25 263.5L429.25 265L428 263.75L426.75 262.75L424 261.75H421.75L419.5 262.5L416.75 264.25L412 267.75L406.5 271.25L400.25 274.75L396.25 276.75L391.25 279L388.25 280.25L384.75 281.5L382.25 282.5L376 284.25L370 285.75L361.5 287.25L354.75 288L351.75 288.25H336.25L326.75 287.25L321 286.25L314.75 285L308.75 283.25L304.5 282L302.75 281.25L298.75 279.75L295 278.25L292.75 277.25L288.5 275L286 273.75L283.5 272.25L281.25 271L275.5 267.25L273 265.5L270 263.25L269.5 263V262.5L268.5 262L265 259L262.5 256.75L259.5 254L255.75 250.25L254 248.25L250.75 244.5L247.5 240.25L244.25 235.75L241.5 231.5L238 225.5L236 221.75L233.25 215.75L231 210L230.25 208.5L227.25 198L225.75 191.5L224.5 183.75L223.75 176L223.5 175.75L223.25 171V164L223.5 163.75L224 156.25L224.75 150L226 143L227.75 135.75L229.5 129.5L230.5 127L231.5 124L232.75 121.25L234.5 117L237 112.25L237.75 110.5L239.25 108L240.5 105.75L242 103.25L243.5 101.25L244.5 99.5H245L245.25 98.25L246 98L246.25 97H246.75L247 96H247.5L247.75 95L248.25 94.25H248.75L249.25 92.75L250 91.25L250.25 90V88L249.5 86L247.5 83L247.75 82L250.25 80L250.5 79.5H251V79L252.75 77.75L254 76.25L255.25 75H255.75V74.5H256.25L256.75 73.5L259 71.5L260.5 71.75L260.75 72.5L263.25 73.5L264.75 73.75H267.25L270.25 72.25H270.75V71.75L271.75 71.5V71L272.75 70.75V70.25L273.75 70V69.5L275.5 68.5L278 66.75L280 65.25L281.5 64.5L283.75 63L287.25 61.25L288.75 60.25L290.5 59.5L294.25 57.75L301 55L310 52L315.5 50.5L322.5 49L330 47.75L338 47.25ZM340.5 63.5L334 64L329.5 64.5L320.5 66.25L312.5 68.5L306.75 70.5L301 73L296.75 75L291.75 77.75L286.5 81L283 83.5L279 86.5L275.75 89.25L273.75 91L269.75 94.75L267.25 97.25L265.5 99.25L263.25 102L260.5 105.5L257.5 109.75L254.25 115L251 120.75L248 127.25L245.25 134.75L243.75 139.5L242.25 145.75L240.75 153.5L240 162.5V173L240.75 182L242 189.5L243.75 196.5L246.25 204L248.75 210L251.5 215.75L254.75 221.5L257.25 225.25L260 229.25L262.5 232.5L265.25 235.75L267.5 238.25L269.25 240.25L273.25 244.25H273.75V244.75L275.75 246.5L279 249.25L283.25 252.5L288.5 256L292.75 258.5L296.25 260.5L303.25 263.75L310.5 266.5L317 268.5L324.5 270.25L332.5 271.5L337 272L344.25 272.25L350 272L358.75 271L364.75 270L371.25 268.5L378.5 266.25L383.75 264.25L389.5 261.75L395 258.75L399.75 256L403.75 253.25L407.75 250.25L410.25 248.25L413.75 245.25L417.5 241.75L420.25 239L422 237L425 233.5L428.25 229.25L430.75 225.75L433.75 221L436.75 215.75L440 209L442.25 203.25L444.25 197.25L446 190.5L447.5 181.5L448 176.75L448.25 172.75V164L447.5 154.25L446.25 146.75L444.75 140.25L442.75 133.5L440.75 128.25L438.75 123.5L436.25 118.75L434.5 115.5L432.5 112.25L430.5 109.25L427.5 105L424 100.75L422.25 98.75L419.25 95.5L415.75 92H415.25L414.75 91L412.75 89.25L410 87L407.5 85L403 81.75L397.5 78.25L392.25 75.25L385.5 72L377.75 69L371.25 67L365 65.5L359 64.5L352 63.75L347.25 63.5H340.5Z" fill="#141414"/>
<path d="M142.75 345.75L144.5 347.25L154.5 357.25L156.5 359L166 368.5L166.25 369.25L42.75 492.75L39.5 495L36.75 496.25L33.5 497H29.75L26.25 496.25L22.25 494.25L19.75 492.25L19 491.5L16.75 488L15.5 485L15 481.25V479.25L15.75 475.25L17 472.25L19.25 469.25L21.5 467L23.25 465L141.5 346.75L142.75 345.75Z" fill="#141414"/>
<path d="M338.25 32H349L356.5 32.5L364.75 33.5L373 35L381 37L384.75 38.25L389 39.5L392.75 41L396 42.25L400.25 44L408.25 48L411.25 49.75L413 50.75L416 52.5L420 55L423.25 57.25L424.5 58.25L427.25 60.25L428.25 61L429 61.75L431.5 63.75L435.25 67L439 70.5L443.75 75.25L445.5 77.25L447.75 79.75L450.5 83.25L453.5 87L456.75 91.75L459.25 95.5L462.5 101L465 105.5L467.75 111.25L469.25 114.75L470.25 117.5L471 119L472.75 124.25L473.5 126.25L475.5 133L477 139.5L478.5 147.5L479.5 156L479.75 164V175.5L479 184L477.75 192.25L476.25 199.5L474.5 206L472 213.75L471 216L469.75 219.5L468.25 222.75L467.5 224.5L464.5 230.75L462.5 234.25L461 237L458.75 240.5L458.203 241.159L457.5 242L456.5 243.5L456 244.25L454.493 246.725L454.25 247L453.25 248.75L451 251.5L449.25 253L447.5 253.75L444.75 254L442 253.25L440.25 252L438.5 249.5L437.75 247L438 244.5L439.5 241.5L442.5 237.5L446 232.25L449.25 226.75L452.75 220L454.75 215.75L456.25 212L456.75 211.25L457.75 208L460 201L462 193L463.25 186.25L464.25 177.5L464.5 173V162.5L463.75 153.5L462.5 145.25L460.75 137.5L458.75 130.5L457.5 126.75L455.75 122L454.5 119L451 112L450.25 110.25L448.25 107L447.25 105L445.5 102.25L443.5 99.5L441 96L440.75 95.25L439.5 94L438.75 92.75L437.5 91.5L435.25 88.75L432 85.25L430.25 83.25L427.5 80.5L427 80.25L426 79.25L423 76.5L420.25 74.25L416.25 71L413 68.75L409.25 66.25L404.25 63.25L397.75 59.75L391.75 57L385.25 54.5L382.75 53.5L377.5 52L369.5 50L362.75 48.75L354.25 47.75L350.25 47.5H338L330 48L319.75 49.75L312.5 51.5L305.25 53.75L299 56L296.25 57.25L293 58.5L291.75 59.25L290.5 59.75L287.5 61.25L284.5 63L281.75 64.5L280.75 65.25L279.5 66L274.75 69.25L273.75 70L272.75 70.75L271.75 71.5L270.75 72.25L267.25 74H264.75L262.5 73.5L260.75 72.5L259 70.5L258 67.75V65.25L259 62.5L260.25 61L263 59L266.25 56.5L269 54.75L273.25 52L277 49.75L280 48.25L282 47L287 44.5L288.75 43.75L291 42.75L293.75 41.75L296 40.75L297.75 40.25L300.25 39.25L307.25 37L313.25 35.5L321.75 33.75L331.5 32.5L338.25 32Z" fill="#FFD301"/>
<path d="M241.25 81.75H244.5L247.5 83.25L249.25 85L250 86.25L250.5 88V90L249.75 92.25L248.75 94.25L247.75 95.25L246.25 97.25L244 100.5L243.25 101.75L241.75 104L240.75 105.75L238.75 109L237.5 111.25L236.5 113.75L234.25 118L233 121.25L231.75 124L229.25 131.5L227.25 138.5L225.5 146.75L224.5 153.5L224 159L223.75 163.75L223.5 164V171L223.75 175.75L224 176L225 185.5L226.25 192.75L228.5 201.75L230.25 207.25L230.75 209L232 212L234.75 218.5L236.75 222.5L239.75 228.25L243 233.5L245.75 237.5L249.25 242.25L252 245.5L254.25 248.25L258.25 252.5L261.5 255.75L263.5 257.5L266 259.75L268.75 262L269.5 262.5L270.75 263.5L274 266L277.75 268.5L282.5 271.5L285.25 273L287.75 274.5L291.75 276.5L294.75 277.75L297.5 279L303.5 281.25L306 282.25L312.25 284L316.25 285L322 286.25L330.75 287.5L336.25 288H351.75L359.5 287.25L368.5 285.75L375 284.25L381 282.5L387 280.5L390 279.25L395.25 277L399.25 275L404 272.5L409.75 269L414.75 265.5L418.5 262.75L420.5 261.75L421.75 261.5H424L426.75 262.5L428.5 264L429.75 266L430.25 267.5V270.5L429.5 272.25L428.75 273.75L426.25 276L421.75 279.25L417.75 281.75L416.5 282.75L413.75 284.25L411.75 285.5L409 287L404.5 289.5L401.25 291L398.25 292.25L396.25 293.25L392.75 294.5L389.75 295.75L382.75 298L376.5 299.75L368.25 301.5L359.5 302.75L350.5 303.5H337.5L328.75 302.75L320 301.5L310.75 299.5L304.5 297.75L301 296.5L295.75 294.75L293.25 293.75L288 291.5L280 287.5L275 284.75L269.75 281.5L264 277.5L260.75 275L257.25 272.25L254.75 270L252 267.75L244 259.75L242 257.25L239.75 254.75L238.75 253.25L238 252.5L235.5 249.25L234.5 248L232.75 245.5L232.25 245L230.75 242.5L229.5 240.5L227.25 237L225.75 234.25L225.25 233.5L224.75 232.75L223.5 230L223 229.5L221.5 226L220.5 223.75L219.75 222.5L219 220.75L218.25 218.5L217.25 216L216.25 213.25L215.5 211.5L214.75 209.25L213.5 205L212 199.5L210.5 192.25L209.25 184L208.5 175V160.75L209 154.25L209.75 147.75L210.25 146L211.75 137.25L213.75 129.75L214.25 128.5L215.5 124.25L216.75 120.75L219.5 113.75L220.5 112L221.25 110L223.75 105.25L225.75 101.25L228.5 96.75L229 95.75L230 94.25L230.25 93.75L231.25 92.25L233.25 89.5L236.5 85L237.5 83.75L239.75 82.25L241.25 81.75Z" fill="#FFD301"/>
<path d="M142.75 345.75L144.5 347.25L154.5 357.25L153.75 358.25H153.25L152.75 359.25L151 360.75L149.75 362L148.5 363.5L146.75 365L145.5 366.5L144.5 367.5H144V368H143.5V368.5H143V369H142.5V369.5H142V370L140 371.75L22.5 489.25H22V489.75H21.5V490.25H21V490.75H20.25L20 491.75L19.5 492V491.5H19L16.75 488L15.5 485L15 481.25V479.25L15.75 475.25L17 472.25L19.25 469.25L21.5 467L23.25 465L141.5 346.75L142.75 345.75Z" fill="#141414"/>
<path d="M341 200.25H347.25L353 200.75L359.5 202L365.75 203.75L370.25 205.5L374 207.25L378.5 209.75L382.25 212.25L385.75 215L388.75 217.75L390.75 220L391.75 222.5V225L391 227.5L388.75 230L386.25 231.25H382.25L379.75 230L376.25 227L372.75 224.25L368.25 221.5L363.5 219.25L360 218L354 216.5L348.75 215.75H339.75L334.25 216.5L328 218L323 220L319.5 221.75L316.25 223.75L312.25 226.75L309.25 229.5L307.25 230.75L306 231.25H302L299.5 230L297.5 227.75L296.5 225V223L297.25 220.5L298.75 218.5L301.25 216L304.75 213.25L308.25 210.75L312 208.5L316.75 206L323.25 203.5L329.75 201.75L335.25 200.75L341 200.25Z" fill="#FFD301"/>
<path d="M286.25 120.25H289.75L292 121.25L294.75 123.5L296.5 125.25L297.25 126L299 128L300.75 129.75L302.75 131.5L303.5 132.25L303.842 132.75H304.5L306.25 130.75L315 122L317.5 120.5L318.25 120.25H321.75L323.75 121L326.25 123.25L327.25 125.25L327.5 126V129.5L326.5 131.75L323 135.75L321 137.5L319 139.75L317.5 141L315.25 143.25L315.5 144.25L316.75 145.75L318.75 147.5L322.25 151L324 153L326 155L327.5 158V161.5L326.5 163.75L324.75 165.75L322.5 167L321.5 167.25H318.75L316.5 166.5L313.75 164.25L304.5 155L303.25 155.25L292.75 165.75L290.5 167L289.5 167.25H286.75L284 166.25L282.25 164.75L281 162.5L280.5 161V158.5L281.25 156.25L283.25 153.75L293 144L292.75 143L290.75 141.25L282.75 133.25L281.25 131L280.5 128.75V126.5L281.25 124.25L282.75 122.25L284.75 120.75L286.25 120.25Z" fill="#FFD301"/>
<path d="M366.5 120.25H369.75L372.25 121.25L374.75 123.5L384 132.75L384.75 133L395.5 121.75L398.5 120.25H402L404.25 121.25L406.25 123L407.5 125.25L407.75 126.25V129L406.75 131.75L404.5 134.25L395.75 143L395.5 144.25L406 154.75L407.25 156.75L407.75 158.25V161L406.75 163.75L405 165.75L403 166.75L401.75 167.25H399L396.75 166.5L394.5 164.75L384.5 154.75L383.5 155.25L373.25 165.5L371.25 166.75L369.5 167.25H366.75L364.25 166.25L362 164.25L361 162.25L360.75 161.25V158.25L361.75 155.75L364 153.25L373 144.25L372.75 143L362.25 132.5L361 130.25L360.75 129.25V126.25L361.75 123.75L363.5 121.75L365 120.75L366.5 120.25Z" fill="#FFD301"/>
<path d="M170.25 319.75H173.5L176 320.5L178.5 322.25L181 324.5L182.25 325.75L183.649 327.228L183.25 326.75L184.5 328.25L190 333.75L191.5 336L192.25 337.75V341.25L190.5 344.75L187.5 348L177 358.5L164.75 346.25L163.25 345L158 339.75L156.75 338.25L154.75 336.5L153.75 335.5L154 334.25L158.25 330.25L162 326.25L164 324.5L165.5 322.75L166.75 321.75L167.25 321.25L169 320.25L170.25 319.75Z" fill="#141414"/>
<path d="M183.25 328.75H183.75L184 329V328.75H185.014L187.5 331.25L190 333.75L191.5 336L192.25 337.75V341.25L190.5 344.75L187.5 348L177 358.5L164.5 346L165.5 345.75L168.25 343.25L170.25 341.5L175.25 336.5H175.75L176.25 335.5H176.75L177.25 334.5L180.5 331.25H181L181.5 330.25L182.75 329L183.25 328.75Z" fill="#141414"/>
<path d="M496.75 161.5H497V174.5L496.75 176.5L496.5 182.25L496.25 184.5L495.75 185V180.25L496.25 176.25L496.5 171.5L496.75 161.5Z" fill="#141414"/>
<path d="M496 180.25H496.5L496.25 184.5L495.75 185V180.5L496 180.25Z" fill="#141414"/>
<path d="M234.5 273.75L235.25 274L236.5 275.5L238.25 277L238 277.5L235.5 275.25L234.5 274.25V273.75Z" fill="#141414"/>
</g>
<defs>
<clipPath id="clip0_3742_577">
<rect width="512" height="512" fill="white"/>
</clipPath>
</defs>
</svg>
