<?xml version="1.0" encoding="UTF-8"?>
<svg id="Calque_2" data-name="Calque 2" xmlns="http://www.w3.org/2000/svg" viewBox="0 0 288.71 259.02">
  <defs>
    <style>
      .cls-1 {
        fill: #5e5b58;
      }

      .cls-2 {
        fill: #504c4b;
      }

      .cls-3 {
        fill: #825a48;
      }

      .cls-4 {
        fill: #434343;
      }

      .cls-5 {
        fill: #957262;
      }

      .cls-6 {
        fill: #906b5b;
      }

      .cls-7 {
        fill: #24211e;
      }

      .cls-8 {
        fill: #977365;
      }

      .cls-9 {
        fill: #53504e;
      }

      .cls-10 {
        fill: #fcfbfb;
      }

      .cls-11 {
        fill: #f9d1c5;
      }

      .cls-12 {
        fill: #f7f3f2;
      }

      .cls-13 {
        fill: #2a2623;
      }

      .cls-14 {
        fill: #4e4b4a;
      }

      .cls-15 {
        fill: #fbfdfc;
      }

      .cls-16 {
        fill: #edefee;
      }

      .cls-17 {
        fill: #8f695a;
      }

      .cls-18 {
        fill: #1a1814;
      }

      .cls-19 {
        fill: #404040;
      }

      .cls-20 {
        fill: #785142;
      }

      .cls-21 {
        fill: #272321;
      }

      .cls-22 {
        fill: #775041;
      }

      .cls-23 {
        fill: #393633;
      }

      .cls-24 {
        fill: #957162;
      }

      .cls-25 {
        fill: #14130d;
      }

      .cls-26 {
        fill: #13120d;
      }

      .cls-27 {
        fill: #2c2825;
      }

      .cls-28 {
        fill: #906b5c;
      }

      .cls-29 {
        fill: #f3b09a;
      }

      .cls-30 {
        fill: #f9d1c5;
      }

      .cls-31 {
        fill: #f6d1c3;
      }

      .cls-32 {
        fill: #f9f8f8;
      }

      .cls-33 {
        fill: #534f4e;
      }

      .cls-34 {
        fill: #f8d2c5;
      }

      .cls-35 {
        fill: #8f6a5a;
      }

      .cls-36 {
        fill: #13120e;
      }

      .cls-37 {
        fill: #694539;
      }

      .cls-38 {
        fill: #414141;
      }

      .cls-39 {
        fill: #c0bfbe;
      }
    </style>
  </defs>
  <g id="Calque_1-2" data-name="Calque 1">
    <g>
      <path class="cls-38" d="M170.64,41.69c51.24,21.16,145.3,67.94,110.54,138.04-14.63,29.52-75.86,58.28-107.54,52.96-2.09,2.72-5.65,1.14-4-2,1.68-23.75,1.36-47.75-.95-72.01-1.34-9.07-.69-17.4,1.95-24.99-2.97-.91-.85-6.53,2-6.5-.77-.1-1.92-.32-2-.88-.21-1.49-.34-15.95,0-16.72s1.21-1.11,2-1.41c-.81.01-1.84-.11-2.07-.76-2.3-6.62-11.15-32.39-7.22-36.77,1.05-1.17,3.47-1.19,4.56.04,4.18,8.74,9.81,15.27,16.88,19.6l.85,2.39c1.67-2.32,3.4-1.66,4,1,1.66-2.15,8.91-4.65,11-3,1.4-1.9.53-3.68-5.01-5.66-1.24-1.5-1.62-3.35-.32-4.93-2.83.78-4.72.3-5.66-1.41-5.06-4.06-10.42-12.2-14.09-18.19-1.79-2.92-10.86-18.17-7.7-19.58l2.78.77Z"/>
      <path class="cls-38" d="M122.72,227.99c-8.04-1.13-16.02-3.39-23.77-5.73C64.75,211.9-10.33,179.98,1.19,133.96c8.4-33.58,54.8-21.3,76.07-43.93,11.49-12.23,2.35-20.67,4.92-34.08,2.28-11.91,15.29-19.49,26.32-21.68,1.09-.22,9.74-1.35,9.3-.93-.15.14-.74,2.03-.07,3.66,1.95-.65,2.33.36,1,2,.22,2.68-.12,2.94-2,1l-1.53,2.9c-4.06,1.77-7.88,3.91-11.46,6.41-2.47,13.2-4.47,26.43-6.01,39.69l1.35,2.27c-3.27,10.48-5.24,21.24-5.9,32.28l-1.58,3.72c-12.06,7.52-3.63,16.87,7.26,17.62l.87,2.11,1.87,1.33c-1.86,9.75-2.07,19.35-.63,28.81,4.68,2.52,9.58,4.61,14.69,6.29l1.07,2.57c.48.02.95.08,1.35.27.73.34,1.64,8.13,1.65,9.73,2.79,9.22,4.62,19.92,5.12,29.87l-2.12,2.13Z"/>
      <path class="cls-13" d="M145.6,127.03c4.46,9.71,9.91,17.17,21.53,11.17l-.53-1.17c-1.51-2.99,3.45-6.46,5-3-1.76,30.72,4.96,62.39,1.06,93.58-.25,1.96,0,2.45-2.06,3.42-.25.85-.58.83-1,0-3.41,2.58-5.74,2.91-7,1l-2.46-1.86c-6.18-16.98-9.14-33.99-10.76-52.04-1.08-6.12-3.22-14.99-5.36-20.74-.72-1.92-.79,28-.23,29.76-.26,14.41-2.8,28.71-5.85,42.74l-2.35,1.14c-.06.25-.72,1.32-1,2,1.31,1.46.77,1.94-1,1-1.87-1.32-3.87-2.65-6-4-.91,3.03-4.92,2.31-5-1,.06-.32-.03-.67,0-1,.83-9.17-2.29-17.6-3.54-27-.24-1.77-1.2-3.48.54-5l1.66-1.55c8.18,2.02,11.94,1.28,11.29-2.23l2.05-1.22c-.4-2.8-.4-5.47,0-8-3.38-1.3-5.11-11.27-2-13.5-3.32-.96-3.06-13.45,0-15l-2.01-1.33-.88-16.57,1.9-1.6c1.46-1.61,3.9-2.67,7.31-3.19,1.41-2.33,2.97-3.94,4.69-4.81.56-1.9,1.43-1.91,2,0Z"/>
      <path class="cls-27" d="M150.6,35.03c11.64,2.17,11.49,3.07,21,7-3.32-.3-1.52.63-.96,2.45,3.68,11.84,11.33,20.16,17.94,30.07.96,1.45,1.99,2.59,2.02,4.47,2.2.73,1.71,2.66-1.47,5.78.07,3.98-.77,6.71-2.53,8.22-11.83-3.53-12.38-12.46-18.71-19.73-.61-.7.04-1.9-2.29-1.27-.3,5.06.44,10.1,1.46,15.03,1.11,5.35,6.54,17.52,6.54,21.46v19c0,1.15-1.94,5.49-2,6.5-2.12-.16-4.3,2.69-5,3-8.29,8.99-20.24-1.51-20-12-.88-.14-1.85-.36-2.45-1.07s-4.57-16.33-4.91-18.59l1.36-2.34c-.72-5.72-1.16-11.44-1.32-17.15l1.32-1.85c-.9-.18-.86-.52,0-1,2.18-9.46,5.82-18.54,10.92-27.23-2.92-5.63-2.58-8.93,1.03-9.89l-3.92-9.3,1.96-1.58Z"/>
      <path class="cls-38" d="M135.6,231.03c2.45-9.48,5.37-27.74,5.99-37.51.97-15.4-1.98-26.74,1.05-42.97.3-1.63-.68-1.73,1.96-1.52.96,9.72,5.07,19.27,6.75,28.76,1.63,9.22,1.78,18.73,3.74,28.26,1.78,8.62,5.92,17.93,7.51,25.99,2.72.29,2.57,1.19,0,2l-27-3Z"/>
      <path class="cls-11" d="M145.6,8.03c.71,1.8,1.58,1.53,2,5-.52,1.27-.76,2.56,0,1,1.49,3.5,1.84,14.9.05,17.6-.48.72-1.62.95-2.05,1.4.56,2.52.86,9.51-3,9-2.85-.69.02-5.29-.01-5-.26,2.48-2.03,6.99-4.99,5-.53,2.79-3.3,2.81-4,0-2.2,3.06-8.75-3.02-8-6-1.12-1.7-3.28-15.25-2.83-15.96,1.65-2.56,4.71-2.82,7.23-1.05,0-11.26,5-16.97,15.6-10.99Z"/>
      <path class="cls-36" d="M127.6,230.03c1.73.06,6.32,4.19,4.81,4.85-.42.19-.25-.71,1.19-.85.19-.35.86-.65,1-1,3.89-.57,2.03,7.27,2.18,8.53.07.62,1.6.38,1.81,1.11,1.52,5.32-6.78,4.84-10.28,6.58s-4.84,4.69-10.45,5.54c-2.29.35-11.85.45-12.12-2.22-.42-4.08,13.41-13.78,15.92-17.98,1.46-2.46.59-3.55.95-5.55,1.52.87,3.33.77,5,1Z"/>
      <path class="cls-25" d="M117.6,37.03c-1.68-5.18,4.06-6.59,4.08-10.48.02-2.75-2.45-5.49-2.87-8.28C117.22,7.7,126.34-.97,136.99.09c6.99.69,6.61,2.88,8.61,7.94-2.96,1.34-8.33-1.17-10.79.23s-2.93,13.42-3.22,16.77c-3.26,1.06-1.85-3.97-3.14-4.85-.78-.53-2.73.03-3.85-.14-.41,5.71,3.84,10.35.99,16,1.51,2.48.58,3.25-2,2,.04,3.36-3.71,3.95-5,1-.28-.69-.72-1.32-1-2Z"/>
      <path class="cls-26" d="M174.6,233.03c-1.04,2.74,2.11,9.62,3.59,11.91,2.92,4.53,13.73,9.67,2.86,13.02-3.61,1.11-7.23,1.74-10.74-.14-2.9-1.56-2.29-3.77-4.18-5.82-1.33-1.44-5.26-2.67-6.04-3.97-1.42-2.37.98-9.03.53-12,.28-.43,1.6,1.02,1.99,1,.83-3.18,3.75-5.4,7-6,.35.05.73-.09,1,0,.36.12.53,1.42,4,2Z"/>
      <path class="cls-33" d="M150.6,35.03c-.67,3.72,5.39,9.15,3.55,12-.56.87-3.5,1.72-3.53,2.5-.01.38,3.53,2.69,2.82,6.75l-12.84,26.75c-1.92-.56-1.91-1.44,0-2-1.05-2.56-1.05-5.56,0-9-1.95-1.26-1.95-2.74,0-4l1-10c-2.98-1.41-3.1-8.69,0-10-1.77-1.78-2.05-5.7,1-6,2.32-3.76-.63-5.22,3-9,1.17.97,3.55,1.73,5,2Z"/>
      <path class="cls-38" d="M61.6,70.03v7c-3.92,11.07-20.08,8.79-20.08-3.5s16.16-14.57,20.08-3.5Z"/>
      <path class="cls-19" d="M27.31,42.23c9.34-2.8,12.28,11.1,3.55,12.64-8.22,1.45-10.69-10.5-3.55-12.64Z"/>
      <path class="cls-14" d="M169.6,231.03c-2.83,1.76-3.24,5.76-7,6-.02-1,.02-2,0-3-.01-.65.11-1.44,0-2,2.25-.62,4.62-1.32,7-1Z"/>
      <path class="cls-4" d="M61.6,77.03c-1.65-1.26-1.65-5.74,0-7,.43,1.22,1.03,1.92,1.03,3.5s-.59,2.28-1.03,3.5Z"/>
      <path class="cls-30" d="M147.6,14.03c.27,2.91-.19,6.06-.01,8.99-1.75.16-1.01-3.32-1.01-4.51,0-1.68-.63-4.45,1.02-5.49.04.33-.03.67,0,1Z"/>
      <path class="cls-31" d="M190.56,78.8c2.7,1.18,8.37-.83,11.73-.22.87.16.92.89.44,1.35-1.96,1.87-7.82,1.48-4.97,4.71,1.19,1.34,15.05,2.94,10.32,6.41-.68.5-6.02-1.39-6.96-1.09-.11.03.42,1.05.32,1.02-3.84-1.1-7.37-.16-10.61,2.84-.14.13-.34.21-.54.2-1.4-.09-2.11-.46-3.2-.83-.29-.1-.49-.37-.49-.68-.03-2.79-.25-5.63.64-8.34s.93-2.52,1.6-4.01c.26-.57.65-1.83,1.72-1.36Z"/>
      <path class="cls-29" d="M201.23,91.21c-4.09,2.01-5.22,2.96-10.21,2.83-.23,0-.45-.19-.45-.42-.11-4.43,9.02-7.72,10.9-2.98.09.22-.03.47-.24.57Z"/>
      <path class="cls-5" d="M107.6,80.03h13c3.18-3.96,11.7,3.88,11,8-.41,2.69-4.19,2.4-6,1,.03.71-.3,1.04-1,1l-.7,1.03c-6.13.03-8.3,5.09-7.86,10.59,2.05,10.73,3.11,21.56,3.18,32.48-2.83,2.73-3.4,6.29-1.7,10.67l-1.92,1.23c-2.62,3.13-13.55,4.7-16,1-7.48-.76-16.08-3.69-16.04-12.52.03-5.88,5.16-5.72,6.79-9.23,2.13-4.6,1.49-13.38,2.5-18.5.8-4.07,3.41-14.07,4.74-17.76-.97-5.45,5.33-12.49,10-9Z"/>
      <path class="cls-22" d="M124.6,90.03c1.1.61,1.92,2.92.48,3.68-10.64,2.55-7.07,12.7,3.39,11.4l1.13,1.92,2.12,2.25-.3,17.88c1.08,3.3,1.14,5.93.18,7.87.38,5.63,1,14.33,1,19.5v15c0,3.21,1.51,9.96,2,13.5-.26,2.62-.26,5.29,0,8-.33,1.86.92,5.01-1.64,5.86-2.3.77-11,.23-13.36-.86-3.41-1.58-2.76-6.91-3-10-.58-.83-1.12-1.68-1.52-2.59-1.8-4-2.29-30.45-.76-34.72.33-.93.79-1.82,1.29-2.69-.06-2.87-1.43-5.97-1.03-8.45.36-2.25,2.83-2.97,3.04-5.06.44-4.39-1.88-14.8-2.06-19.95-.28-8.09-3.03-24.53,9.04-22.54Z"/>
      <path class="cls-27" d="M116.6,40.03l2.12,1.14c-.63,3.59-.99,7.17-1.09,10.71,4.4-.3,5.68,2.6,3.84,8.7,6.58,6.76,12.41,14.11,17.47,22.07l-.33,1.37c1.52,2.18.2,8.28-2,10-.28.87-.62.86-1,0-2.03-1.21-3.37-3.21-4-6-4.25-3.04-3.55-6.01-11-8h-13c-5.02,1.33-8.2,4.02-10,9-3.19-13.18,3.06-27.18,4.17-40.33.76-2.24,12.06-7.45,14.83-8.67Z"/>
      <path class="cls-37" d="M115.6,146.03c.27,13.38-.06,26.65,1,40-3.09-1.33-16.4-5.68-17.52-7.98-.55-1.12-1.57-9.72-1.57-11.51l2.09-19.5c5.55.56,10.57-.97,16-1Z"/>
      <path class="cls-33" d="M132.6,59.03c.87,1.84,1.54,4.18,2,7,.68.58,1.01,1.58,1,3,.98-.25,1.31.75,1,3,2.11.16,2.78,2.5,2,7,.89.28,1.55.94,2,2,.02.67-.02,1.33,0,2,0,.33,0,.67,0,1-.39,2.65-1.16,2.53-2,0-3.94-2.19-13.24-18.69-18.48-22.02-1.76-1.66.8-7.71.49-7.98-.28-.23-2.93.33-4.06-.45-2.77-1.88.87-10.37.05-13.56.61-.27,1.15-.66,2-1,1.08-.43,2.89.23,5-1l2.45.77,6.55,20.23Z"/>
      <path class="cls-3" d="M132.6,106.03c2.31-2.06,3.88-2.2,4.71-.41.8,7.84,2.9,14.98,6.29,21.41-.86,6.77-5.76,8.47-12,8-.02-.29-1.74-3.13-2-5.5-.77-7.07.56-15.29,0-22.5-.81-2.73,1.46-3.49,3-1Z"/>
      <path class="cls-24" d="M140.6,103.03c2.16,6.56,3.89,15.89,6,22,.53,2.05.19,2.71-1,2-.66-.05-1.35.08-2,0-6.88-.84-6.35-15.62-8.12-20.9-.36-.33-2.14-.17-2.88-.1.07-3.17,1.07-6.5,3-10-1.88-.31-1.77-1.1,0-2h1c2.97.78,4.31,3.78,4,9Z"/>
      <path class="cls-7" d="M166.6,137.03c5.26-.07-3.64,4.17-4.17,4.32-8.9,2.55-17.77-5.97-16.83-14.32.06-.55.8-1.36,1-2,.78,2.25,6.65,11.75,8.61,12.89,3.43,1.99,7.98.61,11.39-.89Z"/>
      <path class="cls-2" d="M133.6,234.03c-.19.35.15,1.4,0,2-1.57,1.21-5.62-4.23-6-6,3.22.45,6.43-1.22,6,4Z"/>
      <path class="cls-20" d="M134.6,191.03c-1.25-1.94-2.73-7.37,0-8,.17,1.24,1.17,2.43,1.11,4.55-.05,2-.99,2.77-1.11,3.45Z"/>
      <path class="cls-21" d="M140.6,84.03c0,.18,1.02,1.55,1.07,3.38.16,5.23.05,10.5-1.07,15.62-.9-2.74-3.67-6.76-4-9-.41-2.79.23-7.67,2-10,.35.2,1.41-.13,2,0Z"/>
      <path class="cls-18" d="M160.59,67.03c2.71,2.27-7,3.76-7.99,2.99.18-1.85,7.66-3.26,7.99-2.99Z"/>
      <path class="cls-32" d="M133.6,42.03c1.88,1.14,1.75,2.9-.39,5.29,1.55,1.64.7,3.3-.61,4.71,1.5,1.75,1.47,5.22,0,7-4.89-5.28-6.22-14.31-9-21,.12-.07,1.94-1.87,2-2,2.63,1.63,5.11,4.88,8,6Z"/>
      <path class="cls-39" d="M137.6,42.03c3.22-1.33,4.1,3.09,2,5,.39,2.01.42,3.73-2,4-.28.87-.62.86-1,0l-1-2-1,3c-.32,2.66-1.24,2.54-2,0-.1-3.91-1.76-3.71-1.78-4.48-.01-.52,2.78-4.02,2.78-5.52.89.34,3.23-.35,4,0Z"/>
      <path class="cls-10" d="M142.6,42.03c-1.26,2.2-.93,4.57-1,6,0,0,0,0,0,0-1.79,2.03-2.42,1.68-2-1,0,0,0,0,0,0-.46-.74-1.13-4.57-1.99-4.99,0,0,0,0,0-.01l6.01-4.19s0,.35,0,.36c0,1.65-.24,2.48-1.01,3.83Z"/>
      <path class="cls-15" d="M141.6,48.03c-.14,3,.07,6.79,0,10l-1,10c0,1.33,0,2.67,0,4,.01,3.23-.65,5.57-2,7-1.09-2.58-1.25-4.9-2-7,.37-7.03.7-14.03,1-21,.14-1.82-.13-3.36,2-4,.21.33,1.52.62,2,1Z"/>
      <path class="cls-16" d="M140.6,81.03c-2.97.55-1.6-1.06-2-2l2-7c0,2.99-.07,6.01,0,9Z"/>
      <path class="cls-16" d="M140.6,68.03c.02-3.14-.83-7.7,1-10-.07,3.16.87,7.67-1,10Z"/>
      <path class="cls-34" d="M126.82,89.78c2.94,2.22,5.97,5.81,7.27,8.55.1.21-.12.78-.11,1.03.12,3.79,2.65,3.43-.23,6.21-.24.23-.55.38-.88.38-1.27,0-2.57.95-3.27,1.01-7.89.74-15.94-2.45-11.62-11.66,1.17-2.48,4.99-2.9,5.73-3.72.45-.5.75-1.48.88-1.62h0c.59-.61,1.54-.69,2.22-.18Z"/>
      <path class="cls-17" d="M107.6,96.03c.09,1.32-.02,2.67,0,4l-1,14c-.13,3.77.78,15.23-4.94,10.45,3.23-9.7,2.27-20.81,4.94-30.45,1.12-1.73,1.45-1.06,1,2Z"/>
      <path class="cls-12" d="M130.4,87.69c.06,0,4.91.12,4.91.17.06.54.03,1.47.29,6.16.03.63.1,3.89.08,4.53,0,.05-.14,6.83,0,7.22l-2.22-.03c1.3-1.19,1.41-2.53.93-3.86-.09-.25-.73-2.93-.75-3.18-.54-4.86-8.14-4.41-8.06-8.84,0-.1-.05-2.17.05-2.17,2.25.06,2.43-.08,4.78,0Z"/>
      <path class="cls-35" d="M98.6,116.03c.12,5.98-.08,12.01-.01,17.99-1.3.27-1.6-1.86-1.74-2.74-1.01-6.57-.07-13.74.75-20.26,1.43-.13,1.76,1.54,1,5Z"/>
      <path class="cls-28" d="M98.6,116.03c-.03-1.6.6-4.16-1-5,.65-5.19,1.55-10.41,3.09-15.42.35-1.14.36-3.71,1.9-3.58l-3.99,24Z"/>
      <path class="cls-8" d="M120.6,80.03c-3.21,1.7-9.99,1.67-13,0,5.37-1.42,7.63-1.43,13,0Z"/>
      <path class="cls-6" d="M106.6,114.03c.16-4.48-.96-10.18,1-14,.06,4.37.8,10.27-1,14Z"/>
      <path class="cls-6" d="M107.6,96.03c-.06-.85-.03-1.73-1-2,.51-1.85.79-4.32,2.99-5l-1.99,7Z"/>
      <path class="cls-1" d="M134.6,52.03c.66,4.45.94,9.5,0,14-1.86-2.25-1.88-2.17-2-7-.06-2.33.06-4.67,0-7h2Z"/>
      <path class="cls-16" d="M136.6,72.03c-.36-1-.7-2.26-1-3,.47-6.03.8-12.03,1-18h1c-.54,6.93,1.07,14.24-1,21Z"/>
      <path class="cls-23" d="M135.6,69.03c-.39-.97-.9-2.88-1-3,.26-4.59-.37-9.44,0-14,.1-1.27-.55-2.98,1-3,1.02,6.24.82,13.59,0,20Z"/>
      <path class="cls-1" d="M136.6,51.03c.46,3.73.15,9.56,0,13.5-.05,1.38.7,4.11-1,4.5v-20c1.4-.02.88,1.03,1,2Z"/>
      <path class="cls-9" d="M134.61,43.04c1.81-1.44,4.57,3.31,1.48,3.99-2.62.57-2.32-3.32-1.48-3.99Z"/>
    </g>
    <path class="cls-18" d="M164.38,104.2c2.71,2.27-7,3.76-7.99,2.99.18-1.85,7.66-3.26,7.99-2.99Z"/>
  </g>
</svg>