<svg width="40" height="40" viewBox="0 0 40 40" fill="none" xmlns="http://www.w3.org/2000/svg">
<g clip-path="url(#clip0_1985_350)">
<mask id="mask0_1985_350" style="mask-type:luminance" maskUnits="userSpaceOnUse" x="0" y="0" width="40" height="40">
<path d="M40 0H0V40H40V0Z" fill="white"/>
</mask>
<g mask="url(#mask0_1985_350)">
<path d="M20 1.25C30.3554 1.25 38.75 9.64466 38.75 20C38.75 30.3554 30.3554 38.75 20 38.75C9.64466 38.75 1.25 30.3554 1.25 20C1.25 9.64466 9.64466 1.25 20 1.25Z" fill="#232323" stroke="#919191" stroke-width="1.5"/>
<path d="M21 29V11C21 10.4477 20.5523 10 20 10C19.4477 10 19 10.4477 19 11V29C19 29.5523 19.4477 30 20 30C20.5523 30 21 29.5523 21 29Z" fill="white"/>
<path d="M29 19H11C10.4477 19 10 19.4477 10 20C10 20.5523 10.4477 21 11 21H29C29.5523 21 30 20.5523 30 20C30 19.4477 29.5523 19 29 19Z" fill="white"/>
</g>
</g>
<defs>
<clipPath id="clip0_1985_350">
<rect width="40" height="40" fill="white"/>
</clipPath>
</defs>
</svg>
