<svg width="753" height="753" viewBox="0 0 753 753" fill="none" xmlns="http://www.w3.org/2000/svg">
<g clip-path="url(#clip0_2569_292)">
<path d="M-0.000273438 196.512C3.32973 195.512 3.12973 191.432 4.85973 189.622C15.1897 178.812 44.6897 182.512 47.6897 178.942L63.0497 137.232C54.6597 119.302 30.6097 108.202 47.6497 86.5218C53.1997 79.4618 75.2497 57.1818 82.2497 52.1918C92.9797 44.5418 99.1097 45.5118 109.86 52.1918C115.57 55.7418 126.72 68.3318 132.35 67.2318C136.89 66.3418 145.79 60.0618 151.07 57.9518C159.11 54.7418 167.45 52.0618 175.75 49.6218C179.22 33.4918 175.05 6.42179 197.17 4.33179C207.76 3.33179 243.44 2.73179 252.9 4.47179C271.98 7.98179 266.96 36.8818 272.24 49.9918C287.19 53.5518 301 60.4618 314.57 67.4018C327.97 61.2918 337.18 43.8018 353.83 47.2618C363.61 49.2918 399.7 85.7418 402.28 95.5818C407.56 115.722 381.19 127.232 382.98 138.202C383.56 141.782 389.08 149.632 390.8 154.002C392.17 157.482 397.91 175.852 398.89 176.702C406.03 182.902 435.94 174.492 443.24 192.482C445.41 197.822 445.2 243.302 444.42 251.572C442.3 274.092 413.73 269.682 397.53 272.882C395.78 287.992 386.91 300.802 381.39 314.562C388.8 331.042 413.22 343.982 398.89 364.432C395.43 369.372 363.13 401.052 358.62 403.342C340.19 412.692 326.6 390.312 311.9 382.972C300.81 391.282 283.51 393.332 272.36 399.202C266.12 402.492 267.99 418.722 266.74 425.842C264.22 440.192 259.59 447.392 244.22 448.792C232.69 449.842 208.61 449.952 197.23 448.742C171.27 445.962 177.89 417.902 173.17 399.472L135.27 382.972C129.52 381.852 116.96 395.702 111.31 399.472C103.11 404.942 96.7597 407.812 86.9597 403.542C80.1097 400.552 46.6997 367.142 43.7097 360.292C40.9697 354.012 41.0597 348.612 43.8897 342.312C46.7197 336.012 64.1797 317.902 64.5297 314.512C65.3097 307.182 50.2197 285.972 49.7097 276.542C47.0897 272.932 29.9497 273.482 24.3497 272.572C11.6797 270.502 6.42973 268.222 -0.0302734 256.622V196.492L-0.000273438 196.512ZM279.59 281.062C354.26 206.382 240.69 94.6018 167.33 168.072C92.8797 242.642 206.22 354.442 279.59 281.062Z" fill="white"/>
<path d="M714.531 441.759C715.211 449.839 703.42 470.399 703.92 475.789C704.78 485.109 725.35 492.129 722.94 509.489C721.93 516.789 705.35 535.959 699.57 541.909C690.33 551.419 684.02 554.779 670.68 548.729C665.56 546.409 658.22 538.919 653.99 537.429C650.36 536.159 624.45 552.559 618.13 554.319C616.32 572.499 621.78 590.389 598.93 595.249C592.17 596.689 570.5 598.819 563.92 598.379C541.35 596.849 545.15 573.399 538.61 558.719C532.1 559.729 508.87 547.809 505.53 548.659C503.04 549.299 495.21 559.129 491.99 561.629C481.82 569.529 475.36 572.019 463.56 565.199C456.87 561.329 434.56 541.829 431.91 535.269C425.07 518.339 440.32 511.079 445.54 496.679C440.81 493.189 431.75 468.269 429.73 467.059C420.88 461.719 397.691 474.489 389.391 453.139C386.471 445.629 384.53 416.749 385.8 408.519C388.96 388.069 419.51 392.939 422.39 387.549C421.7 380.579 433.15 357.009 432.35 352.889C431.87 350.429 417.01 338.309 414.69 332.519C413.17 328.729 413.05 323.039 413.68 319.049C414.52 313.719 434.45 288.889 439.25 284.499C456.96 268.319 466.511 286.039 479.671 291.119C485.051 293.199 493.58 284.829 498.61 282.269C501.64 280.729 516.911 274.869 517.461 273.999C518.131 272.939 517.98 254.359 519.56 248.959C521.73 241.539 527.36 236.699 534.91 234.979C541.92 233.379 565.75 231.129 572.69 231.689C593.56 233.359 589.67 250.899 594.67 263.999C596.94 269.949 609.391 270.399 615.651 272.349C619.861 273.659 629.471 278.999 632.771 278.679C636.761 278.289 645.551 265.579 652.281 262.879C666.371 257.239 672.461 264.689 682.651 272.799C689.711 278.419 704.111 289.829 705.281 298.559C707.461 314.749 691.08 325.299 692.47 331.799C693.01 334.319 698.76 341.239 700.35 344.559C701.81 347.609 707.06 362.189 708.29 363.019C716.52 368.579 741.261 354.759 747.581 380.929C749.311 388.079 751.86 416.079 750.19 422.399C745.97 438.359 726.94 437.149 714.55 441.759H714.531ZM558.42 349.439C479.89 358.949 488.801 487.139 576.891 477.909C658.551 469.349 649.74 338.379 558.42 349.439Z" fill="white"/>
<path d="M328.7 480.817C336.77 480.937 351.2 492.457 357.24 492.777C363.61 493.117 370.13 479.147 386.13 482.797C395.96 485.037 415.76 507.127 414.97 518.237C414.28 528.017 402.54 535.167 403.55 541.487C403.77 542.877 411.99 565.067 412.84 566.067C416.93 570.917 434.84 565.557 441.53 579.907C446.88 591.367 446.56 618.667 434.85 626.217C428.97 630.007 412.63 630.507 411.94 631.467C408.71 635.987 405.11 653.027 400.68 658.977C406.88 669.187 415.22 676.207 411.75 689.647C410.3 695.267 389.97 714.407 384 716.137C367.19 721.007 359.1 703.007 351.97 704.547C344.93 706.057 334.43 714.097 325.94 714.547C323.11 725.277 324.12 741.187 310.85 745.667C306.35 747.187 284.69 747.177 279.48 746.367C262.2 743.697 263.35 725.457 260.15 712.577C253.33 712.737 240.26 702.577 235.39 702.567C229.14 702.547 220.64 716.797 207.09 714.757C198.23 713.427 177.78 692.727 176.35 683.777C173.84 668.097 190.08 661.057 188.95 653.687C188.17 648.587 179.89 636.467 179 629.807C168.08 628.147 156.13 628.757 149.82 617.927C145.05 609.737 145.22 585.557 149.8 577.277C156.78 564.657 176.56 568.287 179.7 564.647C181.02 563.107 182.77 554.537 184.1 551.447C185.43 548.357 190.29 540.597 190.4 538.707C190.7 533.557 174.88 524.897 178.66 509.467C180.3 502.777 196.93 485.537 203.08 482.427C221.11 473.337 228.25 491.747 236.74 491.307C242.24 491.027 256.72 480.517 264.44 481.067C268.43 466.657 267.8 451.967 286.66 450.157C311.53 447.767 330.65 451.307 328.73 480.827L328.7 480.817ZM293.04 544.467C244.84 547.297 225.03 609.317 263.5 639.157C296.43 664.697 345.15 643.387 348.85 601.837C351.67 570.247 324.76 542.607 293.04 544.467Z" fill="white"/>
</g>
<defs>
<clipPath id="clip0_2569_292">
<rect width="752.33" height="752.33" fill="white"/>
</clipPath>
</defs>
</svg>
