<svg width="139" height="210" viewBox="0 0 139 210" fill="none" xmlns="http://www.w3.org/2000/svg">
<rect width="139" height="210" fill="#141414"/>
<path d="M88.2267 103.367L89.5449 103.413L91.2722 103.594L92.6813 103.867L93.7267 104.14L94.7722 104.504L95.954 105.004L96.6813 105.367L97.6813 105.913L98.2267 106.276L98.9995 106.822L99.7722 107.458L100.363 108.004L101.272 108.913L101.681 109.413L102.272 110.14L102.863 110.958L103.318 111.64L103.999 112.776L104.363 113.458L105.272 115.276L105.999 117.14L106.454 118.413L107.136 120.822L107.499 122.458L107.863 124.276L108.272 126.867L108.545 129.458L108.681 131.413L108.772 134.049V136.094L108.727 137.231L108.545 138.731L108.227 140.276L107.954 141.185L107.681 142.004L107.181 143.14L106.636 144.185L106.318 144.685L105.954 145.231L105.409 145.913L104.999 146.413L104.681 146.731L104.636 146.822H104.545L104.454 147.004L104.272 147.185H104.181L104.09 147.367L103.59 147.776L102.999 148.276L102.09 148.913L101.409 149.322L100.318 149.913L98.9995 150.458L97.9085 150.822L96.8176 151.094L95.5904 151.322L93.954 151.504L93.0904 151.549H46.8176L45.7722 151.504L44.1813 151.322L42.7722 151.049L41.6358 150.731L40.6813 150.413L39.5449 149.913L38.3176 149.276L37.4995 148.731L36.8631 148.276L36.2722 147.776L35.6358 147.231L34.9086 146.458L34.4086 145.913L33.7722 145.049L33.3631 144.413L32.8631 143.549L32.3631 142.504L32.0904 141.822L31.6358 140.413L31.3176 138.867L31.1358 137.458L31.0449 135.64V134.594L31.0904 132.549L31.2267 130.049L31.454 127.685L31.7722 125.458L32.0449 123.867L32.4995 121.685L32.7722 120.549L33.4086 118.322L33.954 116.822L34.454 115.549L34.9995 114.413L35.7267 112.958L36.454 111.731L36.8176 111.185L37.3631 110.413L37.8176 109.822L38.3176 109.231L38.7267 108.731L39.7722 107.685L40.2722 107.276L40.8176 106.822L41.5449 106.322L42.2267 105.867L43.1813 105.322L44.2722 104.822L45.3176 104.413L46.454 104.049L47.5449 103.776L48.954 103.549L50.3176 103.413H52.0449L52.7722 103.594L53.4086 103.867L54.4086 104.413L56.2722 105.594L58.0904 106.776L58.5904 107.094L59.1813 107.458L60.1358 108.004L61.3176 108.549L63.1358 109.231L63.9995 109.549L65.6813 110.004L66.9086 110.231L68.2722 110.413L68.8631 110.458H70.954L72.3176 110.322L73.6813 110.094L74.8631 109.822L76.0904 109.458L78.4995 108.549L79.7722 107.958L80.8176 107.367L81.8631 106.685L82.8631 106.049L83.7722 105.458L84.5449 104.958L85.8176 104.185L86.5904 103.776L87.3631 103.504L87.7722 103.413L88.2267 103.367Z" fill="black"/>
<path d="M69.1809 58.4062L70.6809 58.4517L71.8627 58.5426L73.7718 58.8153L75.1809 59.1335L76.2718 59.4517L77.6809 59.9517L78.4991 60.3153L79.6355 60.8608L80.5446 61.3608L81.6355 62.0426L82.2718 62.4972L83.2264 63.2244L83.7264 63.6335L84.2718 64.1335L84.6355 64.4517L85.3627 65.1335V65.2244H85.4537L85.7718 65.5881L86.3173 66.179L86.8627 66.8153L87.3173 67.4063L87.9537 68.2699L88.4082 68.9517L88.8627 69.7244L89.2718 70.4063L89.7718 71.4517L90.2718 72.5881L90.7264 73.8608L91.0446 74.9972L91.3627 76.3608L91.59 77.8608L91.7264 79.2699L91.7718 80.0881V81.679L91.6809 83.0426L91.5446 84.2244L91.3627 85.4063L90.9991 86.9517L90.6355 88.1335L90.1355 89.4972L89.3627 91.1335L88.8627 92.0426L88.2718 92.9972L87.7718 93.7244L87.4991 94.0881L86.9082 94.8608L86.3627 95.4972L86.1809 95.7244H86.09L85.9991 95.9063L85.6809 96.2699H85.59L85.4991 96.4517L84.7718 97.179L84.4082 97.4972L83.8627 97.9972L83.2718 98.4972L82.4082 99.1335L81.59 99.7244L80.3627 100.452L79.7264 100.815L78.6355 101.361L77.6809 101.77L75.9991 102.361L74.1809 102.815L72.5446 103.088L71.3627 103.224L69.6355 103.315H68.9082L67.1809 103.224L65.4537 102.997L64.6355 102.861L62.6355 102.361L61.09 101.815L60.0446 101.361L58.7264 100.724L57.4537 99.9517L56.9537 99.6335L56.09 98.9972L55.4991 98.5426L55.0446 98.179L54.4537 97.6335L53.9991 97.2244L53.6355 96.9063L52.9991 96.2699L52.6809 95.9063L52.1809 95.3608L51.6809 94.7699L51.0446 93.9063L50.5446 93.2244L49.9537 92.2699L49.4537 91.4063L49.09 90.679L48.5446 89.5426L48.0446 88.179L47.6809 86.9972L47.3627 85.679L47.1809 84.679L46.9991 83.3608L46.9082 82.0881V79.5426L46.9991 78.3608L47.2718 76.4972L47.6809 74.7244L47.9991 73.679L48.59 72.0881L49.3173 70.5881L49.59 70.0881L49.9537 69.4517L50.5446 68.4972L51.1809 67.6335L51.6355 67.0426L51.9537 66.6335L52.4082 66.1335L52.4537 66.0426H52.5446L52.6355 65.8608L53.0446 65.4517L53.3627 65.0881L53.9082 64.5426L54.2718 64.2244L54.9082 63.6335L55.5446 63.1335L56.3173 62.5426L57.09 61.9972L58.0446 61.4063L58.9082 60.9063L59.9082 60.4063L60.9537 59.9517L62.4991 59.4063L63.6809 59.0881L64.9082 58.8153L66.4082 58.5881L67.1809 58.4972L69.1809 58.4062Z" fill="black"/>
</svg>
