<svg width="512" height="512" viewBox="0 0 512 512" fill="none" xmlns="http://www.w3.org/2000/svg">
<g clip-path="url(#clip0_3460_352)">
<g clip-path="url(#clip1_3460_352)">
<path d="M180.688 121.727H384.297L387.127 121.884L391.058 122.513L394.359 123.456L398.133 125.028L401.277 126.758L403.479 128.33L405.051 129.588L406.623 131.003L408.824 133.204L410.554 135.405L412.126 137.764L413.541 140.279L414.956 143.424L415.899 146.411L416.686 149.713L417 149.556V308.197L416.686 308.354L415.742 312.285L414.484 316.059L412.598 319.832L411.025 322.19L409.768 323.92L408.353 325.492L408.195 325.807H407.881L407.566 326.436L406.623 327.379H406.309V327.693L404.579 329.108L402.535 330.681L399.076 332.725L396.403 333.982L393.73 334.926L390.9 335.712L387.127 336.341L385.24 336.498H180.374L177.072 336.184L173.928 335.555L171.255 334.769L167.953 333.354L165.438 332.096L162.922 330.523L160.406 328.479L159.148 327.379L156.947 325.178L155.218 322.977L153.646 320.775L152.073 317.945L150.815 315.115L149.558 311.342L148.771 307.097L148.614 305.524L148.457 156.316L148.614 152.386L149.243 148.298L150.344 144.367L151.287 142.009L152.545 139.336L154.432 136.349L156.318 133.833L158.677 131.317L159.935 130.06L162.136 128.33L164.18 126.915L166.853 125.343L169.997 123.928L173.299 122.827L177.229 122.041L180.688 121.727ZM248.296 148.612L181.003 148.77L179.431 149.241L178.016 150.185L177.229 150.971L176.601 151.757L175.972 153.015L175.657 154.272L175.5 159.933V281.469L175.814 281.626L212.92 244.521L214.178 243.42L216.536 241.69L219.838 239.961L223.611 238.703L226.599 238.231H231.787L234.617 238.703L237.133 239.489L240.435 240.904L242.636 242.319L244.837 244.049L245.623 244.835H245.938V245.149L247.195 246.25L261.817 260.872H262.289L265.119 257.413L267.006 255.212L268.264 253.64L270.15 251.438L271.565 249.709L273.295 247.665L274.71 245.936L276.439 243.892L277.854 242.162L279.584 240.118L280.842 238.546L282.729 236.345L283.986 234.772L285.873 232.571L287.131 230.999L289.018 228.798L290.275 227.226L292.162 225.024L293.42 223.452L295.307 221.251L296.564 219.679L298.451 217.478L299.709 215.905L301.596 213.704L302.854 212.132L304.74 209.931L305.998 208.358L307.885 206.157L309.143 204.585L311.029 202.384L312.287 200.812L314.488 198.61L316.532 197.038L318.891 195.623L321.563 194.365L324.708 193.422L326.595 193.107L328.324 192.95H331.154L333.827 193.265L337.129 194.051L340.116 195.309L342.003 196.252L344.047 197.667L345.776 199.082L347.978 201.283L349.393 203.013L350.808 204.585L352.223 206.314L353.638 207.887L355.053 209.616L356.468 211.188L357.883 212.918L359.298 214.49L360.713 216.22L362.128 217.792L363.543 219.521L364.958 221.094L366.373 222.823L367.788 224.396L369.203 226.125L373.291 230.842L375.021 232.886L377.064 235.244L380.838 239.646L382.567 241.69L384.611 244.049L386.498 246.25L387.913 247.822L389.328 249.552L390.114 250.181V155.688L389.8 153.329L388.856 151.442L387.756 150.185L385.869 149.084L384.611 148.77L373.605 148.612H248.296Z" fill="white"/>
<path d="M128.489 215.125H128.804V308.36L129.118 312.134L129.904 316.536L131.005 320.781L132.42 324.869L133.835 328.014L135.407 331.158L137.294 334.146L138.866 336.347L140.596 338.548L142.168 340.277L143.269 341.535L144.684 342.95L145.941 344.051L147.828 345.623L150.344 347.51L153.331 349.396L156.79 351.283L160.721 353.013L165.438 354.585L169.683 355.528L172.827 356L176.601 356.314L373.448 356.472L373.605 357.258L372.033 362.132L367.002 378.169L364.329 386.659L361.656 395.307L360.398 398.766L358.983 401.753L357.411 404.269L355.682 406.47L353.795 408.514L352.065 410.086L349.707 411.815L347.349 413.23L344.833 414.488L341.531 415.746L336.5 417.004H328.481L321.563 415.274L303.954 410.558L273.452 402.382L242.95 394.206L235.403 392.162L228.8 390.433L221.882 388.546L209.461 385.244L200.185 382.729L193.581 380.999L183.833 378.326L177.229 376.597L169.525 374.553L160.721 372.194L122.515 361.975L116.854 360.402L113.71 359.302L111.037 358.044L108.679 356.629L106.163 354.742L104.276 353.013L102.232 350.969L100.66 348.925L98.9307 346.252L97.5156 343.579L96.2578 340.277L95.3145 336.504L95 335.561V326.756L95.6289 324.397L96.8867 319.838L98.459 314.649L108.364 281.632L111.037 272.67L114.339 261.664L119.37 244.841L125.03 225.974L127.074 219.056L127.86 216.54L128.489 215.125Z" fill="white"/>
<path d="M213.863 161.977H217.637L220.31 162.291L223.14 162.92L226.284 164.021L229.9 165.907L232.102 167.479L234.303 169.366L236.032 171.096L238.076 173.769L239.648 176.441L240.749 178.8L241.85 182.102L242.479 185.246L242.636 186.504V191.378L242.007 194.994L240.906 198.61L239.02 202.541L236.976 205.528L235.403 207.258L235.246 207.572H234.932L234.617 208.201L233.045 209.616L230.687 211.346L228.014 212.918L225.026 214.176L221.882 215.119L219.366 215.591L217.794 215.748H213.234L210.09 215.276L207.26 214.49L203.486 212.918L200.813 211.346L198.77 209.773L197.197 208.358L195.153 206.314L192.952 203.327L191.38 200.497L190.122 197.353L189.336 194.365L188.864 191.535L188.707 188.705L189.021 185.089L189.65 182.102L190.437 179.586L191.694 176.756L192.795 174.712L194.682 172.039L196.568 169.995L198.141 168.423L200.185 166.851L202.7 165.278L205.216 164.021L208.36 162.92L211.19 162.291L213.863 161.977Z" fill="white"/>
</g>
</g>
<defs>
<clipPath id="clip0_3460_352">
<rect width="512" height="512" fill="white"/>
</clipPath>
<clipPath id="clip1_3460_352">
<rect width="322" height="322" fill="white" transform="translate(95 95)"/>
</clipPath>
</defs>
</svg>
