<svg width="512" height="512" viewBox="0 0 512 512" fill="none" xmlns="http://www.w3.org/2000/svg">
<g clip-path="url(#clip0_1826_318)">
<path d="M165.377 176.25C169.633 175.63 171.729 176.828 175.301 178.838C212.496 221.059 244.45 268.242 279.421 312.517C283.335 316.559 291.377 320.815 296.981 320.922C323.93 321.372 339.138 263.58 370.13 287.62C389.85 317.629 415.431 347.23 433.91 377.709C439.407 386.799 443.343 395.996 430.937 401.344C308.552 402.285 185.589 402.841 63.289 401.065C56.6372 398.242 52.4236 392.168 54.0919 384.746C85.2337 317.415 120.525 251.859 153.463 185.319C156.094 181.319 160.522 176.934 165.398 176.229L165.377 176.25Z" fill="#FEFEFE"/>
<path d="M313.132 62.3328C386.88 55.3815 396.056 167.821 323.805 174.024C251.555 180.227 240.497 69.1985 313.132 62.3328Z" fill="#FDFDFD"/>
</g>
<defs>
<clipPath id="clip0_1826_318">
<rect width="512" height="512" fill="white"/>
</clipPath>
</defs>
</svg>
