<svg width="384" height="384" viewBox="0 0 384 384" fill="none" xmlns="http://www.w3.org/2000/svg">
<path d="M338 127.42V134.284C336.607 136.881 336.143 139.293 334.285 141.704C324.906 153.855 308.562 165.17 298.533 177.414C283.674 188.173 264.079 174.261 269.744 156.637C271.23 151.999 274.295 149.773 277.359 146.249L251.914 143.93C240.399 144.487 231.391 141.425 221.825 149.402C210.496 158.863 201.581 174.631 193.873 187.06C201.488 199.396 209.382 213.402 219.04 224.162C224.147 229.912 230.183 235.941 238.17 236.498C249.871 237.333 262.222 235.199 273.923 234.736C273.087 232.695 271.602 231.396 270.58 229.263C262.129 211.361 283.767 194.388 299.368 207.373C311.998 217.761 324.906 233.53 336.143 245.402L337.907 250.225V257.089C336.514 259.686 336.05 262.097 334.193 264.509C324.813 276.66 308.469 287.975 298.44 300.219C279.124 313.483 258.229 288.903 274.388 271.929C257.486 272.95 239.377 275.454 222.847 271.188C207.989 267.384 194.245 252.729 184.958 241.043C180.222 235.014 176.136 228.521 171.771 222.306C158.77 241.135 143.076 267.199 118.838 272.301C103.794 275.454 76.6772 273.97 61.4473 270.816C49.3748 268.312 41.5741 257.274 46.496 245.216C53.6466 227.686 75.0985 236.034 89.3998 236.683C94.4145 236.961 109.087 237.425 112.988 235.57C117.445 233.53 124.039 225.646 127.103 221.75C135.554 210.991 142.704 199.025 149.669 187.246C144.19 177.599 137.783 167.397 130.817 158.678C125.988 152.742 119.024 144.301 111.13 143.559C95.5289 142.075 80.3918 146.341 65.3477 146.991C46.3103 147.826 37.4881 124.544 52.9037 113.414C58.2899 109.519 72.2197 108.313 79.0917 107.57C92.0928 106.272 107.23 105.53 120.138 107.756C144.283 111.837 158.584 133.727 171.771 152.092C185.144 134.191 200.281 112.301 223.961 108.313C239.47 105.623 255.443 107.57 270.951 108.127C261.479 89.9476 282.56 71.3042 298.997 84.3824C311.162 94.0288 322.12 109.333 334.193 119.536C336.236 121.855 336.607 124.916 337.907 127.513L338 127.42Z" fill="white"/>
</svg>
