<svg width="61" height="61" viewBox="0 0 61 61" fill="none" xmlns="http://www.w3.org/2000/svg">
<path d="M26.3125 6.19531H26.9453L27.3203 6.28906L27.5781 6.40625L27.8594 6.57031L28.1641 6.85156L28.375 7.10938L28.5625 7.46094L28.6562 7.74219L28.7031 8V8.51562L28.6328 8.84375L28.5156 9.14844L28.3516 9.42969L28.1875 9.64062L28.0703 9.78125H28.0234L27.9766 9.875H27.9297V9.92188H27.8828V9.96875L27.7188 10.1094L27.6016 10.25L27.4375 10.3906L27.3203 10.5312L27.1562 10.6719L26.6875 11.1406L26.6641 11.1875H26.6172L26.5703 11.2812L26.2891 11.5625H26.2422L26.1953 11.6562L25.8438 11.9844L31.4453 12.0078L32.4297 12.0547L33.2734 12.125L34.1406 12.2422L35.0547 12.4062L35.9688 12.6172L36.8125 12.8516L37.7734 13.1797L38.4531 13.4375L39.2734 13.7891L40.1875 14.2344L40.75 14.5391L41.3828 14.9141L41.8984 15.2422L42.1797 15.4297L42.6484 15.7578L43.0234 16.0391L43.3281 16.2734L43.7031 16.5781L44.0312 16.8594L44.2656 17.0703L44.4531 17.2344L44.7578 17.5156L45.0156 17.7734L45.1562 17.8906L45.3203 18.0781L45.6016 18.3594L45.7656 18.5469L46 18.8047L46.2109 19.0625L46.4219 19.2969L46.7031 19.6719L46.9375 19.9531L47.2422 20.3984L47.4062 20.6094L47.6406 20.9609L47.8516 21.2891L48.1094 21.7109L48.3672 22.1562L48.6484 22.6719L49 23.3516L49.375 24.1953L49.7266 25.0859L50.0078 25.9062L50.2891 26.8906L50.5 27.7812L50.6875 28.7891L50.8281 29.8672L50.8984 30.7578L50.9219 31.2266V32.6094L50.8516 33.7344L50.7344 34.7188L50.5938 35.5859L50.4062 36.4766L50.2188 37.2031L50.0078 37.9062L49.7266 38.75L49.3516 39.6875L49 40.4609L48.8125 40.8594L48.25 41.8906L48.1094 42.125L47.7578 42.6875L47.3828 43.25L47.125 43.6016L46.9375 43.8594L46.7031 44.1641L46.3984 44.5391L46.1875 44.7969L45.9531 45.0547L45.7891 45.2422L45.5781 45.4766L45.4375 45.6406H45.3906V45.6875H45.3438L45.2969 45.7812L44.875 46.2031H44.8281V46.25L44.6406 46.4141L44.4297 46.625L44.2422 46.7891L43.9375 47.0469L43.7031 47.2578L43.3281 47.5391L43.0703 47.75L42.625 48.0781L42.0859 48.4531L41.7578 48.6641L41.2656 48.9688L40.7031 49.2969L40.0938 49.625L39.5312 49.9062L38.8516 50.2109L38.1484 50.4922L37.3047 50.7969L36.3906 51.0781L35.4531 51.3125L34.5156 51.5L33.4375 51.6641L32.4062 51.7578L31.5391 51.8047H30.4141L29.5234 51.7578L28.5625 51.6641L27.6016 51.5234L26.6406 51.3359L25.7031 51.1016L24.8359 50.8438L23.9688 50.5391L23.2656 50.2578L22.5859 49.9531L21.9062 49.625L21.3672 49.3438L20.5703 48.875L19.9844 48.5L19.5156 48.1719L19.1172 47.8906L18.4609 47.375L18.1562 47.1172L17.8984 46.9062L17.5234 46.5547L17.3359 46.3906L17.125 46.1797L16.9375 46.0156L16.75 45.8281V45.7812H16.7031L16.5391 45.5938L16.3516 45.4062L16.1875 45.2188L15.9297 44.9375L15.7188 44.6797L15.4375 44.3516L15.2266 44.0703L14.8984 43.6484L14.6406 43.2734L14.3359 42.8281L14.0781 42.4297L13.7266 41.8438L13.3984 41.2578L13.0234 40.5312L12.6484 39.6875L12.3672 39.0078L12.0859 38.2109L11.875 37.5547L11.6172 36.5938L11.4062 35.6094L11.2422 34.6016L11.125 33.5234L11.0781 32.8203L11.0547 32.1172V31.5312L11.1016 30.4766L11.2188 29.3281L11.3828 28.2734L11.5938 27.2656L11.875 26.2109L12.0859 25.5781L12.2734 25.2266L12.5312 24.9219L12.7422 24.7344L13.0469 24.5469L13.3047 24.4297L13.7031 24.3359H14.2891L14.6875 24.4297L15.0625 24.6172L15.2734 24.7578L15.5078 24.9688L15.7188 25.2266L15.9062 25.5547L16.0234 25.8828L16.0703 26.1172V26.6562L15.9531 27.1484L15.7656 27.8281L15.5781 28.625L15.4375 29.4453L15.3438 30.1719L15.2734 31.0625V32.6094L15.3672 33.7344L15.4844 34.5312L15.6484 35.375L15.8828 36.2891L16.2109 37.2969L16.5391 38.1172L16.8906 38.8906L17.2422 39.5703L17.5703 40.1328L17.9219 40.6953L18.2969 41.2344L18.625 41.6562L18.8828 41.9844L19.0938 42.2188L19.2578 42.4062L19.4688 42.6406L19.5156 42.7344H19.5625L19.7266 42.9219L20.1719 43.3672L20.3594 43.5312L20.6875 43.8359L20.9453 44.0469L21.3203 44.3516L21.625 44.5859L22.1641 44.9609L22.5156 45.1953L23.3359 45.6875L23.5938 45.8281L24.2969 46.1797L25 46.4844L25.7266 46.7656L26.5234 47.0234L27.3203 47.2344L28.2109 47.4219L28.9844 47.5391L29.875 47.6328L30.2031 47.6562L31.1172 47.6797L31.8203 47.6562L32.6641 47.5859L33.3906 47.4922L34.0938 47.375L34.8203 47.2109L35.5938 47L36.5547 46.6719L37.3516 46.3438L37.7734 46.1562L38.1719 45.9453L38.5469 45.7578L39.0859 45.4531L39.7891 45.0078L40.2578 44.6797L40.6328 44.3984L41.0078 44.0938L41.2422 43.9062L41.5234 43.6484L41.7109 43.4844L41.7812 43.4141H41.8281V43.3672L42.0156 43.2031L42.4609 42.7578L42.4844 42.7109H42.5312L42.5781 42.6172L42.7422 42.4531L42.9531 42.1953L43.1875 41.9375L43.4453 41.6094L43.8203 41.1172L44.2891 40.4141L44.5938 39.9219L44.8516 39.4766L45.0391 39.1016L45.2969 38.5625L45.4609 38.2109L45.7188 37.5781L46 36.7812L46.2344 35.9844L46.4453 35.0703L46.6094 34.1562L46.7031 33.3125L46.75 32.5156V31.25L46.6797 30.2891L46.5625 29.3984L46.3984 28.5312L46.1875 27.6875L46.0234 27.1484L45.8125 26.5156L45.5547 25.8594L45.2734 25.2266L44.8516 24.3828L44.5234 23.8203L44.2188 23.3281L43.9141 22.8828L43.6797 22.5547L43.4453 22.25L43.1875 21.9219L42.9297 21.6172L42.6719 21.3359L42.5078 21.1484L42.4375 21.0781V21.0312H42.3906L42.2266 20.8438L42.0625 20.6797L41.875 20.5156L41.6172 20.2578L41.4297 20.0938L41.1016 19.8125L40.4453 19.2969L40.0469 19.0156L39.4141 18.5938L39.0625 18.3828L38.6641 18.1484L37.9844 17.7969L37.2344 17.4453L36.4609 17.1406L35.6406 16.8594L34.7969 16.625L33.9297 16.4375L33.1797 16.3203L32.5703 16.25L31.9375 16.2031L31.4453 16.1797H25.8672L26.0312 16.3672L26.2188 16.5312V16.5781L26.3125 16.625L26.5938 16.9062V16.9531L26.6875 17L26.8281 17.1641L26.9688 17.2812L27.0859 17.4219L27.25 17.5625L27.3906 17.7266L27.5312 17.8438L27.6484 17.9844L27.8125 18.125L27.9531 18.2891L28.2344 18.5703L28.4453 18.875L28.6094 19.2266L28.7031 19.625L28.7266 19.9062L28.6797 20.3047L28.5625 20.7031L28.375 21.0547L28.2109 21.2656L27.9531 21.5234L27.625 21.7344L27.2969 21.875L27.0391 21.9453L26.875 21.9688H26.3594L26.0312 21.8984L25.7266 21.7812L25.4219 21.5938L25.1875 21.3828L25.1406 21.3594V21.3125L25.0469 21.2656V21.2188L24.9531 21.1719V21.125L24.8594 21.0781V21.0312L24.7656 20.9844V20.9375L24.6719 20.8906V20.8438H24.625V20.7969H24.5781V20.75H24.5312L24.3906 20.5859L24.25 20.4688L24.1094 20.3047L23.9688 20.1875L23.8281 20.0234L23.6875 19.9062L23.5469 19.7422L23.4062 19.625L23.2656 19.4609L23.125 19.3438L22.9844 19.1797L22.8438 19.0625L22.7031 18.8984L22.5625 18.7812L22.4219 18.6172L22.2812 18.5L22.1406 18.3359L21.7656 17.9609L21.625 17.8438L21.4609 17.6562L21.2969 17.4922L21.1562 17.375L21.0156 17.2109L20.2656 16.4609L20.125 16.3438L19.9844 16.1797L19.8438 16.0625L19.6797 15.875L19.1875 15.3828L18.9766 15.0547L18.8359 14.7266L18.7422 14.3516L18.7188 14.0469L18.7656 13.6953L18.8828 13.3203L19.0703 12.9453L19.3281 12.6172L25.2578 6.6875L25.5859 6.45312L25.8672 6.3125L26.1953 6.21875L26.3125 6.19531Z" fill="white"/>
</svg>
