<svg width="384" height="384" viewBox="0 0 384 384" fill="none" xmlns="http://www.w3.org/2000/svg">
<path d="M291.93 44.2494V109.119C290.19 124.329 284.33 138.549 274.69 150.359L235.74 190.859L235.09 192.279L274.69 233.659C276.21 236.069 278.26 238.149 279.81 240.529C299.2 270.239 289.73 306.209 291.93 339.759H305.78C306.11 339.759 310.25 341.699 310.9 342.129C318.16 346.899 317.65 358.899 309.82 362.549C304.49 365.039 290.72 363.529 284.05 363.719C223.36 365.459 161.41 365.459 100.72 363.719C93.8097 363.519 84.8097 364.609 78.2997 363.689C68.4997 362.299 65.3097 348.759 72.9997 342.759C73.8597 342.089 78.3097 339.759 78.9797 339.759H92.8297V274.149C94.8397 259.209 100.55 245.279 110.07 233.659L149.67 192.279C136.86 178.179 123.44 164.129 110.07 150.359C100.55 138.739 94.8397 124.809 92.8397 109.869V44.2494H78.9797C78.3097 44.2494 73.8497 41.9194 72.9997 41.2494C65.3097 35.2494 68.4997 21.7094 78.2997 20.3194C84.8097 19.3894 93.8197 20.4794 100.72 20.2894C161.41 18.5494 223.36 18.5494 284.05 20.2894C290.72 20.4794 304.49 18.9794 309.82 21.4594C317.65 25.1094 318.16 37.1094 310.9 41.8794C310.25 42.3094 306.11 44.2494 305.78 44.2494H291.93Z" fill="white"/>
</svg>
