<svg width="683" height="683" viewBox="0 0 683 683" fill="none" xmlns="http://www.w3.org/2000/svg">
<path d="M90.7995 44.7966C68.2662 50.7966 50.6662 68.7966 44.6662 91.5966C41.5995 103.063 41.5995 579.597 44.6662 591.063C50.6662 614.13 68.3995 631.997 91.3329 637.997C98.2662 639.73 128.266 639.997 341.333 639.997C605.333 639.997 590 640.397 605.6 632.53C615.066 627.73 626.8 616.13 631.866 606.797C640.4 590.663 640 601.063 640 407.063C640 258.663 639.733 229.863 638.133 226.263C635.733 220.663 460.666 45.8633 455.6 43.9966C453.066 43.0633 394.933 42.6633 274.933 42.7966C124.8 42.7966 96.9329 43.1966 90.7995 44.7966ZM128 121.063C128 148.397 128.4 158.53 130 164.397C136 187.463 153.733 205.33 176.666 211.33C188.266 214.263 344.933 214.397 356.4 211.33C379.466 205.33 397.333 187.597 403.333 164.663C404.933 158.53 405.333 148.797 405.333 121.063V85.3299H422.4H439.333L518.4 164.397L597.333 243.33L597.066 413.597C596.666 583.197 596.666 583.863 593.866 587.463C588 595.463 584.933 596.663 569.2 597.063L554.666 597.597V497.73C554.666 389.33 554.8 390.663 547.2 375.73C542.4 366.263 530.8 354.53 521.466 349.463C505.466 340.93 513.733 341.33 341.333 341.33C168.933 341.33 177.2 340.93 161.2 349.463C151.866 354.53 140.266 366.263 135.466 375.73C127.866 390.663 128 389.33 128 497.73V597.597L113.466 597.063C97.7329 596.663 94.6662 595.463 88.7995 587.463L85.9995 583.863L85.5995 344.93C85.4662 213.463 85.5995 104.13 85.9995 101.73C86.9329 96.3966 92.5329 89.5966 97.9995 87.1966C100.4 86.1299 107.2 85.4633 115.066 85.3299H128V121.063ZM362.4 121.197C362 155.063 361.866 157.33 359.2 160.797C357.733 162.797 354.8 165.73 352.8 167.197C349.2 169.997 347.866 169.997 266.666 169.997C185.466 169.997 184.133 169.997 180.533 167.197C178.533 165.73 175.6 162.797 174.133 160.797C171.466 157.33 171.333 155.063 170.933 121.197L170.533 85.3299H266.666H362.8L362.4 121.197ZM502.133 387.463C504.133 388.93 507.066 391.863 508.533 393.863C511.333 397.463 511.333 398.93 511.733 497.463L512 597.33H341.333H170.666V499.463C170.666 433.33 171.066 400.263 172.133 397.73C174 392.797 178.4 387.997 183.333 385.863C186.666 384.397 215.333 384.13 342.933 384.397C497.733 384.663 498.533 384.663 502.133 387.463Z" fill="#FFD301"/>
<path d="M247.333 428.527C238.399 432.393 233.333 442.66 235.199 452.66C236.399 458.927 243.066 466.26 249.066 467.993C252.399 469.06 283.333 469.327 344.266 469.06C432.933 468.66 434.533 468.66 438.133 465.86C445.199 460.66 447.333 456.393 447.333 447.993C447.333 439.593 445.199 435.327 438.133 430.127C434.533 427.327 433.066 427.327 342.933 427.06C268.799 426.793 250.533 427.06 247.333 428.527Z" fill="#FFD301"/>
<path d="M247.333 513.863C238.399 517.729 233.333 527.996 235.199 537.996C236.399 544.263 243.066 551.596 249.066 553.329C252.399 554.396 283.333 554.663 344.266 554.396C432.933 553.996 434.533 553.996 438.133 551.196C445.199 545.996 447.333 541.729 447.333 533.329C447.333 524.929 445.199 520.663 438.133 515.463C434.533 512.663 433.066 512.663 342.933 512.396C268.799 512.129 250.533 512.396 247.333 513.863Z" fill="#FFD301"/>
</svg>
