<svg width="512" height="512" viewBox="0 0 512 512" fill="none" xmlns="http://www.w3.org/2000/svg">
<path d="M314.762 111.113H433.895C465.127 111.113 494.427 146.345 496.681 176.405C500.867 236.203 493.461 300.849 496.681 361.293C496.681 389.09 463.839 425.292 436.148 425.292H410.712C412 439.837 424.557 460.524 423.913 474.423C422.947 496.402 392.037 508.039 380.446 485.736L359.839 425.292H152.805C145.077 442.1 141.214 463.11 133.808 479.918C128.012 492.847 115.455 500.281 100.966 497.372C92.5945 495.756 85.5109 482.504 85.5109 474.423C85.5109 461.17 100 439.191 101.288 424.969H75.8515C48.4831 424.969 14.9971 388.767 15.319 360.969C18.5388 300.526 11.1333 235.88 15.319 176.082C17.5729 146.022 46.5512 110.79 78.1054 110.79H197.238L142.502 55.1945C122.539 32.8917 149.263 2.18488 174.056 18.9928L255.517 100.447C284.173 74.265 310.576 45.4976 338.588 18.3463C358.873 4.44748 384.632 26.4271 374.006 48.4067C356.619 71.0327 333.436 89.1336 314.762 110.79V111.113ZM80.6812 160.244C68.7679 163.153 63.6162 172.527 62.9723 184.163C66.1921 238.789 58.7865 298.263 62.9723 352.242C64.2602 368.727 71.9877 376.484 88.4088 377.777H423.913C440.012 376.484 448.062 368.404 449.35 352.242C446.13 297.616 453.536 238.142 449.35 184.163C448.384 171.234 442.266 160.89 428.421 159.921H80.6812V160.244Z" fill="white"/>
<path d="M79.0663 153.477H433.217C446.99 154.505 453.548 165.473 454.532 178.841C458.795 236.083 451.253 299.151 454.532 357.078C453.22 374.216 445.022 382.785 428.626 384.156H86.9363C70.2125 382.785 62.3425 374.559 61.0309 357.078C56.7679 299.836 64.31 236.768 61.0309 178.841C62.0146 166.502 66.9334 156.561 79.0663 153.477ZM230.892 202.834C220.071 204.548 209.905 213.46 208.594 225.114C204.987 250.479 205.932 283.589 208.594 309.091C210.561 327.943 230.236 337.54 246.632 332.056C257.781 328.286 313.2 295.038 323.037 286.811C330.251 280.984 332.875 274.472 331.891 264.875C330.579 254.249 321.725 249.793 314.183 244.994C297.459 234.026 267.947 214.831 250.567 206.948C244.337 204.206 237.778 201.806 230.892 202.834Z" fill="#FDFDFD"/>
</svg>
