<svg width="384" height="384" viewBox="0 0 384 384" fill="none" xmlns="http://www.w3.org/2000/svg">
<path d="M183.242 228.221C255.312 223.151 321.241 279.981 324.151 352.841C324.531 362.401 323.881 370.771 312.551 372.031H72.2015C60.5115 370.741 60.1815 361.811 60.6415 352.131C63.7315 286.561 118.522 232.781 183.242 228.221Z" fill="white"/>
<path d="M186.241 60.2177C244.861 55.4877 284.421 119.108 253.621 169.728C227.111 213.298 164.781 215.548 134.441 174.678C101.071 129.748 130.891 64.6877 186.251 60.2177H186.241Z" fill="white"/>
<path d="M295.669 72.7488C287.159 72.4288 280.029 77.0988 272.549 80.1888C236.809 21.6488 147.939 21.7188 112.199 80.1888C104.649 75.8988 98.5788 74.3888 90.1988 72.7288C89.3588 72.5588 88.7588 73.2388 89.0588 71.6188C89.3588 69.9988 95.5188 61.2888 96.9988 59.3188C144.269 -3.84124 241.079 -3.62124 288.059 59.7588C289.179 61.2688 296.569 71.9088 295.669 72.7488Z" fill="white"/>
<path d="M296.239 96.2033C310.159 94.1733 322.919 103.993 324.139 118.103C324.759 125.293 324.919 145.793 322.769 152.033C320.139 159.703 312.819 162.573 311.189 165.933C310.189 168.003 309.949 172.193 308.959 174.943C302.119 193.933 287.019 209.103 267.229 214.133C256.399 216.883 237.739 218.383 240.459 201.553C242.249 190.493 253.569 192.783 261.259 190.903C271.169 188.483 282.159 179.253 285.549 169.493C288.239 161.753 283.849 163.073 280.079 157.003C275.029 148.863 275.099 126.493 276.289 116.723C277.479 106.953 286.349 97.6533 296.239 96.2133V96.2033Z" fill="white"/>
<path d="M80.6619 96.2034C90.7519 94.7334 101.192 99.6234 105.832 108.843C109.832 116.793 109.932 146.093 106.302 154.143C98.2119 172.083 72.2019 172.773 63.3319 155.173C59.6119 147.793 59.3219 119.753 61.9919 112.003C64.6619 104.253 72.2519 97.4234 80.6519 96.2034H80.6619Z" fill="white"/>
</svg>
