<svg width="512" height="512" viewBox="0 0 512 512" fill="none" xmlns="http://www.w3.org/2000/svg">
<g clip-path="url(#clip0_2689_343)">
<path d="M473 512.001H37C13.63 503.391 16.57 471.981 41.51 469.011L467.54 468.961C494.62 469.711 498.66 504.551 473 512.001Z" fill="black"/>
<path d="M156.503 0.319992L351.263 0C370.193 1.5 382.263 13.57 383.763 32.5C380.823 80.9 387.553 133.69 383.763 181.57C382.263 200.5 370.193 212.57 351.263 214.07H159.193C142.983 212.8 130.463 202.83 127.723 186.54V27.53C130.093 12.6 141.633 2.19999 156.513 0.319992H156.503ZM340.723 43.04H169.723V154.04C171.403 154.4 171.743 153.51 172.703 152.52C180.353 144.66 200.093 119.89 209.463 118.28C229.153 114.89 232.593 130.69 246.743 138.58L280.233 103.05C288.283 95.68 297.943 94.11 307.673 99.59L340.723 129.04V43.04Z" fill="black"/>
<path d="M38.7597 384.262L471.5 383.992C497.7 389.292 496.36 424.622 468.53 427.032L41.5097 426.982C15.8697 424.402 13.4997 389.512 38.7597 384.252V384.262Z" fill="black"/>
<path d="M442.463 22.282C448.373 21.292 467.113 21.3019 473.133 22.1319C495.493 25.2119 495.543 61.5219 472.223 64.0419C465.793 64.7319 449.603 64.812 443.303 63.952C420.843 60.892 420.613 25.9319 442.453 22.2719L442.463 22.282Z" fill="black"/>
<path d="M442.463 150.282C448.373 149.292 467.113 149.302 473.133 150.132C495.493 153.212 495.543 189.522 472.223 192.042C465.793 192.732 449.603 192.812 443.303 191.952C420.843 188.892 420.613 153.932 442.453 150.272L442.463 150.282Z" fill="black"/>
<path d="M36.4527 22.2717C41.4527 21.2517 61.8127 21.3617 67.2527 22.0217C89.9527 24.7917 90.0627 60.5617 68.1628 63.9817C62.6128 64.8517 43.9427 64.7717 38.2027 64.0717C16.0327 61.3617 15.1227 26.6017 36.4527 22.2717Z" fill="black"/>
<path d="M36.4527 150.272C41.4527 149.252 61.8127 149.362 67.2527 150.022C89.9527 152.792 90.0627 188.562 68.1628 191.982C62.6128 192.852 43.9427 192.772 38.2027 192.072C16.0327 189.362 15.1227 154.602 36.4527 150.272Z" fill="black"/>
<path d="M472.998 235C498.658 242.45 494.618 277.3 467.538 278.04L41.5076 277.99C16.7176 274.86 13.4276 243.69 36.9976 235H472.998Z" fill="black"/>
<path d="M39.7576 320.258L469.488 320.008C496.458 322.728 497.148 358.348 471.498 362.998H40.5076C14.9376 359.658 14.4476 324.688 39.7576 320.258Z" fill="black"/>
</g>
<defs>
<clipPath id="clip0_2689_343">
<rect width="512" height="512" fill="white"/>
</clipPath>
</defs>
</svg>
