<svg width="512" height="512" viewBox="0 0 512 512" fill="none" xmlns="http://www.w3.org/2000/svg">
<g clip-path="url(#clip0_3439_322)">
<path d="M38.25 0H257.75L258.5 0.5L265 2.25L269.5 4.25L273.25 6.25L276.25 8.25L278.75 10.25L281.25 12.5L284.25 15.5L286.75 18.75L289 22.25L291 26L293 31.25L294.25 36L294.75 39L295 42V252.5L294.5 257.25L293.5 262L291.75 267L289.25 272.25L287.5 275L284.5 279L281.75 282L278.5 285L275 287.5L270.75 290L266.25 292L261.75 293.5L256.75 294.5L251.5 295L165.25 295.25L163.25 299.25L160 304.75L158.25 307.5L155.75 311L152.75 315L150 318.5H149.5L149 319.5L145 323.75L142.5 326.25L140.5 328L138 330.25L133.75 333.5L129.75 336.5L123.75 340.25L119.75 342.5L114 345.5L107.75 348.25L100.75 350.75L95 352.5L88.5 354L84.75 354.75L82.5 355H79.75L76.25 354.25L72.75 352.5L69.75 349.75L68.25 347.75L66.75 344.75L66.25 343L66 340.75V295H43.5L37.75 294.5L32.25 293.25L27.25 291.5L22.25 289L19.25 287L16 284.5L12.75 281.5L10 278.5L7.25 274.75L5 271L3 266.75L1.5 262.25L0 256.5V38L0.5 36.5L2 30.75L4.5 24.75L6.5 21.25L9.25 17.25L11.75 14.5L13.5 12.5L16.25 10L20 7.25L23.75 5L28 3L33.25 1.25L38.25 0ZM146.25 72.25L142.5 73L139.5 74.5L136.75 76.75L135 79L133.25 82.5L132.75 84.25L132.5 86.75V96.25L85 96.5L82 97.25L79.5 98.5L77.25 100.25L75.5 102L74 104.5L73 106.75L72.25 110.75L72.5 114L73.25 116.5L74.75 119.5L76.75 122L79.5 124L82 125.25L84.75 126L87.5 126.25L103 126.5L104.5 136.75L106 144L108.25 152L111 159.75L114 166.5L117 172L120.25 177.25L123.25 181.5L124.25 183.25L122 184L116.25 186.5L109.5 188.75L101.5 190.75L94 192L84.25 193L81 194L77.5 196.25L75.75 198L74 200.75L72.75 204L72.5 205.25V210L73.25 213L75 216.25L77.5 219L80.25 220.75L82.25 221.75L86.25 222.5H89.25L95.75 222L104.25 220.75L113.5 218.75L122 216.25L130 213.25L136.5 210.25L142.25 207.25L147 204.25L148.25 204.5L151.75 206.75L157.75 210L162.5 212.25L168.75 214.75L177.75 217.75L183.25 219.25L193.75 221.25L199.25 222L205 222.5H209.25L211.5 222L214.75 220.75L218 218.5L219.75 216.5L221.5 213.5L222.25 211.25L222.5 209.75V205.5L221.5 202L220.25 199.5L218.5 197.25L216.25 195.25L212.5 193.5L209.5 192.75L202.25 192.25L193.25 190.75L186.25 189L178.75 186.5L171.75 183.5L171 183L171.25 182L174 178.25L177 173.5L179.25 169.5L181.25 165.75L184.5 158.25L187.25 150L189.25 142.25L190.75 134.5L191.75 127V126.25H202.5L210.25 126L213.5 125L216.25 123.5L218.75 121.25L220.5 119L221.75 116.25L222.5 113.25V109.5L221.75 106.25L220.25 103.25L218.5 101L216.25 99L212.75 97.25L210 96.5L162.25 96.25V85.25L161.25 81.5L159.5 78.25L158 76.5L155 74.25L151.5 72.75L148.25 72.25H146.25Z" fill="white"/>
<path d="M428.25 157H433L436 157.75L439 159.25L441 160.75V161.25H441.5V161.75H442L444.25 165L445.5 168L445.75 169.25L446 186.5V216.75H463.5L470.75 217L476.5 217.75L481.75 219.25L487 221.5L490.25 223.25L493.25 225.25L495.75 227.25L498.25 229.5L501.5 232.75L504.5 236.75L507.25 241.5L509 245.25L511 251.5L511.5 253.75H512V474.75H511.5L510.5 479L508.75 484.25L506.5 489L504.75 491.75L502.25 495.25L499.25 498.5L498 499.75L495 502.5L490.5 505.5L484.75 508.5L480 510.25L473 512H256.25L249.25 510.25L244.25 508.5L239.25 506L236.25 504L233 501.5L229.75 498.5L227 495.5L223.75 491L220.75 485.5L219 481L217.75 476.25L217 470.75L216.75 461.75V326.25L217.25 324.75L253.25 324.5L261 323.75L267.5 322.5L273.5 320.75L279.5 318.5L285.75 315.5L291.5 312L296.25 308.5L299.5 305.75L303.25 302.25L304.5 300.75H305L305.5 299.75L307.75 297.25L311 293L313.25 289.5L315.75 285.25L318.75 279L321 273L322.75 266.5L323.5 263L324.25 257L324.5 253.25L324.75 217L326 216.75H344.5L346.75 216.5L349.5 211.25L352.5 206.25L355.75 201.5L358 198.5L361.25 194.5L363.5 191.75L371.5 183.75L374.25 181.5L378.25 178.25L382.5 175.25L386.75 172.5L390.5 170.25L396.5 167L403.75 163.75L410.5 161.25L417.25 159.25L423.5 157.75L428.25 157ZM362 289.5L359.25 290.25L356.25 291.75L353.25 294.5L351.5 297L349 301.75L346.75 306.5L344.5 310.75L342.25 315.5L340 319.75L337.75 324.5L335.25 329.25L293.25 413.25L291.25 417.5L290 420.25L289.5 422.75V426.75L290.25 429.75L292 433.25L294.75 436.25L298 438.25L301 439.25L302.5 439.5H306.25L309.25 438.75L312.75 437L315 435.25L317 432.5L320 426.75L328.25 410.25V409.75H400.5L411.5 431.75L413.5 434.5L415.5 436.5L419 438.5L423 439.5H426.5L430.5 438.5L434 436.5L436.25 434.25L438 431.5L439 429L439.5 426.75V422.75L438.75 419.5L435.25 412.25L377.75 297.25L376 294.75L374.5 293L371 290.75L368.25 289.75L366.75 289.5H362Z" fill="white"/>
<path d="M13.25 331H16.5L20 331.75L23 333.25L25.5 335.25L27.5 337.5L29.5 341.5L30 344L30.75 356L31.75 363.75L33.25 371L35 377.5L37.5 384.5L39.75 389.75L42.5 395.5L46 401.5L49.5 406.75L51.75 409.75L54.25 413L56.5 415.5L58.25 417.5L59.5 418.75V419.25H60L61.75 421.25L64.75 424L67.25 426.25L69.75 428.25L74 431.5L79.25 435L83.5 437.5L88 440L94.5 443L101 445.5L107.5 447.5L114 449L121.25 450.25L126.25 450.75H128L125 447.75L123 445.25L121 441.5L120.25 438.5V434.5L121.25 430.75L123.25 427.25L125.5 424.75L128.75 422.75L131.25 421.75L134.5 421.25L138.25 421.5L141.5 422.5L144.5 424.25L147.75 427.25L177 456.5L179.25 460L180.25 462.75L180.75 465.5V467.75L179.75 472L177.5 476L175.75 478H175.25L174.75 479L165.75 488H165.25L164.75 489L147.75 506L145.75 507.75L143.5 509.5L139.75 511.25L136.5 512H134.75L131.25 511.25L128.25 510L125.5 508.25L123 505.5L121 501.5L120.25 498.5V495L121.25 491L123.25 487.5L126 484.5L128.75 481.75L116.5 480.5L109.5 479.25L101.5 477.5L94.75 475.5L88.75 473.5L80.75 470.25L73.5 466.75L69.25 464.5L63.75 461.25L57 456.75L51.75 452.75L49 450.5L45.75 447.75L42 444.25L41 443.5V443L40 442.5L38 440.5V440H37.5L35.75 438L33 435L30.25 431.75L28.25 429.25L24.75 424.5L20.25 417.75L18 414L15.5 409.5L13.25 405.25L10 398L7.25 390.75L5 383.75L3 375.75L1.75 369.5L0.25 359.25L0 359V342.5L1.75 338.75L3.25 336.5L4.5 335L7.75 332.75L10.75 331.5L13.25 331Z" fill="white"/>
<path d="M372.5 0H380.25V0.5L381.75 0.75L385.25 2.75L387.75 5L389.5 7.5L390.5 9.5L391.25 12.25L391.5 15.25L391 18.75L389.75 22L387.5 25.25L383 29.75L392.75 30.75L402 32.25L409 33.75L416 35.75L423.5 38.25L430.75 41.25L436.25 43.75L441.75 46.75L445.75 49L450.5 52L454.5 54.75L459.25 58.25L462.5 61L465.25 63.25L468.5 66.25L470.5 68L475 72.5L476.75 74.5L479.25 77.25L481.5 80L484.25 83.5L487 87.25L491 93.25L493.25 97L496.25 102.25L499.5 108.75L502.25 115.25L504.75 122L507 129.25L508.75 136.25L510.25 144.5L511.25 152L511.5 154.5L512 154.75V168.5L511.5 169L510.5 171.75L508.75 174.75L507.5 176.25L505 178.25L501.75 179.75L497.75 180.75H495.75L492.25 180L489.25 178.75L486.5 176.75L484.25 174.25L482.25 170.25L481.5 166.75L481 157.25L480.25 150.5L479 143.25L477 135.5L474.5 128L471.75 121.5L468.25 114.5L464.5 108.25L461 103.25L457.5 98.75L454.5 95.25L450.75 91.25L448 88.5L446 86.75L442.5 83.75L437.5 80L433 77L426.75 73.25L423 71.25L415.75 68L409.5 65.75L403.75 64L397.5 62.5L389.5 61.25L385 60.75H383.5L384 61.75L385 62.25L386.75 64.25L389 66.75L390.75 70.5L391.5 74.5L391.25 77.75L390.25 81L388.75 83.75L386.75 86.25L384 88.25L381.25 89.5L377.75 90.25H374.5L370.5 89.25L367.75 87.75L364.5 85L335.5 56L333 52.75L331.75 50L331 47.25V43.25L332 39.5L333.25 37L335.25 34.5L362.25 7.5L363.5 6L367.5 2.5L371.25 0.5L372.5 0Z" fill="white"/>
<path d="M364.25 337.75H364.75L385.5 379.25V379.75H343.5L344 378.25L363.75 338.75L364.25 337.75Z" fill="white"/>
<path d="M133 126.25H161.75L161.5 129L160 136.75L158.25 143L156.5 148L153.75 154L151 159L149.25 161.5L147.75 164L146.5 162.75L144 159L141.5 154.75L139 149.5L136.75 143.5L135 137.25L133.75 131.25L133 127V126.25Z" fill="white"/>
</g>
<defs>
<clipPath id="clip0_3439_322">
<rect width="512" height="512" fill="white"/>
</clipPath>
</defs>
</svg>
