<svg width="1500" height="998" viewBox="0 0 1500 998" fill="none" xmlns="http://www.w3.org/2000/svg">
<rect width="822" height="881" transform="translate(339 59)" fill="#141414"/>
<path d="M846 623.997C846.07 616.117 841.53 606.967 839.88 599.117C830.62 600.047 821.63 597.557 812.54 596.957C806.29 596.547 799.77 597.467 793.52 596.987C788.92 596.627 785.99 596.047 783.19 592.357L759.66 540.817C756.67 530.207 770.05 521.737 778.72 528.297C781.9 530.707 795.01 562.517 798 569.007L800.16 572.507C810.8 574.117 821.54 574.777 832.39 574.507C841.35 582.417 851.87 586.007 864.01 583.887C877.59 581.507 883.59 573.937 891 564.007C907.83 559.137 922.86 544.627 938.24 535.957C938.87 535.607 939.01 534.407 939.77 534.067C946.19 531.267 950.27 533.167 955.19 537.017C964.84 544.587 980.72 561.087 989.64 570.347C991.35 572.117 997.6 578.637 998.41 580.077C1004.65 591.177 993.48 602.557 982.29 596.197C969.61 584.317 957.5 571.087 944.52 560.007L916.24 578.237C915.33 581.027 922.53 602.127 923.73 606.767C929.5 629.157 935.82 651.767 939.89 674.377C937.44 687.307 929.35 691.437 916.61 689.887C913.24 689.477 905.68 687.097 902 685.997L898.79 686.417L864.28 675.277C862.16 674.787 860.4 673.687 859 671.997C852.98 670.147 833.04 662.247 828.57 663.037C827.13 663.297 821.69 665.377 819.77 666.067C793.67 675.457 768.94 687.807 741.77 696.067C740.93 696.327 741.32 697.837 739.56 698.057C733.62 698.817 728.17 698.197 723.37 694.597C715.3 688.547 714.75 676.237 720.42 668.377C720.85 667.777 726.38 663.207 726.76 663.047C730.07 661.587 735.72 660.567 739.54 659.037C766.36 648.287 793.23 636.307 820.36 626.827C824.5 625.377 832.41 625.797 836.99 625.987C845.11 629.277 848.11 628.617 845.99 623.987L846 623.997Z" fill="#FFD81F"/>
<path d="M582 572.999C581.64 571.729 584.55 563.579 585.31 561.809C590.56 549.719 602.47 538.819 616.38 539.099C625.39 539.279 632.92 545.549 635.53 553.959C640.46 569.839 628.1 606.229 627.01 625.499C626.37 636.709 630.28 659.319 626.4 667.889C625.38 670.129 623.25 672.049 622 673.989C616.98 680.419 610.82 685.149 604.21 690.099L592.63 699.769L597.52 702.379C607.77 705.179 617.26 709.049 625.99 713.989C633.92 716.849 646.33 719.369 650.75 726.689C655.72 734.929 652.17 748.539 642.99 751.989C642.58 754.229 640.36 755.009 636.32 754.319C622.21 751.939 608.36 747.749 594.78 741.759L593.99 739.989C579.49 735.109 560.45 729.799 546.97 723.519C534.96 717.919 532.34 706.729 540.06 695.809L577.28 664.699L575.99 641.999C573.98 638.559 573.46 621.519 575.25 618.229L617.55 580.499C622.15 575.849 623.99 568.879 620.62 563.019C612.2 548.379 596.36 561.209 589.31 570.289C586.61 573.349 584.17 574.259 581.99 572.999H582Z" fill="#FFD81F"/>
<path d="M896 701.002C892.44 714.372 885.97 727.542 885.04 741.452L917.19 801.312C924.94 826.942 896.98 839.642 882.62 814.882C874.48 800.842 865.49 783.512 858.1 769.192C853.76 760.772 849.43 752.112 846.19 743.242C848.76 725.982 856.63 709.062 860.5 692.022C861.16 689.122 861.95 685.972 861.99 683.012C860.51 681.482 859.49 674.482 861.53 674.422C863.57 674.362 898.11 685.092 899.36 686.632C899.58 686.912 899.9 687.112 900.24 687.292C899 691.912 897.58 696.492 895.98 701.012L896 701.002Z" fill="#FFD81F"/>
<path d="M832 571.998C826.44 565.628 823.93 552.798 825.09 544.588C825.59 541.018 828.83 537.048 828.05 533.708C827.71 532.258 822.45 531.378 821.09 529.428C816.06 522.258 829.14 508.478 835.07 504.568C858.27 489.278 903.18 503.958 900.91 535.368C900.35 543.078 894.68 540.508 889.01 540.008C889.86 544.738 890.51 549.678 890.01 554.508C889.89 555.678 888.29 563.298 888 563.998C888.77 567.338 886.34 570.288 884.08 572.938C874.94 583.648 857.79 587.258 844.77 582.308C840.32 580.618 832.71 576.478 832.01 571.998H832Z" fill="#FFD81F"/>
<path d="M582 577.997C583.42 574.977 585.86 572.407 589.33 570.287C596.62 561.327 612.13 548.027 620.79 563.287C623.23 567.587 622.7 572.977 620.17 577.157C605.94 591.747 589.84 606.047 573 618.007C563.17 626.827 553.13 635.937 543.41 644.367C535.79 650.977 525.51 666.497 514.95 654.567C507.48 646.137 514.63 639.767 520.49 633.967C539.29 615.347 562.05 595.777 582.01 578.017L582 577.997Z" fill="#FFD81F"/>
<path d="M644 756.003C650.77 769.163 661.72 782.212 668.39 795.112C672.25 802.592 672.88 807.543 668.77 815.273C665.78 820.893 656.89 824.793 650.74 823.773C644.59 822.753 641.08 819.613 637.56 814.943C622.32 794.763 610.46 767.852 595.97 746.742C593.58 745.602 594.12 745.223 594 743.003L594.62 741.812C608.14 747.642 621.93 751.813 635.98 754.323C639.53 753.653 642.2 754.213 644 756.013V756.003Z" fill="#FFD81F"/>
<path d="M627 500.001L629.01 498.981C635.49 502.381 637.91 501.441 642.95 496.801C649.65 496.541 651 500.391 647.01 508.351C650.38 518.271 657.62 518.951 665.46 513.291C670.49 513.451 682.59 522.871 684.01 528.001C683.83 532.761 677.47 539.601 673.89 542.351C649.28 561.261 615.26 538.081 622.12 508.611C622.47 507.091 624.62 499.391 627.01 500.001H627Z" fill="#FFD81F"/>
<path d="M682 691.997C679.3 686.817 690.98 680.677 690.04 677.557C689.97 677.317 686.58 674.997 685.89 674.587C681.87 672.177 675.33 670.367 671.12 667.397C663.19 661.807 677.59 662.377 679.33 661.987C680.08 661.817 679.94 660.207 680.7 660.027C682.82 659.517 685.73 660.307 688.01 659.997C688.96 655.627 674.83 642.327 678.02 639.007L693.31 642.037C693.79 643.847 697.03 644.917 698.01 644.007C700.09 642.067 695.89 625.537 696.04 622.607C696.04 622.427 698.34 619.977 698.52 619.977C699.28 619.977 708.51 629.097 709.68 630.337C711.55 632.317 711.74 636.027 715.46 636.047C716.48 636.047 721.26 622.447 722.71 621.987C727.3 620.537 725.4 623.537 726.06 625.237C726.41 626.147 727.78 625.947 727.99 626.717C728.5 628.647 727.62 634.157 730.65 634.907C734.19 635.777 746.49 615.657 747.12 626.497C747.18 627.517 746.25 636.287 746.02 637.327C745.85 638.087 744.22 637.937 744.05 638.687C743.34 641.827 745.84 648.697 740.03 646.497L741.03 633.007C740.03 631.657 732.39 641.477 731.79 641.707C730.7 642.117 726.29 642.267 726.04 642.017C725.63 641.607 726.59 631.357 722.05 632.007C723.15 635.527 720.84 635.507 720.13 636.837C719.15 638.687 719.59 638.477 718.04 640.727C716.82 642.507 718.01 644.847 714.62 644.017C713.72 643.797 704.04 631.857 702.55 629.997C700.28 633.547 704.75 648.117 701.93 649.877C699.11 651.637 697.88 648.247 697.31 648.077C694.35 647.147 689.29 646.587 686.06 646.017C685.11 646.847 691.69 654.077 692.33 655.277C699.1 668.047 689.44 662.307 681.31 665.757C676.43 667.827 682.84 667.837 683.77 668.317C686.11 669.517 690.34 672.537 692.88 673.937C694.08 674.597 698.07 673.117 696.39 678.757C696.12 679.667 688.64 685.727 690.07 686.997L702.07 686.007C704.12 688.517 698.65 692.007 697.56 692.007H682.06L682 691.997Z" fill="white"/>
<path d="M645 485.001C652.35 482.041 659.26 483.101 666.54 485.961C680.97 491.641 689.97 508.901 686 524.001L682.72 524.021C677.65 519.801 672.34 516.161 666.77 513.091C665.06 499.201 663.62 497.711 649.52 499.531C644.33 497.871 641.74 488.781 645.01 485.001H645Z" fill="#FFD81F"/>
<path d="M762.33 719.719C775.12 756.329 807.16 794.239 841.7 812.299L847.99 817.999C844.05 819.489 842.62 816.789 841.65 816.389C804.19 800.649 768.14 750.799 757.93 712.749C757.71 711.919 756.2 712.029 756.03 711.309C755.55 709.339 756.26 700.289 758.52 703.989L762.33 719.729V719.719Z" fill="white"/>
<path d="M627 500C626.77 499.79 624.09 494.86 624.02 494.48C623.71 492.9 623.7 488.25 624.02 486.7C624.11 486.26 629.83 480.45 630.25 480.28C631.65 479.7 637.69 479.68 639.29 480.02C639.66 480.1 644.82 484.66 644.99 485C646.51 488.01 644.63 496.65 649.9 497.58C653.91 498.29 657.78 495.56 663.26 498.02C668.74 500.48 667.52 511.05 668.12 511.87C668.49 512.38 670.48 512.32 671.26 512.99C676.14 517.2 681.11 520.21 685.99 524C687.87 525.47 693.49 529.03 692.93 531.4C691.87 535.83 689.51 531.14 689.29 530.98C688.14 530.18 685.15 528.86 684 528C678.36 523.82 673.31 518.89 667.29 515.15C664.03 514.31 661.59 521.24 652.37 518.16C649.54 517.22 645.23 511.39 645.01 508.45C644.79 505.51 648.27 500.37 647.99 500.02C647.87 499.87 644.67 498.23 644.47 498.23C643.92 498.23 638.45 502.98 637.53 503.08C634.99 503.37 628.75 501.64 626.99 500H627Z" fill="black"/>
<path d="M582 572.997C590.55 569.417 597.94 555.747 607.44 554.927C623.68 553.527 630.01 574.247 616.62 583.587L576.65 619.247C573.58 623.767 574.78 636.537 576.01 641.997L574.02 650.987C573.47 640.057 575.18 628.727 573.01 617.997C582.82 609.197 592.81 600.167 602.65 591.087C607.27 586.827 613.94 582.637 617.83 577.357C623.75 569.307 620.8 560.687 611.24 558.247C602.71 556.067 595.73 567.147 590.21 571.977C587.91 573.987 583.93 576.287 582.01 577.997C580.75 574.997 584.02 575.017 584.02 574.497C584.03 573.667 582.26 573.867 582.01 572.997H582Z" fill="#141414"/>
<path d="M620 689.998C620.88 696.608 621.45 703.348 622 709.998C612.75 707.888 603.57 704.928 594.46 701.128C594.38 700.598 594.3 700.068 594.24 699.538C594.02 697.668 612.86 682.958 616.02 680.988C616.45 680.718 617.35 681.448 618 681.988C619.33 684.078 619.99 686.748 620 689.988V689.998Z" fill="#FFD81F"/>
<path d="M888 564C888.18 567.9 888.11 564.84 891 564C889.65 567.14 887.14 571.68 885 574.22C875.46 585.56 858.51 589.33 844.46 584.04C839.82 582.3 832.79 575.77 830.29 575.21C821.54 573.24 809.36 577.06 800.24 573.33C798.21 572.78 798.66 570.43 798 569L800.7 572.02C810.24 572.37 818.9 574.34 828.54 574C830.46 573.93 832.55 575.02 832 572C846.75 588.91 879.37 584.89 888 564Z" fill="#141414"/>
<path d="M722.71 462.279C725.39 465.549 723.67 471.729 721.02 474.519C718.92 476.739 715.49 477.079 713.47 478.969C711.28 481.009 710.21 488.069 705.97 483.489C704.44 481.839 705.49 478.189 706.37 476.319C707.6 473.719 713.99 472.009 715.09 470.589C717.07 468.009 716.43 463.409 712.64 464.169C710.41 464.619 710.11 471.249 704.95 466.479C703.53 465.159 705.68 458.409 706.13 458.119C709.07 456.209 720.28 459.319 722.71 462.269V462.279Z" fill="white"/>
<path d="M622 674C619.88 677.31 617.77 677.89 618 682C618.62 681.9 619.35 682.05 619.99 682V690C619.73 687.97 618.13 684.44 618 682C616.42 682.26 602.87 693.12 600.64 695.19C599.94 695.84 595.18 700.26 596.01 701C602.39 701.69 608.51 704.78 614.56 706.95C617.66 708.06 620.08 706.91 622.01 710.01C622.16 710.26 621.62 711.51 622.15 711.86C623.32 712.65 626.8 710.77 626.01 714.01C615.07 710.06 603.41 705.91 593.24 702.04C591.24 701.28 588.65 703.48 590.48 698.95L622.01 674.01L622 674Z" fill="#141414"/>
<path d="M846 624L852.77 628.92C869.86 632.74 886.39 639.33 903.24 644.26L904.99 648L837 626C842.9 626.25 841.48 627.63 842.67 627.98C846.84 629.2 845.97 627.08 846 624Z" fill="#141414"/>
<path d="M902 686L896 701C896.59 698.78 898.76 690.77 898.86 689.3C898.92 688.42 898.85 687.95 898.01 687.51L861.48 676.01C860.23 678.05 862.03 680.74 862 683C858.35 681.21 860.91 675.48 859 672C873.34 676.41 887.96 681.8 902 686Z" fill="#141414"/>
<path d="M643 752C641.51 753.8 642.78 753.63 644 756L627.34 755.16L594 743C593.95 742.01 594.04 741 594 740C604.4 743.5 627.96 753.43 637.54 753.05C639.29 752.98 641.38 752.61 643 752Z" fill="#141414"/>
<path d="M697.62 469.649C697.54 469.909 696.26 469.959 696.05 470.719C694.99 474.559 696.56 481.389 690 479.999C688.67 475.109 691.12 471.049 691.77 467.269C692.32 464.059 691.74 453.959 696.5 453.969C702.74 453.979 698.63 466.119 697.62 469.649Z" fill="white"/>
<path d="M689.51 482.352C696.49 482.412 694.01 494.622 687.59 489.912C684.39 487.572 685.92 482.322 689.51 482.352Z" fill="white"/>
<path d="M707.79 486.249C709.92 487.179 710.52 491.819 710 493.999C699.17 496.889 701.22 483.369 707.79 486.249Z" fill="white"/>
<path d="M834.5 524.001C833.94 524.081 827.15 527.801 830.01 524.021C832.87 520.241 855.28 520.621 860.54 520.961C867.49 521.411 881.64 524.861 887.64 528.371C890.64 530.121 893.53 535.901 890.49 539.011C889.04 536.651 886.57 532.511 884.21 531.061C881.28 529.271 864.87 524.001 861.49 524.001C853.58 524.001 841.8 522.971 834.49 524.001H834.5Z" fill="black"/>
<path d="M860.63 558.397C862.4 559.117 866 561.777 867.72 562.997C869.8 564.477 872.86 563.077 869.86 567.347C866.86 571.617 867.18 567.657 866.7 567.347C861.41 563.867 855.06 560.447 848.54 559.967C844.34 559.657 838 562.357 837.06 557.617C837.95 551.607 856.62 556.767 860.62 558.397H860.63Z" fill="black"/>
<path d="M854 507.004C854.97 506.944 855.74 505.604 858.02 506.384C860.45 507.214 860.61 509.404 861.22 509.764C862.03 510.234 869.79 509.414 867 511.994C866.8 512.184 863.51 512.274 862.38 512.844C859.99 514.064 859.96 516.144 855.56 515.914C849.68 515.604 853.36 511.514 851 510.004C849.66 508.614 850.66 507.614 854 507.004Z" fill="black"/>
<path d="M854 506.996L851 509.996C849.88 509.276 847.41 509.766 848 507.006C849.98 506.896 852.02 507.136 854 507.006V506.996Z" fill="black"/>
<path d="M650.65 522.357C655.55 525.697 658.33 530.977 656.99 536.997C652.53 537.887 649.81 532.607 647.28 530.997C642.77 528.107 637.07 527.407 632.65 525.377C631.06 524.647 629.12 525.207 627.99 523.477C630.71 514.157 644.64 518.267 650.65 522.357Z" fill="black"/>
<path d="M662.72 501.288C668.41 506.058 665.55 515.878 657.46 516.028C639.94 516.358 650.68 491.218 662.72 501.288Z" fill="#FFD81F"/>
<path d="M638.74 483.294C639.02 483.414 642.38 487.374 642.57 487.934C643.29 490.064 643.29 492.964 642.57 495.094C639.38 504.454 623.58 499.944 627.21 487.724C628.45 483.564 634.98 481.744 638.74 483.304V483.294Z" fill="#FFD81F"/>
<path d="M604.712 285.889V265.328L649.403 194.909H667.673V222.821H657.073L630.919 264.263V265.115H695.638V285.889H604.712ZM657.393 304V279.604L657.925 270.602V194.909H682.588V304H657.393ZM754.578 306.663C745.061 306.663 736.858 304.408 729.969 299.898C723.08 295.353 717.771 288.837 714.042 280.349C710.314 271.827 708.467 261.582 708.502 249.614C708.538 237.647 710.402 227.491 714.096 219.146C717.824 210.765 723.115 204.391 729.969 200.023C736.858 195.619 745.061 193.418 754.578 193.418C764.096 193.418 772.299 195.619 779.188 200.023C786.113 204.391 791.439 210.765 795.168 219.146C798.897 227.526 800.743 237.683 800.708 249.614C800.708 261.617 798.843 271.88 795.115 280.403C791.386 288.925 786.077 295.442 779.188 299.952C772.334 304.426 764.131 306.663 754.578 306.663ZM754.578 285.09C760.26 285.09 764.859 282.196 768.375 276.408C771.89 270.584 773.63 261.653 773.595 249.614C773.595 241.731 772.796 235.232 771.198 230.119C769.6 224.969 767.38 221.134 764.539 218.613C761.699 216.092 758.378 214.831 754.578 214.831C748.932 214.831 744.369 217.69 740.889 223.407C737.409 229.089 735.651 237.825 735.615 249.614C735.58 257.604 736.343 264.227 737.906 269.483C739.504 274.739 741.741 278.663 744.618 281.255C747.494 283.812 750.814 285.09 754.578 285.09ZM866.253 194.909V304H839.939V219.518H839.3L814.903 234.433V211.635L841.803 194.909H866.253Z" fill="white"/>
<path d="M586.371 357H580.703L588.065 335.182H595.085L602.447 357H596.779L591.655 340.679H591.484L586.371 357ZM585.614 348.413H597.461V352.419H585.614V348.413ZM615.353 349.937V340.636H620.552V357H615.588V353.953H615.417C615.055 354.955 614.437 355.75 613.564 356.339C612.697 356.922 611.65 357.213 610.421 357.213C609.306 357.213 608.326 356.957 607.48 356.446C606.635 355.935 605.978 355.221 605.51 354.305C605.041 353.381 604.803 352.302 604.796 351.066V340.636H610.005V350.043C610.012 350.931 610.247 351.631 610.708 352.142C611.17 352.653 611.799 352.909 612.594 352.909C613.113 352.909 613.578 352.795 613.99 352.568C614.409 352.334 614.739 351.996 614.98 351.556C615.229 351.109 615.353 350.569 615.353 349.937ZM633.105 340.636V344.472H622.781V340.636H633.105ZM624.944 336.716H630.154V351.854C630.154 352.174 630.203 352.433 630.303 352.632C630.409 352.824 630.562 352.962 630.761 353.048C630.96 353.126 631.198 353.165 631.475 353.165C631.673 353.165 631.883 353.147 632.103 353.112C632.33 353.069 632.501 353.033 632.615 353.005L633.403 356.766C633.154 356.837 632.803 356.925 632.348 357.032C631.901 357.138 631.365 357.206 630.74 357.234C629.518 357.291 628.47 357.149 627.597 356.808C626.73 356.46 626.066 355.92 625.605 355.189C625.15 354.457 624.93 353.538 624.944 352.43V336.716ZM641.324 347.668V357H636.114V335.182H641.153V343.641H641.334C641.704 342.632 642.307 341.844 643.145 341.276C643.991 340.707 645.024 340.423 646.246 340.423C647.396 340.423 648.398 340.679 649.25 341.19C650.102 341.695 650.763 342.408 651.231 343.332C651.707 344.255 651.942 345.335 651.934 346.57V357H646.725V347.593C646.732 346.684 646.505 345.974 646.043 345.462C645.581 344.951 644.932 344.695 644.094 344.695C643.547 344.695 643.064 344.816 642.645 345.058C642.233 345.292 641.91 345.629 641.675 346.07C641.448 346.51 641.331 347.043 641.324 347.668ZM662.825 357.309C661.106 357.309 659.629 356.957 658.393 356.254C657.164 355.544 656.216 354.557 655.549 353.293C654.888 352.021 654.558 350.548 654.558 348.871C654.558 347.188 654.888 345.714 655.549 344.45C656.216 343.179 657.164 342.192 658.393 341.489C659.629 340.778 661.106 340.423 662.825 340.423C664.544 340.423 666.017 340.778 667.246 341.489C668.482 342.192 669.43 343.179 670.091 344.45C670.758 345.714 671.092 347.188 671.092 348.871C671.092 350.548 670.758 352.021 670.091 353.293C669.43 354.557 668.482 355.544 667.246 356.254C666.017 356.957 664.544 357.309 662.825 357.309ZM662.857 353.378C663.482 353.378 664.011 353.186 664.444 352.803C664.877 352.419 665.208 351.886 665.435 351.205C665.669 350.523 665.787 349.734 665.787 348.839C665.787 347.93 665.669 347.135 665.435 346.453C665.208 345.771 664.877 345.239 664.444 344.855C664.011 344.472 663.482 344.28 662.857 344.28C662.211 344.28 661.664 344.472 661.216 344.855C660.776 345.239 660.439 345.771 660.204 346.453C659.977 347.135 659.863 347.93 659.863 348.839C659.863 349.734 659.977 350.523 660.204 351.205C660.439 351.886 660.776 352.419 661.216 352.803C661.664 353.186 662.211 353.378 662.857 353.378ZM673.761 357V340.636H678.821V343.619H678.991C679.29 342.54 679.776 341.737 680.451 341.212C681.126 340.679 681.911 340.413 682.805 340.413C683.047 340.413 683.295 340.43 683.551 340.466C683.807 340.494 684.045 340.54 684.265 340.604V345.132C684.016 345.047 683.69 344.979 683.285 344.93C682.887 344.88 682.532 344.855 682.219 344.855C681.602 344.855 681.044 344.994 680.547 345.271C680.057 345.54 679.67 345.92 679.386 346.411C679.109 346.893 678.97 347.462 678.97 348.115V357H673.761ZM686.388 357V340.636H691.597V357H686.388ZM688.998 338.729C688.266 338.729 687.638 338.488 687.112 338.005C686.586 337.515 686.324 336.925 686.324 336.237C686.324 335.555 686.586 334.972 687.112 334.489C687.638 333.999 688.266 333.754 688.998 333.754C689.736 333.754 690.365 333.999 690.883 334.489C691.409 334.972 691.672 335.555 691.672 336.237C691.672 336.925 691.409 337.515 690.883 338.005C690.365 338.488 689.736 338.729 688.998 338.729ZM694.956 357V354.028L702.541 344.791V344.685H695.222V340.636H708.752V343.896L701.721 352.845V352.952H709.007V357H694.956ZM716.987 357.277C715.943 357.277 715.016 357.103 714.206 356.755C713.404 356.4 712.768 355.867 712.299 355.157C711.838 354.44 711.607 353.541 711.607 352.462C711.607 351.553 711.767 350.786 712.086 350.161C712.406 349.536 712.846 349.028 713.407 348.637C713.968 348.246 714.615 347.952 715.346 347.753C716.078 347.547 716.859 347.408 717.69 347.337C718.62 347.252 719.37 347.163 719.938 347.071C720.506 346.972 720.918 346.833 721.174 346.656C721.436 346.471 721.568 346.212 721.568 345.878V345.825C721.568 345.278 721.38 344.855 721.003 344.557C720.627 344.259 720.119 344.109 719.48 344.109C718.791 344.109 718.237 344.259 717.818 344.557C717.399 344.855 717.132 345.267 717.019 345.793L712.214 345.622C712.356 344.628 712.722 343.74 713.311 342.959C713.908 342.17 714.725 341.553 715.762 341.105C716.806 340.651 718.059 340.423 719.522 340.423C720.566 340.423 721.529 340.548 722.409 340.796C723.29 341.038 724.057 341.393 724.711 341.862C725.364 342.323 725.868 342.891 726.223 343.566C726.586 344.241 726.767 345.011 726.767 345.878V357H721.866V354.72H721.738C721.447 355.274 721.074 355.743 720.62 356.126C720.172 356.51 719.643 356.798 719.032 356.989C718.429 357.181 717.747 357.277 716.987 357.277ZM718.596 353.868C719.157 353.868 719.661 353.754 720.108 353.527C720.563 353.3 720.925 352.987 721.195 352.589C721.465 352.185 721.6 351.716 721.6 351.183V349.628C721.451 349.706 721.27 349.777 721.056 349.841C720.85 349.905 720.623 349.965 720.375 350.022C720.126 350.079 719.87 350.129 719.608 350.171C719.345 350.214 719.093 350.253 718.851 350.288C718.361 350.366 717.942 350.487 717.594 350.651C717.253 350.814 716.99 351.027 716.806 351.29C716.628 351.545 716.539 351.851 716.539 352.206C716.539 352.746 716.731 353.158 717.115 353.442C717.505 353.726 717.999 353.868 718.596 353.868ZM739.189 340.636V344.472H728.865V340.636H739.189ZM731.028 336.716H736.238V351.854C736.238 352.174 736.287 352.433 736.387 352.632C736.493 352.824 736.646 352.962 736.845 353.048C737.044 353.126 737.282 353.165 737.559 353.165C737.757 353.165 737.967 353.147 738.187 353.112C738.414 353.069 738.585 353.033 738.699 353.005L739.487 356.766C739.238 356.837 738.887 356.925 738.432 357.032C737.985 357.138 737.449 357.206 736.824 357.234C735.602 357.291 734.554 357.149 733.681 356.808C732.814 356.46 732.15 355.92 731.689 355.189C731.234 354.457 731.014 353.538 731.028 352.43V336.716ZM741.847 357V340.636H747.056V357H741.847ZM744.457 338.729C743.725 338.729 743.097 338.488 742.571 338.005C742.045 337.515 741.783 336.925 741.783 336.237C741.783 335.555 742.045 334.972 742.571 334.489C743.097 333.999 743.725 333.754 744.457 333.754C745.195 333.754 745.824 333.999 746.342 334.489C746.868 334.972 747.131 335.555 747.131 336.237C747.131 336.925 746.868 337.515 746.342 338.005C745.824 338.488 745.195 338.729 744.457 338.729ZM758.01 357.309C756.292 357.309 754.814 356.957 753.579 356.254C752.35 355.544 751.402 354.557 750.734 353.293C750.074 352.021 749.743 350.548 749.743 348.871C749.743 347.188 750.074 345.714 750.734 344.45C751.402 343.179 752.35 342.192 753.579 341.489C754.814 340.778 756.292 340.423 758.01 340.423C759.729 340.423 761.203 340.778 762.432 341.489C763.667 342.192 764.616 343.179 765.276 344.45C765.944 345.714 766.278 347.188 766.278 348.871C766.278 350.548 765.944 352.021 765.276 353.293C764.616 354.557 763.667 355.544 762.432 356.254C761.203 356.957 759.729 357.309 758.01 357.309ZM758.042 353.378C758.667 353.378 759.197 353.186 759.63 352.803C760.063 352.419 760.393 351.886 760.621 351.205C760.855 350.523 760.972 349.734 760.972 348.839C760.972 347.93 760.855 347.135 760.621 346.453C760.393 345.771 760.063 345.239 759.63 344.855C759.197 344.472 758.667 344.28 758.042 344.28C757.396 344.28 756.849 344.472 756.402 344.855C755.961 345.239 755.624 345.771 755.39 346.453C755.162 347.135 755.049 347.93 755.049 348.839C755.049 349.734 755.162 350.523 755.39 351.205C755.624 351.886 755.961 352.419 756.402 352.803C756.849 353.186 757.396 353.378 758.042 353.378ZM774.156 347.668V357H768.946V340.636H773.9V343.641H774.081C774.443 342.639 775.061 341.854 775.935 341.286C776.808 340.711 777.849 340.423 779.056 340.423C780.207 340.423 781.205 340.683 782.05 341.201C782.902 341.712 783.563 342.43 784.031 343.353C784.507 344.269 784.742 345.342 784.735 346.57V357H779.525V347.593C779.532 346.684 779.301 345.974 778.833 345.462C778.371 344.951 777.728 344.695 776.904 344.695C776.357 344.695 775.874 344.816 775.455 345.058C775.044 345.292 774.724 345.629 774.497 346.07C774.276 346.51 774.163 347.043 774.156 347.668ZM794.405 357V340.636H799.466V343.619H799.636C799.934 342.54 800.421 341.737 801.096 341.212C801.77 340.679 802.555 340.413 803.45 340.413C803.691 340.413 803.94 340.43 804.196 340.466C804.451 340.494 804.689 340.54 804.909 340.604V345.132C804.661 345.047 804.334 344.979 803.929 344.93C803.532 344.88 803.176 344.855 802.864 344.855C802.246 344.855 801.689 344.994 801.191 345.271C800.701 345.54 800.314 345.92 800.03 346.411C799.753 346.893 799.615 347.462 799.615 348.115V357H794.405ZM813.832 357.309C812.12 357.309 810.643 356.972 809.4 356.297C808.164 355.615 807.212 354.646 806.545 353.388C805.884 352.124 805.554 350.622 805.554 348.882C805.554 347.192 805.888 345.714 806.555 344.45C807.223 343.179 808.164 342.192 809.379 341.489C810.593 340.778 812.024 340.423 813.672 340.423C814.837 340.423 815.902 340.604 816.868 340.967C817.834 341.329 818.668 341.865 819.371 342.575C820.075 343.286 820.621 344.163 821.012 345.207C821.403 346.244 821.598 347.433 821.598 348.776V350.075H807.376V347.05H816.751C816.744 346.496 816.612 346.002 816.357 345.569C816.101 345.136 815.749 344.798 815.302 344.557C814.862 344.308 814.354 344.184 813.778 344.184C813.196 344.184 812.674 344.315 812.212 344.578C811.751 344.834 811.385 345.185 811.115 345.633C810.845 346.073 810.703 346.574 810.689 347.135V350.214C810.689 350.881 810.82 351.467 811.083 351.972C811.346 352.469 811.719 352.856 812.202 353.133C812.685 353.41 813.26 353.548 813.928 353.548C814.389 353.548 814.808 353.484 815.185 353.357C815.561 353.229 815.884 353.04 816.154 352.792C816.424 352.543 816.626 352.238 816.761 351.876L821.545 352.014C821.346 353.087 820.909 354.021 820.234 354.816C819.567 355.604 818.69 356.219 817.603 356.659C816.516 357.092 815.259 357.309 813.832 357.309ZM834.944 363.136V354.347H834.838C834.617 354.852 834.305 355.324 833.9 355.764C833.495 356.205 832.987 356.56 832.377 356.83C831.773 357.099 831.059 357.234 830.235 357.234C829.028 357.234 827.931 356.922 826.943 356.297C825.956 355.672 825.168 354.734 824.578 353.484C823.989 352.234 823.694 350.683 823.694 348.829C823.694 346.904 823.999 345.32 824.61 344.077C825.221 342.835 826.02 341.915 827.007 341.318C828.002 340.722 829.07 340.423 830.214 340.423C831.073 340.423 831.808 340.572 832.419 340.871C833.03 341.162 833.534 341.538 833.932 342C834.33 342.462 834.632 342.941 834.838 343.438H834.997V340.636H840.154V363.136H834.944ZM832.046 353.175C832.678 353.175 833.218 352.998 833.666 352.643C834.113 352.281 834.458 351.773 834.699 351.119C834.941 350.466 835.061 349.699 835.061 348.818C835.061 347.923 834.941 347.153 834.699 346.506C834.465 345.86 834.12 345.363 833.666 345.015C833.218 344.667 832.678 344.493 832.046 344.493C831.4 344.493 830.853 344.67 830.406 345.026C829.958 345.381 829.617 345.881 829.383 346.528C829.156 347.174 829.042 347.937 829.042 348.818C829.042 349.699 829.159 350.466 829.394 351.119C829.628 351.773 829.965 352.281 830.406 352.643C830.853 352.998 831.4 353.175 832.046 353.175ZM854.006 349.937V340.636H859.205V357H854.24V353.953H854.07C853.707 354.955 853.089 355.75 852.216 356.339C851.349 356.922 850.302 357.213 849.073 357.213C847.958 357.213 846.978 356.957 846.133 356.446C845.288 355.935 844.631 355.221 844.162 354.305C843.693 353.381 843.455 352.302 843.448 351.066V340.636H848.658V350.043C848.665 350.931 848.899 351.631 849.361 352.142C849.822 352.653 850.451 352.909 851.246 352.909C851.765 352.909 852.23 352.795 852.642 352.568C853.061 352.334 853.391 351.996 853.633 351.556C853.881 351.109 854.006 350.569 854.006 349.937ZM862.52 357V340.636H867.73V357H862.52ZM865.131 338.729C864.399 338.729 863.77 338.488 863.245 338.005C862.719 337.515 862.456 336.925 862.456 336.237C862.456 335.555 862.719 334.972 863.245 334.489C863.77 333.999 864.399 333.754 865.131 333.754C865.869 333.754 866.498 333.999 867.016 334.489C867.542 334.972 867.805 335.555 867.805 336.237C867.805 336.925 867.542 337.515 867.016 338.005C866.498 338.488 865.869 338.729 865.131 338.729ZM871.046 357V340.636H876.106V343.619H876.277C876.575 342.54 877.061 341.737 877.736 341.212C878.411 340.679 879.196 340.413 880.091 340.413C880.332 340.413 880.581 340.43 880.836 340.466C881.092 340.494 881.33 340.54 881.55 340.604V345.132C881.301 345.047 880.975 344.979 880.57 344.93C880.172 344.88 879.817 344.855 879.505 344.855C878.887 344.855 878.329 344.994 877.832 345.271C877.342 345.54 876.955 345.92 876.671 346.411C876.394 346.893 876.255 347.462 876.255 348.115V357H871.046ZM890.472 357.309C888.761 357.309 887.283 356.972 886.04 356.297C884.805 355.615 883.853 354.646 883.185 353.388C882.525 352.124 882.195 350.622 882.195 348.882C882.195 347.192 882.528 345.714 883.196 344.45C883.864 343.179 884.805 342.192 886.019 341.489C887.234 340.778 888.665 340.423 890.312 340.423C891.477 340.423 892.543 340.604 893.509 340.967C894.474 341.329 895.309 341.865 896.012 342.575C896.715 343.286 897.262 344.163 897.653 345.207C898.043 346.244 898.239 347.433 898.239 348.776V350.075H884.016V347.05H893.391C893.384 346.496 893.253 346.002 892.997 345.569C892.741 345.136 892.39 344.798 891.942 344.557C891.502 344.308 890.994 344.184 890.419 344.184C889.837 344.184 889.315 344.315 888.853 344.578C888.391 344.834 888.026 345.185 887.756 345.633C887.486 346.073 887.344 346.574 887.33 347.135V350.214C887.33 350.881 887.461 351.467 887.724 351.972C887.987 352.469 888.359 352.856 888.842 353.133C889.325 353.41 889.901 353.548 890.568 353.548C891.03 353.548 891.449 353.484 891.825 353.357C892.202 353.229 892.525 353.04 892.795 352.792C893.065 352.543 893.267 352.238 893.402 351.876L898.185 352.014C897.987 353.087 897.55 354.021 896.875 354.816C896.207 355.604 895.33 356.219 894.244 356.659C893.157 357.092 891.9 357.309 890.472 357.309ZM906.876 357.234C905.669 357.234 904.571 356.922 903.584 356.297C902.597 355.672 901.808 354.734 901.219 353.484C900.629 352.234 900.335 350.683 900.335 348.829C900.335 346.904 900.64 345.32 901.251 344.077C901.862 342.835 902.661 341.915 903.648 341.318C904.642 340.722 905.711 340.423 906.855 340.423C907.714 340.423 908.449 340.572 909.06 340.871C909.671 341.162 910.175 341.538 910.573 342C910.97 342.462 911.272 342.941 911.478 343.438H911.585V335.182H916.794V357H911.638V354.347H911.478C911.258 354.852 910.945 355.324 910.541 355.764C910.136 356.205 909.628 356.56 909.017 356.83C908.414 357.099 907.7 357.234 906.876 357.234ZM908.687 353.175C909.319 353.175 909.859 352.998 910.306 352.643C910.754 352.281 911.098 351.773 911.34 351.119C911.581 350.466 911.702 349.699 911.702 348.818C911.702 347.923 911.581 347.153 911.34 346.506C911.105 345.86 910.761 345.363 910.306 345.015C909.859 344.667 909.319 344.493 908.687 344.493C908.041 344.493 907.494 344.67 907.046 345.026C906.599 345.381 906.258 345.881 906.024 346.528C905.796 347.174 905.683 347.937 905.683 348.818C905.683 349.699 905.8 350.466 906.034 351.119C906.269 351.773 906.606 352.281 907.046 352.643C907.494 352.998 908.041 353.175 908.687 353.175Z" fill="white"/>
</svg>
