<svg width="1500" height="998" viewBox="0 0 1500 998" fill="none" xmlns="http://www.w3.org/2000/svg">
<path d="M1161 59H339V940H1161V59Z" fill="#141414"/>
<path d="M846 623.997C846.07 616.117 841.53 606.967 839.88 599.117C830.62 600.047 821.63 597.557 812.54 596.957C806.29 596.547 799.77 597.467 793.52 596.987C788.92 596.627 785.99 596.047 783.19 592.357L759.66 540.817C756.67 530.207 770.05 521.737 778.72 528.297C781.9 530.707 795.01 562.517 798 569.007L800.16 572.507C810.8 574.117 821.54 574.777 832.39 574.507C841.35 582.417 851.87 586.007 864.01 583.887C877.59 581.507 883.59 573.937 891 564.007C907.83 559.137 922.86 544.627 938.24 535.957C938.87 535.607 939.01 534.407 939.77 534.067C946.19 531.267 950.27 533.167 955.19 537.017C964.84 544.587 980.72 561.087 989.64 570.347C991.35 572.117 997.6 578.637 998.41 580.077C1004.65 591.177 993.48 602.557 982.29 596.197C969.61 584.317 957.5 571.087 944.52 560.007L916.24 578.237C915.33 581.027 922.53 602.127 923.73 606.767C929.5 629.157 935.82 651.767 939.89 674.377C937.44 687.307 929.35 691.437 916.61 689.887C913.24 689.477 905.68 687.097 902 685.997L898.79 686.417L864.28 675.277C862.16 674.787 860.4 673.687 859 671.997C852.98 670.147 833.04 662.247 828.57 663.037C827.13 663.297 821.69 665.377 819.77 666.067C793.67 675.457 768.94 687.807 741.77 696.067C740.93 696.327 741.32 697.837 739.56 698.057C733.62 698.817 728.17 698.197 723.37 694.597C715.3 688.547 714.75 676.237 720.42 668.377C720.85 667.777 726.38 663.207 726.76 663.047C730.07 661.587 735.72 660.567 739.54 659.037C766.36 648.287 793.23 636.307 820.36 626.827C824.5 625.377 832.41 625.797 836.99 625.987C845.11 629.277 848.11 628.617 845.99 623.987L846 623.997Z" fill="#363636"/>
<path d="M582 572.999C581.64 571.729 584.55 563.579 585.31 561.809C590.56 549.719 602.47 538.819 616.38 539.099C625.39 539.279 632.92 545.549 635.53 553.959C640.46 569.839 628.1 606.229 627.01 625.499C626.37 636.709 630.28 659.319 626.4 667.889C625.38 670.129 623.25 672.049 622 673.989C616.98 680.419 610.82 685.149 604.21 690.099L592.63 699.769L597.52 702.379C607.77 705.179 617.26 709.049 625.99 713.989C633.92 716.849 646.33 719.369 650.75 726.689C655.72 734.929 652.17 748.539 642.99 751.989C642.58 754.229 640.36 755.009 636.32 754.319C622.21 751.939 608.36 747.749 594.78 741.759L593.99 739.989C579.49 735.109 560.45 729.799 546.97 723.519C534.96 717.919 532.34 706.729 540.06 695.809L577.28 664.699L575.99 641.999C573.98 638.559 573.46 621.519 575.25 618.229L617.55 580.499C622.15 575.849 623.99 568.879 620.62 563.019C612.2 548.379 596.36 561.209 589.31 570.289C586.61 573.349 584.17 574.259 581.99 572.999H582Z" fill="#363636"/>
<path d="M896 701.002C892.44 714.372 885.97 727.542 885.04 741.452L917.19 801.312C924.94 826.942 896.98 839.642 882.62 814.882C874.48 800.842 865.49 783.512 858.1 769.192C853.76 760.772 849.43 752.112 846.19 743.242C848.76 725.982 856.63 709.062 860.5 692.022C861.16 689.122 861.95 685.972 861.99 683.012C860.51 681.482 859.49 674.482 861.53 674.422C863.57 674.362 898.11 685.092 899.36 686.632C899.58 686.912 899.9 687.112 900.24 687.292C899 691.912 897.58 696.492 895.98 701.012L896 701.002Z" fill="#363636"/>
<path d="M832 571.998C826.44 565.628 823.93 552.798 825.09 544.588C825.59 541.018 828.83 537.048 828.05 533.708C827.71 532.258 822.45 531.378 821.09 529.428C816.06 522.258 829.14 508.478 835.07 504.568C858.27 489.278 903.18 503.958 900.91 535.368C900.35 543.078 894.68 540.508 889.01 540.008C889.86 544.738 890.51 549.678 890.01 554.508C889.89 555.678 888.29 563.298 888 563.998C888.77 567.338 886.34 570.288 884.08 572.938C874.94 583.648 857.79 587.258 844.77 582.308C840.32 580.618 832.71 576.478 832.01 571.998H832Z" fill="#363636"/>
<path d="M582 577.997C583.42 574.977 585.86 572.407 589.33 570.287C596.62 561.327 612.13 548.027 620.79 563.287C623.23 567.587 622.7 572.977 620.17 577.157C605.94 591.747 589.84 606.047 573 618.007C563.17 626.827 553.13 635.937 543.41 644.367C535.79 650.977 525.51 666.497 514.95 654.567C507.48 646.137 514.63 639.767 520.49 633.967C539.29 615.347 562.05 595.777 582.01 578.017L582 577.997Z" fill="#363636"/>
<path d="M644 756.003C650.77 769.163 661.72 782.212 668.39 795.112C672.25 802.592 672.88 807.543 668.77 815.273C665.78 820.893 656.89 824.793 650.74 823.773C644.59 822.753 641.08 819.613 637.56 814.943C622.32 794.763 610.46 767.852 595.97 746.742C593.58 745.602 594.12 745.223 594 743.003L594.62 741.812C608.14 747.642 621.93 751.813 635.98 754.323C639.53 753.653 642.2 754.213 644 756.013V756.003Z" fill="#363636"/>
<path d="M627 500.001L629.01 498.981C635.49 502.381 637.91 501.441 642.95 496.801C649.65 496.541 651 500.391 647.01 508.351C650.38 518.271 657.62 518.951 665.46 513.291C670.49 513.451 682.59 522.871 684.01 528.001C683.83 532.761 677.47 539.601 673.89 542.351C649.28 561.261 615.26 538.081 622.12 508.611C622.47 507.091 624.62 499.391 627.01 500.001H627Z" fill="#363636"/>
<path d="M682 691.997C679.3 686.817 690.98 680.677 690.04 677.557C689.97 677.317 686.58 674.997 685.89 674.587C681.87 672.177 675.33 670.367 671.12 667.397C663.19 661.807 677.59 662.377 679.33 661.987C680.08 661.817 679.94 660.207 680.7 660.027C682.82 659.517 685.73 660.307 688.01 659.997C688.96 655.627 674.83 642.327 678.02 639.007L693.31 642.037C693.79 643.847 697.03 644.917 698.01 644.007C700.09 642.067 695.89 625.537 696.04 622.607C696.04 622.427 698.34 619.977 698.52 619.977C699.28 619.977 708.51 629.097 709.68 630.337C711.55 632.317 711.74 636.027 715.46 636.047C716.48 636.047 721.26 622.447 722.71 621.987C727.3 620.537 725.4 623.537 726.06 625.237C726.41 626.147 727.78 625.947 727.99 626.717C728.5 628.647 727.62 634.157 730.65 634.907C734.19 635.777 746.49 615.657 747.12 626.497C747.18 627.517 746.25 636.287 746.02 637.327C745.85 638.087 744.22 637.937 744.05 638.687C743.34 641.827 745.84 648.697 740.03 646.497L741.03 633.007C740.03 631.657 732.39 641.477 731.79 641.707C730.7 642.117 726.29 642.267 726.04 642.017C725.63 641.607 726.59 631.357 722.05 632.007C723.15 635.527 720.84 635.507 720.13 636.837C719.15 638.687 719.59 638.477 718.04 640.727C716.82 642.507 718.01 644.847 714.62 644.017C713.72 643.797 704.04 631.857 702.55 629.997C700.28 633.547 704.75 648.117 701.93 649.877C699.11 651.637 697.88 648.247 697.31 648.077C694.35 647.147 689.29 646.587 686.06 646.017C685.11 646.847 691.69 654.077 692.33 655.277C699.1 668.047 689.44 662.307 681.31 665.757C676.43 667.827 682.84 667.837 683.77 668.317C686.11 669.517 690.34 672.537 692.88 673.937C694.08 674.597 698.07 673.117 696.39 678.757C696.12 679.667 688.64 685.727 690.07 686.997L702.07 686.007C704.12 688.517 698.65 692.007 697.56 692.007H682.06L682 691.997Z" fill="#FFD81F"/>
<path d="M645 485.001C652.35 482.041 659.26 483.101 666.54 485.961C680.97 491.641 689.97 508.901 686 524.001L682.72 524.021C677.65 519.801 672.34 516.161 666.77 513.091C665.06 499.201 663.62 497.711 649.52 499.531C644.33 497.871 641.74 488.781 645.01 485.001H645Z" fill="#363636"/>
<path d="M762.33 719.719C775.12 756.329 807.16 794.239 841.7 812.299L847.99 817.999C844.05 819.489 842.62 816.789 841.65 816.389C804.19 800.649 768.14 750.799 757.93 712.749C757.71 711.919 756.2 712.029 756.03 711.309C755.55 709.339 756.26 700.289 758.52 703.989L762.33 719.729V719.719Z" fill="#FFD81F"/>
<path d="M627 500C626.77 499.79 624.09 494.86 624.02 494.48C623.71 492.9 623.7 488.25 624.02 486.7C624.11 486.26 629.83 480.45 630.25 480.28C631.65 479.7 637.69 479.68 639.29 480.02C639.66 480.1 644.82 484.66 644.99 485C646.51 488.01 644.63 496.65 649.9 497.58C653.91 498.29 657.78 495.56 663.26 498.02C668.74 500.48 667.52 511.05 668.12 511.87C668.49 512.38 670.48 512.32 671.26 512.99C676.14 517.2 681.11 520.21 685.99 524C687.87 525.47 693.49 529.03 692.93 531.4C691.87 535.83 689.51 531.14 689.29 530.98C688.14 530.18 685.15 528.86 684 528C678.36 523.82 673.31 518.89 667.29 515.15C664.03 514.31 661.59 521.24 652.37 518.16C649.54 517.22 645.23 511.39 645.01 508.45C644.79 505.51 648.27 500.37 647.99 500.02C647.87 499.87 644.67 498.23 644.47 498.23C643.92 498.23 638.45 502.98 637.53 503.08C634.99 503.37 628.75 501.64 626.99 500H627Z" fill="#FFD81F"/>
<path d="M582 572.997C590.55 569.417 597.94 555.747 607.44 554.927C623.68 553.527 630.01 574.247 616.62 583.587L576.65 619.247C573.58 623.767 574.78 636.537 576.01 641.997L574.02 650.987C573.47 640.057 575.18 628.727 573.01 617.997C582.82 609.197 592.81 600.167 602.65 591.087C607.27 586.827 613.94 582.637 617.83 577.357C623.75 569.307 620.8 560.687 611.24 558.247C602.71 556.067 595.73 567.147 590.21 571.977C587.91 573.987 583.93 576.287 582.01 577.997C580.75 574.997 584.02 575.017 584.02 574.497C584.03 573.667 582.26 573.867 582.01 572.997H582Z" fill="#141414"/>
<path d="M620 689.998C620.88 696.608 621.45 703.348 622 709.998C612.75 707.888 603.57 704.928 594.46 701.128C594.38 700.598 594.3 700.068 594.24 699.538C594.02 697.668 612.86 682.958 616.02 680.988C616.45 680.718 617.35 681.448 618 681.988C619.33 684.078 619.99 686.748 620 689.988V689.998Z" fill="#363636"/>
<path d="M888 564C888.18 567.9 888.11 564.84 891 564C889.65 567.14 887.14 571.68 885 574.22C875.46 585.56 858.51 589.33 844.46 584.04C839.82 582.3 832.79 575.77 830.29 575.21C821.54 573.24 809.36 577.06 800.24 573.33C798.21 572.78 798.66 570.43 798 569L800.7 572.02C810.24 572.37 818.9 574.34 828.54 574C830.46 573.93 832.55 575.02 832 572C846.75 588.91 879.37 584.89 888 564Z" fill="#141414"/>
<path d="M722.71 462.279C725.39 465.549 723.67 471.729 721.02 474.519C718.92 476.739 715.49 477.079 713.47 478.969C711.28 481.009 710.21 488.069 705.97 483.489C704.44 481.839 705.49 478.189 706.37 476.319C707.6 473.719 713.99 472.009 715.09 470.589C717.07 468.009 716.43 463.409 712.64 464.169C710.41 464.619 710.11 471.249 704.95 466.479C703.53 465.159 705.68 458.409 706.13 458.119C709.07 456.209 720.28 459.319 722.71 462.269V462.279Z" fill="#FFD81F"/>
<path d="M622 674C619.88 677.31 617.77 677.89 618 682C618.62 681.9 619.35 682.05 619.99 682V690C619.73 687.97 618.13 684.44 618 682C616.42 682.26 602.87 693.12 600.64 695.19C599.94 695.84 595.18 700.26 596.01 701C602.39 701.69 608.51 704.78 614.56 706.95C617.66 708.06 620.08 706.91 622.01 710.01C622.16 710.26 621.62 711.51 622.15 711.86C623.32 712.65 626.8 710.77 626.01 714.01C615.07 710.06 603.41 705.91 593.24 702.04C591.24 701.28 588.65 703.48 590.48 698.95L622.01 674.01L622 674Z" fill="#141414"/>
<path d="M846 624L852.77 628.92C869.86 632.74 886.39 639.33 903.24 644.26L904.99 648L837 626C842.9 626.25 841.48 627.63 842.67 627.98C846.84 629.2 845.97 627.08 846 624Z" fill="#141414"/>
<path d="M902 686L896 701C896.59 698.78 898.76 690.77 898.86 689.3C898.92 688.42 898.85 687.95 898.01 687.51L861.48 676.01C860.23 678.05 862.03 680.74 862 683C858.35 681.21 860.91 675.48 859 672C873.34 676.41 887.96 681.8 902 686Z" fill="#141414"/>
<path d="M643 752C641.51 753.8 642.78 753.63 644 756L627.34 755.16L594 743C593.95 742.01 594.04 741 594 740C604.4 743.5 627.96 753.43 637.54 753.05C639.29 752.98 641.38 752.61 643 752Z" fill="#141414"/>
<path d="M697.62 469.649C697.54 469.909 696.26 469.959 696.05 470.719C694.99 474.559 696.56 481.389 690 479.999C688.67 475.109 691.12 471.049 691.77 467.269C692.32 464.059 691.74 453.959 696.5 453.969C702.74 453.979 698.63 466.119 697.62 469.649Z" fill="#FFD81F"/>
<path d="M689.51 482.352C696.49 482.412 694.01 494.622 687.59 489.912C684.39 487.572 685.92 482.322 689.51 482.352Z" fill="#FFD81F"/>
<path d="M707.79 486.249C709.92 487.179 710.52 491.819 710 493.999C699.17 496.889 701.22 483.369 707.79 486.249Z" fill="#FFD81F"/>
<path d="M834.5 524.001C833.94 524.081 827.15 527.801 830.01 524.021C832.87 520.241 855.28 520.621 860.54 520.961C867.49 521.411 881.64 524.861 887.64 528.371C890.64 530.121 893.53 535.901 890.49 539.011C889.04 536.651 886.57 532.511 884.21 531.061C881.28 529.271 864.87 524.001 861.49 524.001C853.58 524.001 841.8 522.971 834.49 524.001H834.5Z" fill="#FFD81F"/>
<path d="M860.63 558.397C862.4 559.117 866 561.777 867.72 562.997C869.8 564.477 872.86 563.077 869.86 567.347C866.86 571.617 867.18 567.657 866.7 567.347C861.41 563.867 855.06 560.447 848.54 559.967C844.34 559.657 838 562.357 837.06 557.617C837.95 551.607 856.62 556.767 860.62 558.397H860.63Z" fill="#FFD81F"/>
<path d="M854 507.004C854.97 506.944 855.74 505.604 858.02 506.384C860.45 507.214 860.61 509.404 861.22 509.764C862.03 510.234 869.79 509.414 867 511.994C866.8 512.184 863.51 512.274 862.38 512.844C859.99 514.064 859.96 516.144 855.56 515.914C849.68 515.604 853.36 511.514 851 510.004C849.66 508.614 850.66 507.614 854 507.004Z" fill="#FFD81F"/>
<path d="M854 506.996L851 509.996C849.88 509.276 847.41 509.766 848 507.006C849.98 506.896 852.02 507.136 854 507.006V506.996Z" fill="#FFD81F"/>
<path d="M650.65 522.357C655.55 525.697 658.33 530.977 656.99 536.997C652.53 537.887 649.81 532.607 647.28 530.997C642.77 528.107 637.07 527.407 632.65 525.377C631.06 524.647 629.12 525.207 627.99 523.477C630.71 514.157 644.64 518.267 650.65 522.357Z" fill="#FFD81F"/>
<path d="M662.72 501.288C668.41 506.058 665.55 515.878 657.46 516.028C639.94 516.358 650.68 491.218 662.72 501.288Z" fill="#363636"/>
<path d="M638.74 483.294C639.02 483.414 642.38 487.374 642.57 487.934C643.29 490.064 643.29 492.964 642.57 495.094C639.38 504.454 623.58 499.944 627.21 487.724C628.45 483.564 634.98 481.744 638.74 483.304V483.294Z" fill="#363636"/>
<path d="M604.712 285.893V265.332L649.403 194.913H667.673V222.825H657.073L630.919 264.267V265.119H695.638V285.893H604.712ZM657.393 304.004V279.608L657.925 270.606V194.913H682.588V304.004H657.393ZM754.578 306.667C745.061 306.667 736.858 304.412 729.969 299.902C723.08 295.357 717.771 288.841 714.042 280.353C710.314 271.831 708.467 261.586 708.502 249.618C708.538 237.651 710.402 227.495 714.096 219.15C717.824 210.769 723.115 204.395 729.969 200.027C736.858 195.623 745.061 193.422 754.578 193.422C764.096 193.422 772.299 195.623 779.188 200.027C786.113 204.395 791.439 210.769 795.168 219.15C798.897 227.53 800.743 237.687 800.708 249.618C800.708 261.621 798.843 271.884 795.115 280.407C791.386 288.929 786.077 295.446 779.188 299.956C772.334 304.43 764.131 306.667 754.578 306.667ZM754.578 285.094C760.26 285.094 764.859 282.2 768.375 276.412C771.89 270.588 773.63 261.657 773.595 249.618C773.595 241.735 772.796 235.236 771.198 230.123C769.6 224.973 767.38 221.138 764.539 218.617C761.699 216.096 758.378 214.835 754.578 214.835C748.932 214.835 744.369 217.694 740.889 223.411C737.409 229.093 735.651 237.829 735.615 249.618C735.58 257.608 736.343 264.231 737.906 269.487C739.504 274.743 741.741 278.667 744.618 281.259C747.494 283.816 750.814 285.094 754.578 285.094ZM866.253 194.913V304.004H839.939V219.522H839.3L814.903 234.437V211.639L841.803 194.913H866.253Z" fill="white"/>
<path d="M586.371 357.004H580.703L588.065 335.186H595.085L602.447 357.004H596.779L591.655 340.683H591.484L586.371 357.004ZM585.614 348.417H597.461V352.423H585.614V348.417ZM615.353 349.941V340.64H620.552V357.004H615.588V353.957H615.417C615.055 354.959 614.437 355.754 613.564 356.343C612.697 356.926 611.65 357.217 610.421 357.217C609.306 357.217 608.326 356.961 607.48 356.45C606.635 355.939 605.978 355.225 605.51 354.309C605.041 353.385 604.803 352.306 604.796 351.07V340.64H610.005V350.047C610.012 350.935 610.247 351.635 610.708 352.146C611.17 352.657 611.799 352.913 612.594 352.913C613.113 352.913 613.578 352.799 613.99 352.572C614.409 352.338 614.739 352 614.98 351.56C615.229 351.113 615.353 350.573 615.353 349.941ZM633.105 340.64V344.476H622.781V340.64H633.105ZM624.944 336.72H630.154V351.858C630.154 352.178 630.203 352.437 630.303 352.636C630.409 352.828 630.562 352.966 630.761 353.052C630.96 353.13 631.198 353.169 631.475 353.169C631.673 353.169 631.883 353.151 632.103 353.116C632.33 353.073 632.501 353.037 632.615 353.009L633.403 356.77C633.154 356.841 632.803 356.929 632.348 357.036C631.901 357.142 631.365 357.21 630.74 357.238C629.518 357.295 628.47 357.153 627.597 356.812C626.73 356.464 626.066 355.924 625.605 355.193C625.15 354.461 624.93 353.542 624.944 352.434V336.72ZM641.324 347.672V357.004H636.114V335.186H641.153V343.645H641.334C641.704 342.636 642.307 341.848 643.145 341.28C643.991 340.711 645.024 340.427 646.246 340.427C647.396 340.427 648.398 340.683 649.25 341.194C650.102 341.699 650.763 342.412 651.231 343.336C651.707 344.259 651.942 345.339 651.934 346.574V357.004H646.725V347.597C646.732 346.688 646.505 345.978 646.043 345.466C645.581 344.955 644.932 344.699 644.094 344.699C643.547 344.699 643.064 344.82 642.645 345.062C642.233 345.296 641.91 345.633 641.675 346.074C641.448 346.514 641.331 347.047 641.324 347.672ZM662.825 357.313C661.106 357.313 659.629 356.961 658.393 356.258C657.164 355.548 656.216 354.561 655.549 353.297C654.888 352.025 654.558 350.552 654.558 348.875C654.558 347.192 654.888 345.718 655.549 344.454C656.216 343.183 657.164 342.196 658.393 341.493C659.629 340.782 661.106 340.427 662.825 340.427C664.544 340.427 666.017 340.782 667.246 341.493C668.482 342.196 669.43 343.183 670.091 344.454C670.758 345.718 671.092 347.192 671.092 348.875C671.092 350.552 670.758 352.025 670.091 353.297C669.43 354.561 668.482 355.548 667.246 356.258C666.017 356.961 664.544 357.313 662.825 357.313ZM662.857 353.382C663.482 353.382 664.011 353.19 664.444 352.807C664.877 352.423 665.208 351.89 665.435 351.209C665.669 350.527 665.787 349.738 665.787 348.843C665.787 347.934 665.669 347.139 665.435 346.457C665.208 345.775 664.877 345.243 664.444 344.859C664.011 344.476 663.482 344.284 662.857 344.284C662.211 344.284 661.664 344.476 661.216 344.859C660.776 345.243 660.439 345.775 660.204 346.457C659.977 347.139 659.863 347.934 659.863 348.843C659.863 349.738 659.977 350.527 660.204 351.209C660.439 351.89 660.776 352.423 661.216 352.807C661.664 353.19 662.211 353.382 662.857 353.382ZM673.761 357.004V340.64H678.821V343.623H678.991C679.29 342.544 679.776 341.741 680.451 341.216C681.126 340.683 681.911 340.417 682.805 340.417C683.047 340.417 683.295 340.434 683.551 340.47C683.807 340.498 684.045 340.544 684.265 340.608V345.136C684.016 345.051 683.69 344.983 683.285 344.934C682.887 344.884 682.532 344.859 682.219 344.859C681.602 344.859 681.044 344.998 680.547 345.275C680.057 345.544 679.67 345.924 679.386 346.415C679.109 346.897 678.97 347.466 678.97 348.119V357.004H673.761ZM686.388 357.004V340.64H691.597V357.004H686.388ZM688.998 338.733C688.266 338.733 687.638 338.492 687.112 338.009C686.586 337.519 686.324 336.929 686.324 336.241C686.324 335.559 686.586 334.976 687.112 334.493C687.638 334.003 688.266 333.758 688.998 333.758C689.736 333.758 690.365 334.003 690.883 334.493C691.409 334.976 691.672 335.559 691.672 336.241C691.672 336.929 691.409 337.519 690.883 338.009C690.365 338.492 689.736 338.733 688.998 338.733ZM694.956 357.004V354.032L702.541 344.795V344.689H695.222V340.64H708.752V343.9L701.721 352.849V352.956H709.007V357.004H694.956ZM716.987 357.281C715.943 357.281 715.016 357.107 714.206 356.759C713.404 356.404 712.768 355.871 712.299 355.161C711.838 354.444 711.607 353.545 711.607 352.466C711.607 351.557 711.767 350.79 712.086 350.165C712.406 349.54 712.846 349.032 713.407 348.641C713.968 348.25 714.615 347.956 715.346 347.757C716.078 347.551 716.859 347.412 717.69 347.341C718.62 347.256 719.37 347.167 719.938 347.075C720.506 346.976 720.918 346.837 721.174 346.66C721.436 346.475 721.568 346.216 721.568 345.882V345.829C721.568 345.282 721.38 344.859 721.003 344.561C720.627 344.263 720.119 344.113 719.48 344.113C718.791 344.113 718.237 344.263 717.818 344.561C717.399 344.859 717.132 345.271 717.019 345.797L712.214 345.626C712.356 344.632 712.722 343.744 713.311 342.963C713.908 342.174 714.725 341.557 715.762 341.109C716.806 340.655 718.059 340.427 719.522 340.427C720.566 340.427 721.529 340.552 722.409 340.8C723.29 341.042 724.057 341.397 724.711 341.866C725.364 342.327 725.868 342.895 726.223 343.57C726.586 344.245 726.767 345.015 726.767 345.882V357.004H721.866V354.724H721.738C721.447 355.278 721.074 355.747 720.62 356.13C720.172 356.514 719.643 356.802 719.032 356.993C718.429 357.185 717.747 357.281 716.987 357.281ZM718.596 353.872C719.157 353.872 719.661 353.758 720.108 353.531C720.563 353.304 720.925 352.991 721.195 352.593C721.465 352.189 721.6 351.72 721.6 351.187V349.632C721.451 349.71 721.27 349.781 721.056 349.845C720.85 349.909 720.623 349.969 720.375 350.026C720.126 350.083 719.87 350.133 719.608 350.175C719.345 350.218 719.093 350.257 718.851 350.292C718.361 350.37 717.942 350.491 717.594 350.655C717.253 350.818 716.99 351.031 716.806 351.294C716.628 351.549 716.539 351.855 716.539 352.21C716.539 352.75 716.731 353.162 717.115 353.446C717.505 353.73 717.999 353.872 718.596 353.872ZM739.189 340.64V344.476H728.865V340.64H739.189ZM731.028 336.72H736.238V351.858C736.238 352.178 736.287 352.437 736.387 352.636C736.493 352.828 736.646 352.966 736.845 353.052C737.044 353.13 737.282 353.169 737.559 353.169C737.757 353.169 737.967 353.151 738.187 353.116C738.414 353.073 738.585 353.037 738.699 353.009L739.487 356.77C739.238 356.841 738.887 356.929 738.432 357.036C737.985 357.142 737.449 357.21 736.824 357.238C735.602 357.295 734.554 357.153 733.681 356.812C732.814 356.464 732.15 355.924 731.689 355.193C731.234 354.461 731.014 353.542 731.028 352.434V336.72ZM741.847 357.004V340.64H747.056V357.004H741.847ZM744.457 338.733C743.725 338.733 743.097 338.492 742.571 338.009C742.045 337.519 741.783 336.929 741.783 336.241C741.783 335.559 742.045 334.976 742.571 334.493C743.097 334.003 743.725 333.758 744.457 333.758C745.195 333.758 745.824 334.003 746.342 334.493C746.868 334.976 747.131 335.559 747.131 336.241C747.131 336.929 746.868 337.519 746.342 338.009C745.824 338.492 745.195 338.733 744.457 338.733ZM758.01 357.313C756.292 357.313 754.814 356.961 753.579 356.258C752.35 355.548 751.402 354.561 750.734 353.297C750.074 352.025 749.743 350.552 749.743 348.875C749.743 347.192 750.074 345.718 750.734 344.454C751.402 343.183 752.35 342.196 753.579 341.493C754.814 340.782 756.292 340.427 758.01 340.427C759.729 340.427 761.203 340.782 762.432 341.493C763.667 342.196 764.616 343.183 765.276 344.454C765.944 345.718 766.278 347.192 766.278 348.875C766.278 350.552 765.944 352.025 765.276 353.297C764.616 354.561 763.667 355.548 762.432 356.258C761.203 356.961 759.729 357.313 758.01 357.313ZM758.042 353.382C758.667 353.382 759.197 353.19 759.63 352.807C760.063 352.423 760.393 351.89 760.621 351.209C760.855 350.527 760.972 349.738 760.972 348.843C760.972 347.934 760.855 347.139 760.621 346.457C760.393 345.775 760.063 345.243 759.63 344.859C759.197 344.476 758.667 344.284 758.042 344.284C757.396 344.284 756.849 344.476 756.402 344.859C755.961 345.243 755.624 345.775 755.39 346.457C755.162 347.139 755.049 347.934 755.049 348.843C755.049 349.738 755.162 350.527 755.39 351.209C755.624 351.89 755.961 352.423 756.402 352.807C756.849 353.19 757.396 353.382 758.042 353.382ZM774.156 347.672V357.004H768.946V340.64H773.9V343.645H774.081C774.443 342.643 775.061 341.858 775.935 341.29C776.808 340.715 777.849 340.427 779.056 340.427C780.207 340.427 781.205 340.687 782.05 341.205C782.902 341.716 783.563 342.434 784.031 343.357C784.507 344.273 784.742 345.346 784.735 346.574V357.004H779.525V347.597C779.532 346.688 779.301 345.978 778.833 345.466C778.371 344.955 777.728 344.699 776.904 344.699C776.357 344.699 775.874 344.82 775.455 345.062C775.044 345.296 774.724 345.633 774.497 346.074C774.276 346.514 774.163 347.047 774.156 347.672ZM794.405 357.004V340.64H799.466V343.623H799.636C799.934 342.544 800.421 341.741 801.096 341.216C801.77 340.683 802.555 340.417 803.45 340.417C803.691 340.417 803.94 340.434 804.196 340.47C804.451 340.498 804.689 340.544 804.909 340.608V345.136C804.661 345.051 804.334 344.983 803.929 344.934C803.532 344.884 803.176 344.859 802.864 344.859C802.246 344.859 801.689 344.998 801.191 345.275C800.701 345.544 800.314 345.924 800.03 346.415C799.753 346.897 799.615 347.466 799.615 348.119V357.004H794.405ZM813.832 357.313C812.12 357.313 810.643 356.976 809.4 356.301C808.164 355.619 807.212 354.65 806.545 353.392C805.884 352.128 805.554 350.626 805.554 348.886C805.554 347.196 805.888 345.718 806.555 344.454C807.223 343.183 808.164 342.196 809.379 341.493C810.593 340.782 812.024 340.427 813.672 340.427C814.837 340.427 815.902 340.608 816.868 340.971C817.834 341.333 818.668 341.869 819.371 342.579C820.075 343.29 820.621 344.167 821.012 345.211C821.403 346.248 821.598 347.437 821.598 348.78V350.079H807.376V347.054H816.751C816.744 346.5 816.612 346.006 816.357 345.573C816.101 345.14 815.749 344.802 815.302 344.561C814.862 344.312 814.354 344.188 813.778 344.188C813.196 344.188 812.674 344.319 812.212 344.582C811.751 344.838 811.385 345.189 811.115 345.637C810.845 346.077 810.703 346.578 810.689 347.139V350.218C810.689 350.885 810.82 351.471 811.083 351.976C811.346 352.473 811.719 352.86 812.202 353.137C812.685 353.414 813.26 353.552 813.928 353.552C814.389 353.552 814.808 353.488 815.185 353.361C815.561 353.233 815.884 353.044 816.154 352.796C816.424 352.547 816.626 352.242 816.761 351.88L821.545 352.018C821.346 353.091 820.909 354.025 820.234 354.82C819.567 355.608 818.69 356.223 817.603 356.663C816.516 357.096 815.259 357.313 813.832 357.313ZM834.944 363.14V354.351H834.838C834.617 354.856 834.305 355.328 833.9 355.768C833.495 356.209 832.987 356.564 832.377 356.834C831.773 357.103 831.059 357.238 830.235 357.238C829.028 357.238 827.931 356.926 826.943 356.301C825.956 355.676 825.168 354.738 824.578 353.488C823.989 352.238 823.694 350.687 823.694 348.833C823.694 346.908 823.999 345.324 824.61 344.081C825.221 342.839 826.02 341.919 827.007 341.322C828.002 340.726 829.07 340.427 830.214 340.427C831.073 340.427 831.808 340.576 832.419 340.875C833.03 341.166 833.534 341.542 833.932 342.004C834.33 342.466 834.632 342.945 834.838 343.442H834.997V340.64H840.154V363.14H834.944ZM832.046 353.179C832.678 353.179 833.218 353.002 833.666 352.647C834.113 352.285 834.458 351.777 834.699 351.123C834.941 350.47 835.061 349.703 835.061 348.822C835.061 347.927 834.941 347.157 834.699 346.51C834.465 345.864 834.12 345.367 833.666 345.019C833.218 344.671 832.678 344.497 832.046 344.497C831.4 344.497 830.853 344.674 830.406 345.03C829.958 345.385 829.617 345.885 829.383 346.532C829.156 347.178 829.042 347.941 829.042 348.822C829.042 349.703 829.159 350.47 829.394 351.123C829.628 351.777 829.965 352.285 830.406 352.647C830.853 353.002 831.4 353.179 832.046 353.179ZM854.006 349.941V340.64H859.205V357.004H854.24V353.957H854.07C853.707 354.959 853.089 355.754 852.216 356.343C851.349 356.926 850.302 357.217 849.073 357.217C847.958 357.217 846.978 356.961 846.133 356.45C845.288 355.939 844.631 355.225 844.162 354.309C843.693 353.385 843.455 352.306 843.448 351.07V340.64H848.658V350.047C848.665 350.935 848.899 351.635 849.361 352.146C849.822 352.657 850.451 352.913 851.246 352.913C851.765 352.913 852.23 352.799 852.642 352.572C853.061 352.338 853.391 352 853.633 351.56C853.881 351.113 854.006 350.573 854.006 349.941ZM862.52 357.004V340.64H867.73V357.004H862.52ZM865.131 338.733C864.399 338.733 863.77 338.492 863.245 338.009C862.719 337.519 862.456 336.929 862.456 336.241C862.456 335.559 862.719 334.976 863.245 334.493C863.77 334.003 864.399 333.758 865.131 333.758C865.869 333.758 866.498 334.003 867.016 334.493C867.542 334.976 867.805 335.559 867.805 336.241C867.805 336.929 867.542 337.519 867.016 338.009C866.498 338.492 865.869 338.733 865.131 338.733ZM871.046 357.004V340.64H876.106V343.623H876.277C876.575 342.544 877.061 341.741 877.736 341.216C878.411 340.683 879.196 340.417 880.091 340.417C880.332 340.417 880.581 340.434 880.836 340.47C881.092 340.498 881.33 340.544 881.55 340.608V345.136C881.301 345.051 880.975 344.983 880.57 344.934C880.172 344.884 879.817 344.859 879.505 344.859C878.887 344.859 878.329 344.998 877.832 345.275C877.342 345.544 876.955 345.924 876.671 346.415C876.394 346.897 876.255 347.466 876.255 348.119V357.004H871.046ZM890.472 357.313C888.761 357.313 887.283 356.976 886.04 356.301C884.805 355.619 883.853 354.65 883.185 353.392C882.525 352.128 882.195 350.626 882.195 348.886C882.195 347.196 882.528 345.718 883.196 344.454C883.864 343.183 884.805 342.196 886.019 341.493C887.234 340.782 888.665 340.427 890.312 340.427C891.477 340.427 892.543 340.608 893.509 340.971C894.474 341.333 895.309 341.869 896.012 342.579C896.715 343.29 897.262 344.167 897.653 345.211C898.043 346.248 898.239 347.437 898.239 348.78V350.079H884.016V347.054H893.391C893.384 346.5 893.253 346.006 892.997 345.573C892.741 345.14 892.39 344.802 891.942 344.561C891.502 344.312 890.994 344.188 890.419 344.188C889.837 344.188 889.315 344.319 888.853 344.582C888.391 344.838 888.026 345.189 887.756 345.637C887.486 346.077 887.344 346.578 887.33 347.139V350.218C887.33 350.885 887.461 351.471 887.724 351.976C887.987 352.473 888.359 352.86 888.842 353.137C889.325 353.414 889.901 353.552 890.568 353.552C891.03 353.552 891.449 353.488 891.825 353.361C892.202 353.233 892.525 353.044 892.795 352.796C893.065 352.547 893.267 352.242 893.402 351.88L898.185 352.018C897.987 353.091 897.55 354.025 896.875 354.82C896.207 355.608 895.33 356.223 894.244 356.663C893.157 357.096 891.9 357.313 890.472 357.313ZM906.876 357.238C905.669 357.238 904.571 356.926 903.584 356.301C902.597 355.676 901.808 354.738 901.219 353.488C900.629 352.238 900.335 350.687 900.335 348.833C900.335 346.908 900.64 345.324 901.251 344.081C901.862 342.839 902.661 341.919 903.648 341.322C904.642 340.726 905.711 340.427 906.855 340.427C907.714 340.427 908.449 340.576 909.06 340.875C909.671 341.166 910.175 341.542 910.573 342.004C910.97 342.466 911.272 342.945 911.478 343.442H911.585V335.186H916.794V357.004H911.638V354.351H911.478C911.258 354.856 910.945 355.328 910.541 355.768C910.136 356.209 909.628 356.564 909.017 356.834C908.414 357.103 907.7 357.238 906.876 357.238ZM908.687 353.179C909.319 353.179 909.859 353.002 910.306 352.647C910.754 352.285 911.098 351.777 911.34 351.123C911.581 350.47 911.702 349.703 911.702 348.822C911.702 347.927 911.581 347.157 911.34 346.51C911.105 345.864 910.761 345.367 910.306 345.019C909.859 344.671 909.319 344.497 908.687 344.497C908.041 344.497 907.494 344.674 907.046 345.03C906.599 345.385 906.258 345.885 906.024 346.532C905.796 347.178 905.683 347.941 905.683 348.822C905.683 349.703 905.8 350.47 906.034 351.123C906.269 351.777 906.606 352.285 907.046 352.647C907.494 353.002 908.041 353.179 908.687 353.179Z" fill="white"/>
</svg>
