<svg width="384" height="384" viewBox="0 0 384 384" fill="none" xmlns="http://www.w3.org/2000/svg">
<path d="M333.101 260.25V328.13C333.101 336.41 316.351 347.08 309.651 350.39C253.451 378.14 121.871 379.47 67.8806 346.36C62.9206 343.32 51.6406 334.32 51.6406 328.13V260.25C54.3506 262.09 56.9006 264.32 59.6406 266.11C108.791 298.27 206.681 298.87 262.861 288.52C287.741 283.93 313.101 276.21 333.081 260.26L333.101 260.25Z" fill="white"/>
<path d="M333.1 171V238.12C333.1 246.4 317.95 256.45 311.41 259.89C255.95 288.95 122.07 289.57 68.1804 256.81C62.8004 253.54 51.6504 245.02 51.6504 238.12V171L66.4004 180.6C124.5 212.98 259.72 213.1 317.89 180.88L333.11 171H333.1Z" fill="white"/>
<path d="M333.1 81V148.88C333.1 156.96 317.18 167.33 310.68 170.66C254.96 199.21 121.69 200.2 67.8904 167.11C62.8804 164.03 51.6504 155.2 51.6504 148.88V81C54.8804 83.39 58.0304 85.92 61.4404 88.06C115.24 121.78 230.13 121.06 289.51 102.95C305.15 98.18 320.35 91.31 333.1 81ZM70.8504 124.72C65.3704 124.99 62.4304 131.58 66.2804 135.71C67.3504 136.85 75.3104 140.66 76.9204 140.87C82.3504 141.56 85.8304 135.62 83.1204 130.84C82.0104 128.89 72.9804 124.62 70.8504 124.72ZM114.3 149.03C122.18 139.64 100.66 131.79 97.1304 140.44C93.0704 150.37 110.94 153.03 114.3 149.03Z" fill="white"/>
<path d="M176.501 12.9711C213.361 11.5111 300.731 17.0411 327.101 45.3811C342.281 61.6911 323.491 74.7211 309.411 81.6411C253.061 109.331 128.571 109.741 72.8508 80.3711C58.6508 72.8911 42.9108 60.1911 58.3508 44.5911C80.5608 22.1611 145.851 14.1811 176.491 12.9711H176.501ZM177.251 25.7211C148.201 26.8211 116.751 31.6111 90.0708 43.3711C84.3108 45.9111 65.1808 53.5311 72.5908 61.8911C77.4108 67.3311 85.9808 59.4911 91.0508 57.1011C123.071 42.0511 159.701 39.2511 194.661 37.9111C199.541 36.1011 200.141 29.5811 196.101 26.6411C193.201 24.5311 181.411 25.5611 177.251 25.7211Z" fill="white"/>
</svg>
