<svg width="512" height="512" viewBox="0 0 512 512" fill="none" xmlns="http://www.w3.org/2000/svg">
<g clip-path="url(#clip0_1828_498)">
<path d="M512 477.064C507.444 495.59 494.022 509.024 474.557 510.982L39.3887 511.034C18.1081 509.35 2.65032 493.892 0.966155 472.612C2.14116 376.745 -1.21414 280.382 2.66336 184.802C7.36336 167.791 21.9987 157.007 39.3887 155.662C50.1334 154.826 78.8034 154.409 87.8117 158.208C96.3109 161.785 103.113 170.154 104.549 179.397C105.815 187.491 105.58 210.665 102.656 217.95C98.4259 228.499 90.8798 232.246 80.827 236.045V431.16L432.152 431.16V234.544C420.859 233.982 409.697 221.814 408.287 211.004C407.412 204.281 407.464 185.168 408.652 178.601C410.937 166.08 422.034 156.798 434.607 155.649C449.647 154.265 480.641 154.069 493.37 161.837C503.462 167.999 507.496 177.269 512 187.622V477.051V477.064Z" fill="black"/>
<path d="M274.467 -0.00256944C280.146 3.07854 285.747 4.67132 289.964 9.95883C291.713 12.1522 296.426 21.1083 296.426 23.4583V225.558C312.119 212.542 325.736 187.449 350.006 199.434C356.169 202.476 377.997 224.671 380.321 231.003C384.421 242.126 381.248 253.615 373.31 262.023C340.136 291.097 310.357 330.238 277 358.333C265.093 368.36 251.463 371.05 238.538 360.814L136.221 258.524C120.124 237.609 139.825 216.446 156.236 203.625C182.725 182.932 198.797 211.132 216.591 226.551L216.591 23.4452C216.591 22.9883 219.477 16.0297 220.051 14.9199C224.294 6.66882 230.705 3.97938 238.551 -0.015625L274.48 -0.015625L274.467 -0.00256944Z" fill="black"/>
</g>
<defs>
<clipPath id="clip0_1828_498">
<rect width="512" height="512" fill="white" transform="matrix(0 1 -1 0 512 0)"/>
</clipPath>
</defs>
</svg>
