<svg width="30" height="30" viewBox="0 0 30 30" fill="none" xmlns="http://www.w3.org/2000/svg">
<g clip-path="url(#clip0_3361_365)">
<path d="M1.26282 3.78356C0.565905 3.09535 0.555729 1.96942 1.24009 1.26872C1.92446 0.568026 3.04421 0.557907 3.74113 1.24612L28.7389 25.9316C29.4358 26.6199 29.446 27.7458 28.7616 28.4465C28.0773 29.1472 26.9575 29.1573 26.2606 28.4691L1.26282 3.78356Z" fill="#FFD301"/>
<path d="M25.9693 1.26627C26.6584 0.57035 27.7782 0.567952 28.4703 1.26091C29.1624 1.95387 29.1648 3.07978 28.4757 3.7757L3.75352 28.741C3.06438 29.4369 1.94465 29.4393 1.25254 28.7464C0.560433 28.0534 0.558024 26.9275 1.24716 26.2316L25.9693 1.26627Z" fill="#FFD301"/>
</g>
<defs>
<clipPath id="clip0_3361_365">
<rect width="30" height="30" fill="white"/>
</clipPath>
</defs>
</svg>
