<svg width="30" height="24" viewBox="0 0 30 24" fill="none" xmlns="http://www.w3.org/2000/svg">
<path d="M13.84 7.46L16.4 8.22C15.56 10.62 14.4733 12.7 13.14 14.46C11.8067 16.22 10.22 17.7067 8.38 18.92C6.55333 20.12 4.44 21.1 2.04 21.86C1.96 21.6467 1.82667 21.3933 1.64 21.1C1.45333 20.8067 1.26 20.5133 1.06 20.22C0.873333 19.94 0.693333 19.7067 0.52 19.52C2.82667 18.9067 4.84667 18.0733 6.58 17.02C8.31333 15.9667 9.78 14.66 10.98 13.1C12.18 11.5267 13.1333 9.64667 13.84 7.46ZM6.1 7.62C6.78 9.60667 7.72 11.3867 8.92 12.96C10.12 14.5333 11.6 15.8667 13.36 16.96C15.1333 18.0533 17.2 18.8667 19.56 19.4C19.3733 19.5867 19.1667 19.8267 18.94 20.12C18.7267 20.4133 18.52 20.7067 18.32 21C18.12 21.3067 17.96 21.5733 17.84 21.8C15.3467 21.16 13.2 20.2267 11.4 19C9.6 17.76 8.07333 16.2533 6.82 14.48C5.58 12.7067 4.54 10.66 3.7 8.34L6.1 7.62ZM0.88 6.18H19.2V8.52H0.88V6.18ZM8.76 3H11.22V7.6H8.76V3Z" fill="white"/>
<path d="M25.12 24L24.28 21.34H19.62L18.78 24H16.4L20.94 10.4H23.06L27.62 24H25.12ZM20.92 17.18L20.3 19.14H23.58L22.96 17.18L21.96 13.74L20.92 17.18Z" fill="white"/>
</svg>
